<ttFont>
          <CharString index="0">
            535 186 rmoveto
            -80 callgsubr
            -3 0 -3 -4 -98 callsubr
            -31 callsubr
            -189 127 -75 callsubr
            return
          </CharString>
          <CharString index="1">
            467 299 rmoveto
            -100 callgsubr
            -5 0 -6 -6 -60 callgsubr
            28 29 7 27 15 14 -4 14 -54 callgsubr
            2 0 15 callgsubr
            return
          </CharString>
          <CharString index="2">
            -10 -31 -12 -4 -10 hvcurveto
            -17 -5 -23 -5 -9 53 callsubr
            -4 -11 -15 -12 -14 -11 -23 -14 -15 -9 rrcurveto
            -24 -14 -38 -6 -31 vvcurveto
            -21 31 -24 11 8 10 2 37 callgsubr
            7 31 79 53 44 9 10 -2 9 12 10 4 10 hhcurveto
            10 13 -7 -12 10 hvcurveto
            3 -5 19 -36 -20 vvcurveto
            -6 80 callgsubr
            vhcurveto
            -9 -19 4 -18 -18 -13 -6 -9 -12 -9 3 -6 hhcurveto
            -25 -2 -35 -14 -17 -6 -12 -5 -13 -1 -6 -3 -10 -4 -12 -14 -15 -7 -19 -9 -24 -1 -9 -8 rrcurveto
            -4 -3 -15 -36 -1 vvcurveto
            -3 -10 -1 -10 -8 -18 4 -15 -16 -6 -10 -36 -27 vvcurveto
            9 callsubr
            1 -3 vhcurveto
            -6 26 -65 29 -28 vhcurveto
            -12 19 36 3 3 hhcurveto
            101 53 46 34 57 hvcurveto
            13 8 15 11 15 3 rrcurveto
            -4 -22 -4 -22 -18 vvcurveto
            return
          </CharString>
          <CharString index="3">
            -60 -106 callsubr
            return
          </CharString>
          <CharString index="4">
            -105 callsubr
            -26 8 -19 29 51 20 54 8 vhcurveto
            return
          </CharString>
          <CharString index="5">
            -9 520 -103 callgsubr
            return
          </CharString>
          <CharString index="6">
            66 614 233 rmoveto
            4 5 2 9 10 vvcurveto
            39 -15 23 -25 -18 -19 -8 -1 -19 vhcurveto
            -10 -8 3 -9 -34 -39 -5 -36 -30 -24 9 -20 hhcurveto
            -17 -32 -34 -29 -27 23 -50 17 -6 hvcurveto
            -3 7 7 -1 7 hhcurveto
            23 24 12 7 34 hvcurveto
            -47 -15 -22 -49 -54 hhcurveto
            -4 -44 8 11 -18 hvcurveto
            -11 5 -41 40 22 6 2 6 6 10 -6 4 9 21 9 22 19 13 -6 7 11 vvcurveto
            22 10 31 2 15 vhcurveto
            3 12 -2 12 3 13 3 17 9 19 3 19 5 31 0 25 7 6 rrcurveto
            5 7 39 6 25 hhcurveto
            46 -5 -32 -28 hvcurveto
            -13 10 -15 -19 -17 -3 -13 -9 vvcurveto
            -24 33 1 31 -2 vhcurveto
            -2 12 14 -5 4 hhcurveto
            18 2 11 16 24 7 28 7 18 -8 10 17 rrcurveto
            6 11 0 48 9 vvcurveto
            -1 16 -9 24 -6 28 -7 34 -2 42 -15 16 -18 19 -31 -8 -32 8 rrcurveto
            8 -35 -39 47 -46 hhcurveto
            -31 -59 -23 -8 -34 hvcurveto
            -36 -9 -17 3 -18 -18 -18 -18 -14 -44 -5 -19 -4 -16 0 -19 -5 -17 -5 -19 -15 -17 -8 -20 -7 -17 2 -15 -4 -20 80 callgsubr
            -5 -1 -6 rrcurveto
            -5 -18 -2 -22 -12 -31 13 -24 -27 -24 -20 -17 -23 15 callsubr
            -7 -21 -10 -14 -23 vvcurveto
            -52 22 -16 22 -12 vhcurveto
            -21 40 26 -32 55 76 callgsubr
            5 38 -3 -34 39 hhcurveto
            37 72 29 24 17 hvcurveto
            13 18 -9 30 27 2 rrcurveto
            -1 -7 0 -7 -5 vvcurveto
            -58 36 -49 42 26 40 3 45 31 -11 47 -6 15 vhcurveto
            -7 18 -15 6 18 75 callgsubr
            7 14 -9 24 17 vvcurveto
            18 17 3 29 9 vhcurveto
            10 4 29 4 7 8 rrcurveto
            return
          </CharString>
          <CharString index="7">
            22 callsubr
            -35 callgsubr
            rrcurveto
            31 -14 5 43 -78 8 callsubr
            -1 -2 0 -1 24 callgsubr
            -64 callgsubr
            73 9 17 51 27 hvcurveto
            30 callsubr
            3 16 3 11 -2 22 2 58 callsubr
            32 17 32 30 4 -1 3 4 vvcurveto
            -117 -25 -81 callgsubr
            return
          </CharString>
          <CharString index="8">
            -67 467 117 rmoveto
            -93 callsubr
            -10 41 47 0 45 21 62 callsubr
            hhcurveto
            38 13 33 25 15 hvcurveto
            15 18 4 -4 21 vvcurveto
            9 -2 11 -1 13 vhcurveto
            -189 225 -70 callsubr
            return
          </CharString>
          <CharString index="9">
            -99 callgsubr
            -40 11 50 -20 19 hhcurveto
            return
          </CharString>
          <CharString index="10">
            -94 callsubr
            -46 -84 -40 -52 hvcurveto
            -49 48 4 -16 -25 -6 -43 -35 vvcurveto
            -38 2 -37 3 -30 vhcurveto
            1 -12 6 -10 -16 -10 -1 -12 -11 -23 3 -17 -14 vvcurveto
            -13 -5 -20 -17 vhcurveto
            return
          </CharString>
          <CharString index="11">
            6 -27 43 1 vvcurveto
            5 -8 -17 4 -14 hhcurveto
            -36 6 -42 -41 -12 hvcurveto
            -2 -9 -7 -7 -3 -9 -4 -11 1 -13 -3 -7 -14 -28 -11 5 -9 -33 -9 -29 2 -73 -18 -6 rrcurveto
            -8 -55 49 25 -11 hvcurveto
            -6 14 2 16 -5 14 -5 13 -13 17 -7 16 -9 19 -6 19 -10 8 -17 14 -29 2 -9 15 rrcurveto
            20 -13 9 72 -52 hhcurveto
            -32 -7 -20 -14 hvcurveto
            -10 3 -13 -12 -26 -17 -8 -20 -23 10 -27 -24 -18 -7 -13 -12 -10 16 -10 -14 -3 -1 38 callgsubr
            -6 7 -4 3 -6 vhcurveto
            4 -7 1 -10 2 -1 2 -4 11 0 5 -6 5 -5 0 -12 4 -4 11 -11 19 -4 10 -10 9 -8 4 -14 9 -9 9 -9 11 -3 5 -6 10 -14 4 -26 11 -7 rrcurveto
            7 -5 57 3 -25 vvcurveto
            -20 -38 -36 -14 -6 vhcurveto
            -6 -15 -14 -3 -13 hhcurveto
            -38 -27 24 31 -10 hvcurveto
            -4 9 3 12 -3 10 -2 9 -8 7 -2 9 -5 21 3 23 -4 8 rrcurveto
            12 -6 -29 27 -15 hhcurveto
            -32 -1 -24 -110 -42 -20 rrcurveto
            -16 -8 -2 -20 -29 vvcurveto
            -36 23 -14 22 -35 vhcurveto
            50 -81 32 29 61 -26 rrcurveto
            -7 16 5 -8 16 17 10 12 34 8 8 -1 7 hhcurveto
            39 51 68 38 23 hvcurveto
            9 15 2 13 8 15 return
          </CharString>
          <CharString index="12">
            169 682 574 rmoveto
            6 0 6 7 vvcurveto
            66 -8 54 -55 -26 -30 -8 -2 -14 vhcurveto
            -32 -6 -21 15 -8 -49 rrcurveto
            -1 63 callgsubr
            -3 -17 8 -24 -28 -24 -4 -23 -13 -31 31 -23 -41 -9 -1 -10 -9 -35 12 -38 -39 vvcurveto
            -9 -1 -8 -1 -9 vhcurveto
            -10 26 -11 28 -13 26 -13 26 -19 24 -8 24 rrcurveto
            41 -14 14 32 -65 hhcurveto
            -45 9 -26 -31 -10 hvcurveto
            -12 -36 -28 -52 -16 -42 -18 -47 -11 -52 -20 -37 -3 22 2 27 -3 25 rrcurveto
            -1 12 -5 11 8 vvcurveto
            74 callgsubr
            9 3 9 3 14 1 22 2 20 rrcurveto
            1 14 5 19 15 15 -6 16 15 21 2 30 28 vvcurveto
            38 -4 35 -24 vhcurveto
            -14 -17 -9 -19 -10 -11 1 -10 hhcurveto
            -21 -1 -19 -8 -23 -7 -16 -5 -35 -3 -5 -4 rrcurveto
            -5 -7 -7 -33 -22 -38 19 -42 -27 -9 -1 -11 -10 vvcurveto
            -28 12 -26 1 -22 vhcurveto
            -7 -3 -9 -7 -27 15 -24 -20 -12 -9 -17 -7 -15 19 -42 -32 -7 70 callgsubr
            -55 30 2 44 -9 vhcurveto
            -2 12 10 -7 12 hhcurveto
            10 16 5 1 14 hvcurveto
            43 3 1 -6 21 34 15 24 6 27 13 23 1 3 11 7 3 5 9 15 19 65 15 1 rrcurveto
            3 25 -32 -5 3 41 callsubr
            -1 -8 3 -5 2 -3 8 0 3 -3 26 -26 -5 -30 13 -15 7 -10 42 -25 12 -2 rrcurveto
            5 11 6 9 12 18 -1 18 hhcurveto
            20 20 2 8 8 hvcurveto
            11 11 1 51 22 17 9 17 12 13 1 12 11 26 -1 23 25 27 10 17 23 11 -3 12 12 34 15 33 36 16 -3 17 18 13 6 15 14 vvcurveto
            return
          </CharString>
          <CharString index="13">
            -88 callsubr
            31 5 0 25 vhcurveto
            -77 callgsubr
            return
          </CharString>
          <CharString index="14">
            -55 callsubr
            -39 7 45 vvcurveto
            7 18 14 21 32 37 17 -13 callgsubr
            28 4 11 23 hvcurveto
            55 26 41 7 37 vvcurveto
            18 1 8 -52 callgsubr
            -10 -14 -23 -17 -4 -9 -1 -3 1 -17 -3 -14 76 callsubr
            -7 -13 -5 vvcurveto
            -11 5 -22 1 -22 vhcurveto
            5 -126 7 -75 56 -56 13 callsubr
            return
          </CharString>
          <CharString index="15">
            33 540 251 rmoveto
            -3 34 -7 43 38 26 6 39 39 46 -11 60 62 17 3 13 13 vvcurveto
            61 -50 2 -6 -25 -16 -20 -21 vhcurveto
            -20 11 -19 -32 -32 -17 -30 -41 -29 4 -30 -26 -17 -6 -11 -10 -11 3 -35 -25 vvcurveto
            -17 -1 -13 -5 -10 -11 40 30 -22 vhcurveto
            -14 18 -21 14 -18 20 -7 8 -6 13 -8 10 -9 11 -12 11 -4 9 -6 12 0 11 -3 5 -5 8 -15 10 -8 13 -7 11 0 16 -6 7 rrcurveto
            15 -12 -60 17 -37 hhcurveto
            -41 -26 -21 -42 hvcurveto
            -8 1 -9 -8 -44 -17 -18 -33 -42 7 -44 -44 -25 -1 -25 -26 -20 7 -21 -13 -31 -6 -37 -32 vvcurveto
            -30 8 -5 11 -13 vhcurveto
            5 -7 4 -13 3 -2 rrcurveto
            -4 7 25 -5 14 hhcurveto
            48 -6 18 44 5 hvcurveto
            3 29 9 26 72 callgsubr
            -5 17 -1 22 vhcurveto
            -3 51 2 53 -2 51 10 -23 8 -32 13 -19 8 -13 18 -11 11 -16 10 -16 8 -17 10 -14 12 -19 3 0 15 -12 15 -13 0 -10 10 -17 5 -8 8 -5 3 -5 rrcurveto
            return
          </CharString>
          <CharString index="16">
            -36 477 73 rmoveto
            47 callgsubr
            1 18 -7 17 19 15 6 19 19 18 -6 18 19 35 -1 37 38 42 3 42 46 vvcurveto
            13 -1 11 -4 5 vhcurveto
            4 -4 -39 18 -16 hhcurveto
            -30 -4 -18 -26 hvcurveto
            61 callgsubr
            -8 40 callgsubr
            -5 vvcurveto
            -30 13 -31 0 -34 9 rrcurveto
            6 -24 -18 3 -18 hhcurveto
            -68 -78 -47 -33 -26 hvcurveto
            -24 -31 -10 -84 -49 vvcurveto
            -123 58 -26 127 63 65 6 7 45 vhcurveto
            -1 -8 -1 -7 -7 -20 3 -17 -15 vvcurveto
            -25 -11 -15 -27 -43 -24 21 4 -32 vhcurveto
            -8 -8 -4 -8 -30 -56 36 -43 hhcurveto
            -58 1 -71 -62 -48 15 -31 59 hvcurveto
            25 28 4 25 22 14 -7 13 hhcurveto
            39 63 18 13 34 hvcurveto
            113 52 -11 57 3 64 1 14 7 13 1 13 rrcurveto
            -105 257 rmoveto
            -4 1 -14 -15 vvcurveto
            -39 5 -3 -41 vhcurveto
            -25 -29 7 -22 -14 -29 -9 -25 hhcurveto
            -42 -10 32 20 46 31 26 55 28 39 -10 -6 29 hvcurveto
            31 -6 15 6 3 -31 rrcurveto
            return
          </CharString>
          <CharString index="17">
            15 -6 20 20 vvcurveto
            35 -2 12 -17 27 vhcurveto
            -35 55 -58 54 -77 18 -10 2 -15 0 -12 4 -21 8 -17 19 -20 13 rrcurveto
            -22 14 -12 5 16 vvcurveto
            27 28 6 27 21 46 -5 -7 20 vhcurveto
            19 -6 14 -19 16 -6 rrcurveto
            -6 15 21 -4 16 hhcurveto
            54 16 41 41 21 -9 7 -20 20 hvcurveto
            -10 10 -11 16 -10 8 -7 6 -13 1 -8 6 rrcurveto
            11 -4 -9 2 -6 hhcurveto
            -25 1 -82 -16 -37 -8 -16 -3 -17 1 -11 -4 rrcurveto
            -6 -17 -7 -14 -25 -6 -5 1 -6 hhcurveto
            -6 -43 -21 -22 -18 hvcurveto
            -19 -23 -14 -86 -13 vvcurveto
            -42 65 -10 40 -20 vhcurveto
            -23 47 47 -42 41 5 72 callsubr
            hhcurveto
            24 34 -44 -6 5 hvcurveto
            19 -30 -5 -12 4 -36 rrcurveto
            2 -21 10 -21 -18 vvcurveto
            -45 -23 3 -26 -15 vhcurveto
            -10 -17 -4 -21 -28 hhcurveto
            -23 -26 11 17 -13 hvcurveto
            -18 22 5 27 -6 37 rrcurveto
            -3 16 -6 13 13 7 48 callgsubr
            26 -29 45 -21 11 vhcurveto
            7 -14 -51 14 -17 hhcurveto
            -8 -7 -8 -1 -11 hvcurveto
            -8 -8 4 -7 hhcurveto
            -28 -25 -62 -43 -19 14 -28 12 -34 hvcurveto
            9 -26 6 -29 10 -19 11 -21 17 -13 9 -16 7 -13 -1 -15 9 -12 rrcurveto
            -27 19 46 -17 11 12 12 4 14 return
          </CharString>
          <CharString index="18">
            -41 475 326 rmoveto
            3 19 13 42 22 vvcurveto
            23 -15 81 -16 -12 -24 -11 -5 -11 vhcurveto
            -27 -14 -40 -2 -30 -7 1 -14 -10 vvcurveto
            -5 0 -5 -1 -3 vhcurveto
            -8 10 -38 -15 vvcurveto
            -22 -8 -92 -6 -2 vhcurveto
            -32 -34 81 30 -29 hvcurveto
            -4 3 -11 2 -7 4 -6 4 -4 8 -5 4 -24 14 -23 5 -15 21 rrcurveto
            45 -33 -11 44 -46 hhcurveto
            -17 -17 -10 -21 -21 19 -26 9 -17 hvcurveto
            14 -28 4 -15 13 -22 6 -11 8 -8 5 -9 35 -65 6 -47 79 -42 rrcurveto
            26 -14 48 -5 -18 vvcurveto
            -16 -22 -29 -6 -11 vhcurveto
            -8 -14 -8 -39 -18 -3 rrcurveto
            -13 -23 21 13 -10 hvcurveto
            -7 9 -2 17 -10 14 -6 10 -13 6 -5 9 -6 10 0 12 -3 6 rrcurveto
            15 -11 -14 7 -16 hhcurveto
            -54 -60 -105 -45 -9 3 -10 6 -11 hvcurveto
            3 -4 9 -3 7 -8 8 -10 2 -13 2 -2 rrcurveto
            -27 27 90 -70 51 hhcurveto
            51 96 45 31 hvcurveto
            12 callgsubr
            10 6 2 5 11 vhcurveto
            3 7 1 10 2 4 7 15 18 9 6 13 16 34 15 90 18 55 1 5 7 3 1 5 3 7 -2 9 2 5 5 11 11 7 3 7 1 3 8 61 3 20 rrcurveto
            return
          </CharString>
          <CharString index="19">
            4 11 2 13 11 vvcurveto
            38 -19 21 -35 -29 -21 -16 -7 -32 vhcurveto
            -8 -39 -50 -8 -43 hhcurveto
            -56 7 20 61 18 7 2 35 1 hvcurveto
            95 3 16 2 74 vvcurveto
            22 -3 2 -15 11 vhcurveto
            4 -6 1 9 -21 -19 -18 -16 -30 hhcurveto
            -25 -62 0 13 -12 hvcurveto
            -3 4 -4 28 22 vvcurveto
            return
          </CharString>
          <CharString index="20">
            rmoveto
            -15 5 47 -31 20 42 20 -33 26 hhcurveto
            14 26 15 13 21 -41 38 -11 12 hvcurveto
            -11 12 -11 11 -8 9 rrcurveto
            20 -18 -10 26 -36 hhcurveto
            -22 -35 -40 -41 15 callsubr
            2 -5 hvcurveto
            endchar
          </CharString>
          <CharString index="21">
            96 630 482 rmoveto
            -1 16 -27 38 -6 5 rrcurveto
            8 -11 -42 11 -25 hhcurveto
            -52 5 -91 -62 hvcurveto
            -13 1 -13 -13 vvcurveto
            -32 -1 -32 -5 -32 vhcurveto
            -19 25 -18 28 -18 34 rrcurveto
            33 -18 -13 51 -40 hhcurveto
            -94 32 -114 -38 -50 hvcurveto
            -4 37 -7 43 -7 40 rrcurveto
            67 -11 27 27 -69 hhcurveto
            -42 -3 -19 -16 -35 hvcurveto
            -31 -14 -45 5 -41 vvcurveto
            -23 13 -28 4 -10 vhcurveto
            13 -33 7 -41 11 -25 5 -12 13 -8 7 -17 11 -29 1 -38 10 -32 4 -13 9 -14 5 -16 rrcurveto
            -37 11 -8 -18 26 9 10 2 13 21 12 -3 11 hhcurveto
            40 7 28 18 6 hvcurveto
            1 7 7 71 callsubr
            13 47 -4 40 25 30 rrcurveto
            -107 73 1 -50 50 hhcurveto
            17 18 4 2 14 hvcurveto
            39 6 37 0 55 6 -1 7 7 27 24 28 35 6 -1 6 6 20 11 9 28 vvcurveto
            27 10 17 4 28 vhcurveto
            4 28 2 27 4 19 rrcurveto
            3 16 6 9 12 vvcurveto
            return
          </CharString>
          <CharString index="22">
            15 543 219 rmoveto
            -90 callsubr
            32 47 -15 40 -5 callgsubr
            return
          </CharString>
          <CharString index="23">
            -2 33 -26 24 -12 21 -6 10 -2 17 -4 7 -5 7 -15 6 -11 8 -12 9 -10 12 -9 4 -31 14 -35 -9 -36 7 rrcurveto
            5 -25 -5 18 -37 -11 -11 -1 -10 -6 -8 1 -7 hhcurveto
            -16 1 1 -10 -13 -8 -13 -8 -11 4 -4 -5 -6 -7 1 -22 -7 -8 rrcurveto
            -26 -26 -47 2 -36 -8 81 callgsubr
            vvcurveto
            -24 -12 -29 -7 -26 vhcurveto
            -17 -66 -8 -105 -45 vvcurveto
            1 -11 5 -8 -11 -9 -15 -18 -8 vvcurveto
            3 17 -36 5 -4 vhcurveto
            11 -13 21 -6 8 -8 10 -11 4 -20 10 -16 9 -10 11 -14 8 -10 6 -5 11 -1 8 -6 14 -11 5 -19 9 -4 5 -3 29 -1 15 -2 rrcurveto
            return
          </CharString>
          <CharString index="24">
            3 7 1 5 5 vvcurveto
            11 -5 10 -2 17 vhcurveto
            -15 118 -13 31 -99 30 -16 5 -20 0 -16 5 -6 1 -4 6 -6 2 -8 3 -11 -2 -5 2 rrcurveto
            -8 3 -51 31 21 vvcurveto
            17 19 14 30 8 8 -1 -2 9 vhcurveto
            24 -4 42 -43 27 -5 rrcurveto
            -1 2 74 callsubr
            hhcurveto
            34 17 3 32 42 callgsubr
            -6 4 -7 16 vhcurveto
            53 -24 -65 26 -32 hhcurveto
            -23 -24 -3 -2 -20 hvcurveto
            -90 -9 -57 -9 -102 vvcurveto
            -56 23 -10 28 -21 vhcurveto
            11 -8 10 -12 10 -5 rrcurveto
            57 -29 126 -4 -45 -8 -1 -11 -9 -19 7 -16 -12 vvcurveto
            -32 -29 -16 -23 -18 -24 11 21 vhcurveto
            5 47 callsubr
            24 -21 -5 -13 14 vhcurveto
            -14 9 1 23 -9 11 -3 4 -12 6 -6 6 rrcurveto
            25 -31 -6 0 -26 hhcurveto
            -48 -39 -23 -35 -16 6 -18 5 -26 hvcurveto
            3 -20 -3 -24 6 -15 return
          </CharString>
          <CharString index="25">
            19 543 419 rmoveto
            7 16 2 13 13 vvcurveto
            23 -9 22 -6 34 vhcurveto
            -4 19 3 20 -5 13 -12 31 -7 2 -21 20 rrcurveto
            30 -32 -2 0 -28 -46 -67 -16 -72 -12 -13 1 -13 hhcurveto
            -18 -17 -1 -2 -17 hvcurveto
            -9 -2 -15 -7 -16 -3 -15 -4 -19 3 -12 -5 rrcurveto
            -27 -12 -15 -27 -19 vvcurveto
            -24 12 2 8 -7 vhcurveto
            18 -16 1 -10 -36 -64 -7 -34 -45 -23 2 -22 -21 -70 -29 -58 -77 vvcurveto
            -56 34 -1 47 38 35 18 43 vhcurveto
            15 -7 20 22 vvcurveto
            38 6 37 4 31 vhcurveto
            64 8 -19 11 57 hhcurveto
            24 -1 -29 -36 12 hvcurveto
            9 -27 7 -21 5 -20 rrcurveto
            -81 19 3 -103 56 hhcurveto
            33 43 17 6 13 hvcurveto
            24 12 41 38 29 vvcurveto
            16 -9 16 -4 19 vhcurveto
            -5 18 -1 21 -6 16 -7 20 -16 24 -8 18 rrcurveto
            -4 8 -21 40 18 vvcurveto
            18 52 2 20 16 vhcurveto
            9 8 15 24 6 14 rrcurveto
            -92 53 78 callsubr
            0 vhcurveto
            -23 -29 -13 -19 vhcurveto
            -8 71 callgsubr
            hhcurveto
            -1 -39 -49 -9 -33 -16 -12 1 -13 hhcurveto
            -10 -11 -1 -3 -12 hvcurveto
            -5 15 1 21 -2 23 rrcurveto
            -1 8 -4 14 10 vvcurveto
            14 56 7 20 3 vhcurveto
            6 40 43 4 25 hhcurveto
            21 24 -6 -11 11 hvcurveto
            6 -6 -1 -13 10 -14 9 -14 15 -4 1 -7 rrcurveto
            return
          </CharString>
          <CharString index="26">
            rmoveto
            4 -1 -8 4 -10 hhcurveto
            -24 -1 -18 -27 -16 hvcurveto
            -11 -18 -11 -3 -17 -40 -15 80 callsubr
            -7 -13 -9 -17 -10 -15 -6 -8 -9 -24 -3 -22 -13 -28 -26 -58 -37 -71 -34 -55 -13 -21 -8 -23 -11 -16 rrcurveto
            -19 -27 -42 -77 -16 vvcurveto
            -30 33 -11 15 vhcurveto
            2 1 8 0 9 9 7 7 13 34 20 27 32 50 15 49 24 66 18 49 44 73 13 51 17 43 9 3 23 67 rrcurveto
            10 21 52 78 31 vvcurveto
            54 callsubr
            -1 2 vhcurveto
            return
          </CharString>
          <CharString index="27">
            -45 477 210 -87 callgsubr
            return
          </CharString>
          <CharString index="28">
            19 -3 -49 71 -41 hhcurveto
            -22 -5 -17 -8 -25 hvcurveto
            -13 -4 -20 4 -11 -6 rrcurveto
            -18 -10 -11 -38 -32 vvcurveto
            -29 7 -35 57 8 9 0 2 10 vhcurveto
            -3 -8 0 -8 -7 71 callgsubr
            -9 -13 -8 -11 -12 vvcurveto
            -7 18 -16 26 35 18 61 32 12 vhcurveto
            10 29 -1 8 6 31 rrcurveto
            3 15 10 11 5 vvcurveto
            return
          </CharString>
          <CharString index="29">
            11 570 46 rmoveto
            3 29 callgsubr
            26 -13 18 -22 vhcurveto
            -13 -14 -5 -17 -8 -12 6 -15 -5 26 callsubr
            78 callgsubr
            -18 2 -112 13 11 vvcurveto
            6 16 33 12 22 vhcurveto
            25 46 14 29 26 39 11 16 17 14 12 19 23 37 5 28 18 25 rrcurveto
            19 26 30 19 31 30 -27 1 14 2 0 4 3 vvcurveto
            33 -38 35 -36 vhcurveto
            -1 69 callgsubr
            hhcurveto
            -22 -11 -17 5 -26 -4 rrcurveto
            -4 -26 -26 -12 -32 -12 -12 1 -12 -19 -18 -9 -19 -10 -12 6 -10 hhcurveto
            -5 -11 -6 -3 -14 hvcurveto
            -9 -3 -17 -1 79 callgsubr
            -3 -4 -13 -11 -8 -12 -9 -15 -2 -4 -5 rrcurveto
            -7 -8 -4 -18 -20 vvcurveto
            -43 15 -46 27 11 7 7 2 9 vhcurveto
            39 6 24 18 27 10 36 12 33 5 42 10 -44 -93 -69 -65 -54 -67 -5 -7 -13 -10 -3 -5 -8 -11 0 -16 -11 -10 -16 -14 -31 1 -15 -15 rrcurveto
            -12 -12 -4 -33 2 vvcurveto
            -13 5 -12 2 -15 vhcurveto
            4 -35 -2 -28 17 -14 13 -11 37 -2 33 -6 rrcurveto
            -4 22 10 -6 25 39 46 4 45 30 28 -6 24 21 17 6 19 29 17 -12 18 hhcurveto
            44 6 35 30 5 hvcurveto
            return
          </CharString>
          <CharString index="30">
            rmoveto
            2 30 6 45 40 vvcurveto
            28 -4 26 -10 14 vhcurveto
            -6 7 -16 1 -15 10 rrcurveto
            15 -22 -1 15 -30 hhcurveto
            -15 -17 -3 -2 -14 hvcurveto
            -24 -4 -27 -2 -51 -51 15 -55 -23 -11 0 -11 -11 -46 15 -21 -41 -40 -8 -40 -38 5 callgsubr
            -49 -7 48 46 hvcurveto
            16 1 16 15 17 -6 16 16 vvcurveto
            -31 callgsubr
            9 -24 4 -19 vhcurveto
            5 -21 0 -31 5 -19 2 -7 9 -10 4 -11 5 -12 -1 -15 5 -10 15 -28 22 -14 22 -16 10 -8 8 -12 7 -5 -19 callgsubr
            26 1 callgsubr
            15 5 16 1 15 vhcurveto
            2 37 -1 39 2 38 rrcurveto
            return
          </CharString>
          <CharString index="31">
            3 6 16 callgsubr
            12 -7 14 24 60 callsubr
            6 38 -27 54 54 14 2 14 15 vvcurveto
            68 -17 44 -52 -20 -18 -10 -23 -11 vhcurveto
            -13 -28 -10 -132 -45 -18 4 -19 -18 -16 -6 -13 -13 vvcurveto
            return
          </CharString>
          <CharString index="32">
            59 callgsubr
            -62 -8 -7 -1 -27 -4 -24 0 -23 -3 16 89 35 71 26 78 18 -7 -5 -24 9 -21 rrcurveto
            3 -8 34 -38 -34 -7 -3 -7 -6 -6 15 -31 -19 vvcurveto
            -5 -1 -3 -2 -3 vhcurveto
            return
          </CharString>
          <CharString index="33">
            49 callgsubr
            -1 hhcurveto
            -52 -5 -38 -28 -9 -41 -7 -35 -5 -33 -9 -40 rrcurveto
            -8 -33 -12 -30 -26 -14 2 -16 -15 -26 -7 -36 -33 vvcurveto
            -32 10 -6 8 -23 vhcurveto
            12 -35 0 -52 10 -12 return
          </CharString>
          <CharString index="34">
            rmoveto
            26 -53 30 -35 -17 -68 -3 -12 -10 vhcurveto
            -3 -7 -12 -37 -7 vvcurveto
            -6 5 -8 1 -4 vhcurveto
            -5 -2 -6 -6 vvcurveto
            -8 6 -14 4 -11 vhcurveto
            -29 6 4 -30 39 12 13 2 14 11 12 -3 9 hhcurveto
            51 10 27 44 hvcurveto
            9 0 8 8 12 4 11 12 2 -1 3 2 vvcurveto
            -80 hmoveto
            1 -5 1 -9 -11 vvcurveto
            -39 -11 -12 -35 -23 1 29 20 28 3 13 21 7 9 -1 -1 7 vhcurveto
            5 4 67 callsubr
            5 0 -1 -11 3 hvcurveto
            endchar
          </CharString>
          <CharString index="35">
            347 887 151 -7 callsubr
            8 vlineto
            23 1 6 0 23 -77 callgsubr
            -5 -6 -1 -1 -6 hvcurveto
            1 vlineto
            -45 callgsubr
            -10 vlineto
            -98 callsubr
            11 6 -1 4 4 hvcurveto
            1 hlineto
            -69 callgsubr
            -543 162 -75 callsubr
            return
          </CharString>
          <CharString index="36">
            rmoveto
            1 4 0 5 4 vvcurveto
            25 -7 30 -3 28 vhcurveto
            -10 94 -15 84 91 11 3 14 14 vvcurveto
            26 -8 -3 -4 11 vhcurveto
            32 -12 1 7 -19 hhcurveto
            -11 -42 -10 -26 -15 6 -18 2 -16 hvcurveto
            3 -31 1 -21 -24 -14 0 -16 -18 -73 12 -54 -90 vvcurveto
            -51 -16 -4 -31 -53 callsubr
            40 31 -18 46 15 44 6 16 17 16 2 14 rrcurveto
            return
          </CharString>
          <CharString index="37">
            rmoveto
            -8 -22 -61 2 -29 -5 rrcurveto
            -1 -6 -18 -9 -12 hhcurveto
            -9 -3 16 27 13 1 11 3 42 callgsubr
            9 85 22 25 hhcurveto
            9 16 -23 -39 -4 -1 54 callgsubr
            hvcurveto
            return
          </CharString>
          <CharString index="38">
            -56 callsubr
            -47 -16 -35 -40 -34 43 -11 6 32 40 27 19 6 vhcurveto
            return
          </CharString>
          <CharString index="39">
            34 -82 callgsubr
            return
          </CharString>
          <CharString index="40">
            -78 callgsubr
            endchar
          </CharString>
          <CharString index="41">
            -22 432 631 rmoveto
            15 3 -10 10 -11 hhcurveto
            -27 -9 -43 -45 -21 hvcurveto
            38 -45 -67 -3 -70 -74 callsubr
            3 -5 10 -2 11 -3 -4 -10 -3 -9 -2 -10 -13 -49 13 -23 21 -14 rrcurveto
            -4 7 3 -4 4 hhcurveto
            19 20 56 36 13 hvcurveto
            -4 20 19 -1 20 17 callsubr
            4 vlineto
            -65 callgsubr
            -3 6 -1 6 -2 6 rrcurveto
            1 0 34 callsubr
            vhcurveto
            5 11 29 64 6 25 rrcurveto
            1 3 0 15 callgsubr
            -195 -155 rmoveto
            18 19 -19 -26 13 hvcurveto
            -22 -45 -5 -12 -4 -15 -5 -11 rlinecurve
            -7 -15 -10 -11 -6 -12 -8 -17 -5 -18 -8 -18 -10 -25 -13 -24 -10 -20 -3 -8 rcurveline
            -7 13 -3 18 25 vvcurveto
            48 callsubr
            37 callgsubr
            -64 callsubr
            vhcurveto
            97 -253 45 callsubr
            -11 -10 0 1 -9 hvcurveto
            25 67 22 63 21 47 3 7 rcurveline
            2 -11 7 -13 4 -11 50 callsubr
            return
          </CharString>
          <CharString index="42">
            654 -81 callsubr
            return
          </CharString>
          <CharString index="43">
            1 7 16 18 1 6 3 14 0 28 4 23 rrcurveto
            60 callgsubr
            28 15 10 -1 9 7 vvcurveto
            9 1 7 5 4 vhcurveto
            -1 21 3 12 return
          </CharString>
          <CharString index="44">
            vvcurveto
            -13 1 -12 4 -7 vhcurveto
            -23 15 52 -16 14 6 4 2 14 8 8 -3 8 hhcurveto
            8 2 3 5 45 callgsubr
            2 10 -1 5 1 12 5 43 25 5 22 rrcurveto
            return
          </CharString>
          <CharString index="45">
            396 470 rmoveto
            -40 callgsubr
            -6 70 callgsubr
            7 callsubr
            -113 21 -109 -73 -15 callgsubr
            55 13 79 61 -14 callgsubr
            return
          </CharString>
          <CharString index="46">
            -91 360 544 rmoveto
            12 1 -9 9 -10 hhcurveto
            -25 1 -4 -37 -16 -38 -6 -15 rcurveline
            -1 -26 -29 -2 -27 17 callgsubr
            22 -68 5 -19 41 -20 -4 -10 -2 -10 -2 -10 -7 -41 14 -17 21 -12 rrcurveto
            -4 6 4 -3 4 hhcurveto
            19 15 59 26 7 hvcurveto
            -6 30 35 -4 32 22 callgsubr
            -35 callgsubr
            -11 24 0 32 -36 12 8 19 11 34 3 16 rrcurveto
            -143 -150 rmoveto
            11 11 2 2 12 hvcurveto
            -18 -46 -9 -31 -5 -12 -8 -9 -4 -10 rlinecurve
            -7 -13 -2 -15 -5 -14 -4 -13 -5 -12 -5 -11 rrcurveto
            -3 -3 1 2 -4 hvcurveto
            -32 callsubr
            hhcurveto
            107 -117 -28 callgsubr
            -6 -6 10 2 -12 hvcurveto
            12 41 11 38 11 30 12 29 14 25 7 21 3 8 rcurveline
            16 -14 3 -23 -13 vvcurveto
            -21 -2 -24 -1 -13 vhcurveto
            return
          </CharString>
          <CharString index="47">
            -34 -27 -78 1 hvcurveto
            -11 7 -5 -11 vvcurveto
            -15 -12 -5 -7 -15 vhcurveto
            -7 -16 -7 -38 -21 vvcurveto
            -1 -36 13 -33 12 -35 return
          </CharString>
          <CharString index="48">
            -12 6 -11 -12 vvcurveto
            -7 -5 -3 -1 -7 vhcurveto
            -2 -15 0 -13 -14 -28 2 -27 -25 -17 -6 -20 -17 -20 12 -24 -22 -16 -10 -19 -15 vvcurveto
            -9 31 -49 37 81 31 15 67 vhcurveto
            41 -12 49 29 17 3 24 24 4 -6 22 15 vvcurveto
            15 11 3 6 vhcurveto
            14 12 -10 18 13 16 1 15 hhcurveto
            18 17 -1 -5 5 hvcurveto
            10 -21 -3 -27 -23 -30 -1 -36 -26 vvcurveto
            -66 -1 -24 35 -19 vhcurveto
            -15 28 51 -25 25 hhcurveto
            10 9 9 6 13 hvcurveto
            18 8 17 0 8 8 rrcurveto
            11 11 4 14 16 vvcurveto
            24 -8 27 -1 25 vhcurveto
            9 3 11 9 return
          </CharString>
          <CharString index="49">
            -3 callsubr
            -15 48 -3 61 -3 39 21 callgsubr
            hvcurveto
            -29 6 -36 -33 -8 -6 -7 -10 12 callsubr
            -4 4 2 73 -7 47 -2 13 -6 33 callgsubr
            rrcurveto
            28 callgsubr
            vhcurveto
            -15 6 -18 -16 -52 -13 -70 -45 -59 callsubr
            1 0 15 callgsubr
            return
          </CharString>
          <CharString index="50">
            66 608 551 rmoveto
            1 5 0 6 5 vvcurveto
            33 -16 23 -19 -26 -37 -33 -5 -14 vhcurveto
            -5 -2 -15 1 -8 -2 -11 -4 -18 -15 -17 -9 -70 -37 -46 -27 -70 -50 rrcurveto
            -4 -5 -28 -22 -8 hhcurveto
            -4 0 7 12 55 7 44 4 56 hvcurveto
            1 25 7 25 21 vvcurveto
            20 -6 20 -23 -60 -34 -1 -55 vhcurveto
            35 callgsubr
            -4 -37 -34 5 -32 -5 1 -6 -6 -7 -6 -15 -8 -20 6 -28 -32 -41 -15 -52 -31 vvcurveto
            -8 5 -9 1 -8 vhcurveto
            2 -16 1 -19 -14 -54 -17 -61 -55 vvcurveto
            -13 9 -61 23 -15 vhcurveto
            -10 14 49 -6 18 hhcurveto
            19 61 15 7 9 hvcurveto
            16 12 4 31 6 vvcurveto
            32 -12 49 -5 40 vhcurveto
            -3 17 -2 25 -4 22 rrcurveto
            -4 20 -9 20 15 vvcurveto
            26 10 -8 15 11 vhcurveto
            2 4 15 16 8 hhcurveto
            21 25 -102 -30 17 hvcurveto
            7 -14 13 -13 5 -11 19 -42 7 -75 54 -3 rrcurveto
            5 13 7 5 16 hvcurveto
            54 18 70 33 42 vvcurveto
            19 -16 7 -12 20 vhcurveto
            -9 15 -8 18 -8 14 -15 26 -28 31 -13 29 -7 15 1 17 -6 11 rrcurveto
            -6 11 -28 25 19 vvcurveto
            -1 12 29 17 12 9 37 26 84 22 9 48 rrcurveto
            return
          </CharString>
          <CharString index="51">
            rmoveto
            2 8 1 7 6 vvcurveto
            36 -33 17 -34 return
          </CharString>
          <CharString index="52">
            36 -5 -10 17 -25 -20 -26 -13 -28 -13 -10 6 -16 -34 -26 -6 -25 hhcurveto
            -15 -15 2 7 -16 hvcurveto
            0 return
          </CharString>
          <CharString index="53">
            -56 callsubr
            -48 -14 -34 -40 -33 41 -13 8 32 40 27 19 64 callsubr
          </CharString>
          <CharString index="54">
            vhcurveto
            -11 -12 1 -10 hhcurveto
            -1 -19 -28 -5 -24 -12 -13 6 -9 hhcurveto
            -30 -6 -27 -16 -40 -12 2 -19 -18 -23 -4 -18 -9 vvcurveto
            -24 27 -24 21 vhcurveto
            19 51 5 36 13 14 -6 14 hhcurveto
            17 8 14 11 18 hvcurveto
            13 8 22 4 11 9 return
          </CharString>
          <CharString index="55">
            -65 callsubr
            -209 -240 -50 callsubr
            return
          </CharString>
          <CharString index="56">
            -67 467 53 callgsubr
            1 -13 2 -11 -9 vvcurveto
            -21 -4 4 -15 -18 vhcurveto
            -25 -15 -13 -33 -38 -24 -31 8 -21 hhcurveto
            -45 -47 0 10 -41 hvcurveto
            -27 7 -36 4 -20 16 -56 56 -7 75 -5 126 rrcurveto
            -1 22 -5 22 11 vvcurveto
            5 7 13 2 10 vhcurveto
            3 14 -1 17 1 3 4 9 23 17 10 14 14 19 143 54 90 1 rrcurveto
            25 39 -20 -20 20 hvcurveto
            5 -5 52 callsubr
            -8 29 -36 -11 7 4 -35 rrcurveto
            3 -27 -1 -8 -18 vvcurveto
            -37 -41 -7 -55 -26 vhcurveto
            -11 -23 -28 -4 -22 hhcurveto
            -3 -2 0 1 -3 hvcurveto
            1 -9 -37 -17 -32 hhcurveto
            -21 -18 -14 -7 -45 39 -7 0 hvcurveto
            -7 16 15 -2 15 25 26 6 34 16 10 -6 13 28 26 13 20 hhcurveto
            25 10 -17 -36 5 hvcurveto
            -189 225 rmoveto
            1 3 1 4 4 vvcurveto
            39 -16 23 -9 -25 -85 -22 -14 -9 vhcurveto
            -3 -5 -1 -11 -13 vvcurveto
            -27 3 -16 9 12 18 9 1 6 vhcurveto
            29 5 61 -2 8 22 rrcurveto
            return
          </CharString>
          <CharString index="57">
            rmoveto
            1 6 0 4 4 35 -62 -21 26 vvcurveto
            8 4 10 2 14 vhcurveto
            8 55 7 48 52 vvcurveto
            40 -10 9 -30 vhcurveto
            -14 -17 -3 -15 -20 -22 3 -16 hhcurveto
            -22 -5 -10 -10 hvcurveto
            -12 7 -16 -20 -11 -6 -16 -14 vvcurveto
            -14 8 -3 16 vhcurveto
            13 16 3 14 hhcurveto
            10 13 -2 -7 hvcurveto
            -8 -6 -24 -6 vvcurveto
            -39 -4 9 -40 -19 -8 -12 5 -7 hhcurveto
            -33 -14 -13 -31 -32 24 -1 29 hvcurveto
            47 19 -3 40 1 16 -4 13 hhcurveto
            16 9 13 25 hvcurveto
            return
          </CharString>
          <CharString index="58">
            -3 27 vhcurveto
            -4 35 11 -7 -29 36 -6 8 -4 15 -5 5 rrcurveto
            20 -20 -39 20 -25 hhcurveto
            return
          </CharString>
          <CharString index="59">
            8 35 7 28 36 55 -4 49 46 69 37 -15 53 17 -2 69 callsubr
            15 5 9 1 12 vhcurveto
            return
          </CharString>
          <CharString index="60">
            -32 9 -27 -22 -39 -46 24 -48 -35 41 -1 -17 vvcurveto
            -25 -4 -57 -2 -29 vhcurveto
            -1 -13 -5 -36 -30 vvcurveto
            -40 0 -12 31 63 61 1 55 vhcurveto
            28 -12 18 23 vvcurveto
            26 -6 11 -5 28 vhcurveto
            -3 16 2 21 -2 21 rrcurveto
            -2 19 -5 20 13 vvcurveto
            22 25 13 28 12 vhcurveto
            5 10 26 14 22 hhcurveto
            19 7 -10 -16 hvcurveto
            -11 -3 -13 -9 -14 9 -30 -18 -26 -2 -33 -31 vvcurveto
            -59 4 -37 44 58 74 18 35 7 vhcurveto
            return
          </CharString>
          <CharString index="61">
            -33 callsubr
            hhcurveto
            11 hlineto
            -6 callsubr
            hhcurveto
            7 hlineto
            12 13 34 11 hvcurveto
            endchar
          </CharString>
          <CharString index="62">
            -44 callsubr
            -4 -18 -2 -18 -16 vvcurveto
            -79 48 -40 61 21 23 3 5 17 vhcurveto
            return
          </CharString>
          <CharString index="63">
            -5 20 3 20 -7 19 -3 8 -9 5 -3 8 -6 14 5 11 -5 6 rrcurveto
            21 -16 -44 6 -36 hhcurveto
            -74 3 -9 -30 -13 hvcurveto
            -6 -19 -8 -4 -17 -5 1 -5 -5 vvcurveto
            -22 -19 -11 -8 -33 vhcurveto
            return
          </CharString>
          <CharString index="64">
            33 5 39 33 vvcurveto
            27 -5 29 -4 11 vhcurveto
            -14 42 -13 -16 -40 14 rrcurveto
            11 -31 -16 23 -45 hhcurveto
            -35 -5 -21 -44 hvcurveto
            -23 5 -20 -23 -33 -14 -22 -36 return
          </CharString>
          <CharString index="65">
            hhcurveto
            38 13 33 25 15 hvcurveto
            15 18 4 -4 21 vvcurveto
            9 -2 11 -1 13 vhcurveto
            return
          </CharString>
          <CharString index="66">
            19 -7 23 24 vvcurveto
            11 4 16 2 14 vhcurveto
            6 44 5 49 46 vvcurveto
            16 -1 15 -1 15 vhcurveto
            return
          </CharString>
          <CharString index="67">
            rmoveto
            43 -4 40 -47 -68 -10 -7 -39 -10 vhcurveto
            -4 -14 -2 27 callsubr
            -27 19 -31 40 56 30 1 57 vhcurveto
            25 -611 -71 callsubr
            endchar
          </CharString>
          <CharString index="68">
            rmoveto
            3 1 3 3 vvcurveto
            23 -16 28 -4 17 vhcurveto
            -45 callsubr
            32 10 68 69 5 29 rrcurveto
            return
          </CharString>
          <CharString index="69">
            426 rmoveto
            20 -8 -13 5 -16 -13 -16 -4 -17 -8 -9 1 -8 -6 -16 -1 -11 hhcurveto
            -16 -1 7 16 hvcurveto
            17 3 21 15 vvcurveto
            35 -11 -2 -20 9 vhcurveto
            6 -13 -10 7 -12 hhcurveto
            -27 -15 -34 -18 hvcurveto
            -14 6 -26 -20 vvcurveto
            -12 -2 -11 -10 vhcurveto
            -9 -15 5 -8 -20 -12 -26 -20 -8 -7 1 -3 hhcurveto
            -11 4 -10 -8 -8 hvcurveto
            -10 -9 -13 7 -17 -9 4 -13 -15 vvcurveto
            -42 -3 -49 43 11 11 4 1 9 vhcurveto
            7 14 -3 -1 7 hvcurveto
            6 5 0 4 hhcurveto
            17 2 -3 -38 hvcurveto
            -22 -3 -21 -17 vvcurveto
            -29 15 -26 40 48 44 67 6 1 vhcurveto
            10 -16 42 24 vvcurveto
            18 8 -2 28 3 46 -1 26 30 vhcurveto
            14 12 16 71 35 vvcurveto
            50 callgsubr
            -1 4 vhcurveto
            return
          </CharString>
          <CharString index="70">
            -2 callgsubr
            -24 callgsubr
            return
          </CharString>
          <CharString index="71">
            rmoveto
            3 29 callgsubr
            39 -13 34 -22 vhcurveto
            -35 -20 -32 -48 hhcurveto
            -3 -1 0 2 return
          </CharString>
          <CharString index="72">
            -19 3 49 -71 41 hhcurveto
            22 5 17 8 25 hvcurveto
            13 4 20 -4 11 6 rrcurveto
            18 10 11 38 32 vvcurveto
            29 -7 35 -57 -8 -9 0 -2 -10 vhcurveto
            3 8 0 8 7 33 callgsubr
            9 13 8 11 12 vvcurveto
            7 -18 16 -26 -35 -18 -61 -32 -12 vhcurveto
            -10 -29 1 -8 -6 -31 rrcurveto
            -3 -15 -10 -11 -5 vvcurveto
            return
          </CharString>
          <CharString index="73">
            -17 callsubr
            -5 0 -7 -7 -23 callgsubr
            72 -6 17 33 58 -2 -12 -25 9 4 callgsubr
            return
          </CharString>
          <CharString index="74">
            rrcurveto
            -4 -10 -3 -15 -7 vvcurveto
            -9 24 -28 10 -4 vhcurveto
            12 -6 18 7 15 -12 rrcurveto
            -39 -25 -95 30 -64 vvcurveto
            -33 22 -40 29 vhcurveto
            7 8 7 10 return
          </CharString>
          <CharString index="75">
            -23 12 -9 17 63 vvcurveto
            48 9 40 46 vhcurveto
            8 9 -1 8 return
          </CharString>
          <CharString index="76">
            27 -4 -2 53 18 hvcurveto
            9 27 15 39 34 vvcurveto
            7 -1 81 callsubr
            vhcurveto
            return
          </CharString>
          <CharString index="77">
            34 -5 -15 7 -23 -15 -18 -3 -21 -37 -15 18 -25 -13 -13 -3 -13 hhcurveto
            -10 -45 4 2 -4 hvcurveto
            -28 13 16 39 -41 4 rrcurveto
            -84 39 -59 -43 -15 -13 12 -16 hhcurveto
            -79 16 -24 -50 -15 hvcurveto
            -4 -13 -8 -8 -11 vvcurveto
            -5 26 -57 5 -5 vhcurveto
            -7 10 77 callsubr
            return
          </CharString>
          <CharString index="78">
            -12 -12 3 -34 -3 -19 rrcurveto
            -3 -18 -8 -15 -17 vvcurveto
            return
          </CharString>
          <CharString index="79">
            rmoveto
            3 -1 -33 43 -3 -19 -16 -3 -23 -12 -14 1 -12 hhcurveto
            -31 -28 -15 -19 -27 27 -15 7 hvcurveto
            17 34 10 23 hhcurveto
            11 10 -2 -9 -32 -30 -11 -18 hvcurveto
            -10 -9 2 -7 hhcurveto
            -14 -16 -9 -29 -17 16 -4 25 -3 hvcurveto
            1 8 0 8 hhcurveto
            27 0 -7 -8 -30 -39 -1 -9 hvcurveto
            -11 -12 1 -10 hhcurveto
            -29 -8 -12 -34 -36 8 -23 17 hvcurveto
            9 11 2 10 hhcurveto
            -1 17 28 -3 26 hhcurveto
            65 25 22 70 35 -11 35 -23 9 hvcurveto
            14 28 10 28 27 vvcurveto
            12 -2 11 -4 11 vhcurveto
            endchar
          </CharString>
          <CharString index="80">
            rmoveto
            -4 1 -3 -4 vvcurveto
            -30 -17 -32 -6 -32 vhcurveto
            -2 -13 2 -22 -3 -11 -3 -16 -12 -20 -9 -17 rrcurveto
            -51 -27 -9 -17 -73 hhcurveto
            -62 -69 14 17 -38 hvcurveto
            -44 20 -4 19 -23 69 -12 35 -13 33 1 36 rrcurveto
            21 7 38 7 16 vhcurveto
            7 15 12 5 15 11 -7 5 11 vvcurveto
            -1 27 78 34 vhcurveto
            4 52 callgsubr
            1 82 callgsubr
            18 36 -9 34 30 32 3 27 hhcurveto
            78 -5 -43 -31 14 hvcurveto
            5 -12 16 -12 10 -19 5 -9 0 -15 5 -10 5 -14 9 -6 1 -8 rrcurveto
            return
          </CharString>
          <CharString index="81">
            -39 callsubr
            -105 52 rmoveto
            -17 callgsubr
            return
          </CharString>
          <CharString index="82">
            -14 callsubr
            -17 -26 5 1 -25 hvcurveto
            return
          </CharString>
          <CharString index="83">
            1 3 0 3 3 12 -7 8 11 75 callgsubr
            6 11 -10 8 10 1 12 27 13 38 -22 36 27 9 2 10 8 vvcurveto
            17 -15 1 -11 8 vhcurveto
            32 -45 0 35 -75 hhcurveto
            -43 -29 -8 -9 -21 hvcurveto
            -7 -16 -33 -28 -13 hhcurveto
            return
          </CharString>
          <CharString index="84">
            rmoveto
            54 callsubr
            1 25 -30 -11 32 20 11 29 21 vvcurveto
            15 -6 14 -18 -35 -4 -24 -13 vhcurveto
            -18 6 -24 -16 vvcurveto
            -14 -1 -7 -19 -31 -11 1 39 vhcurveto
            26 6 18 23 vvcurveto
            21 -38 12 -27 -3 -21 1 -8 -8 vhcurveto
            -10 -12 1 -77 -3 -32 rrcurveto
            -2 -9 -5 -17 -15 vvcurveto
            -30 32 -6 30 vhcurveto
            20 36 10 24 hhcurveto
            18 5 4 -36 hvcurveto
            -25 -13 -10 -17 vvcurveto
            -12 13 -19 14 25 19 35 24 vhcurveto
            15 -3 15 12 vvcurveto
            33 24 -19 4 21 vhcurveto
            return
          </CharString>
          <CharString index="85">
            rmoveto
            -3 -3 -33 64 callgsubr
            -62 -12 rcurveline
            -72 callgsubr
            return
          </CharString>
          <CharString index="86">
            27 17 9 7 18 vvcurveto
            10 -3 13 -5 21 vhcurveto
            return
          </CharString>
          <CharString index="87">
            -30 12 -41 -26 -28 -51 4 -27 vvcurveto
            -31 26 -18 17 vhcurveto
            18 25 6 25 return
          </CharString>
          <CharString index="88">
            1 callsubr
            -32 17 11 vvcurveto
            7 14 2 21 32 42 -5 -13 callgsubr
            9 18 11 23 hvcurveto
            32 15 66 9 13 16 rrcurveto
            6 7 3 35 7 vvcurveto
            18 -12 33 -49 callsubr
            return
          </CharString>
          <CharString index="89">
            20 14 -9 12 13 19 9 17 7 9 -3 7 hhcurveto
            11 12 10 2 13 hvcurveto
            37 7 25 5 25 7 rrcurveto
            -1 -12 -1 27 callsubr
            -53 4 -17 81 60 18 31 31 19 -5 22 -2 26 vhcurveto
            return
          </CharString>
          <CharString index="90">
            -31 -86 hvcurveto
            -16 4 -17 -19 -28 -4 -27 -31 -17 13 -33 -32 -40 -77 29 -35 vvcurveto
            -30 23 -22 17 vhcurveto
            7 6 1 5 hhcurveto
            10 5 -3 -10 hvcurveto
            -17 -11 -28 -2 vvcurveto
            -7 -32 -2 -14 -24 return
          </CharString>
          <CharString index="91">
            18 19 -3 16 hhcurveto
            8 7 0 3 6 hvcurveto
            -2 -1 30 22 1 vvcurveto
            9 9 5 18 11 13 13 15 16 7 5 12 rrcurveto
            return
          </CharString>
          <CharString index="92">
            rmoveto
            2 4 47 callsubr
            17 -8 22 -1 17 vhcurveto
            6 2 9 7 vvcurveto
            15 -24 14 -33 -8 -45 -9 -11 -16 vhcurveto
            -14 -26 -26 -37 vvcurveto
            -46 18 -14 34 39 54 8 27 11 vhcurveto
            return
          </CharString>
          <CharString index="93">
            -13 callsubr
            hhcurveto
            return
          </CharString>
          <CharString index="94">
            rmoveto
            61 -3 0 22 -75 -13 -11 -9 -16 return
          </CharString>
          <CharString index="95">
            -307 232 -53 callgsubr
            endchar
          </CharString>
          <CharString index="96">
            rmoveto
            2 5 1 return
          </CharString>
          <CharString index="97">
            rmoveto
            -13 2 34 -50 29 hhcurveto
            15 4 12 6 17 hvcurveto
            9 3 14 -3 8 4 rrcurveto
            13 7 7 27 22 vvcurveto
            20 -5 25 -40 -5 -6 0 -2 -7 vhcurveto
            2 6 0 6 4 81 callsubr
            6 9 6 8 9 vvcurveto
            4 -13 12 -18 -25 -12 -43 -22 -9 vhcurveto
            -7 -21 1 -5 -4 -22 rrcurveto
            -2 -11 -7 -7 -4 vvcurveto
            endchar
          </CharString>
          <CharString index="98">
            -3 callgsubr
            -13 2 30 57 return
          </CharString>
          <CharString index="99">
            128 681 rmoveto
            35 -19 0 -20 -8 -7 -4 -1 -7 vhcurveto
            -25 -6 -30 9 -33 -5 4 -2 -7 63 callgsubr
            -2 -17 17 -4 -36 -16 -1 -18 -17 vvcurveto
            -34 13 -21 37 24 5 12 16 vhcurveto
            65 callsubr
            3 8 11 4 21 11 -2 15 14 13 5 11 8 vvcurveto
            return
          </CharString>
          <CharString index="100">
            rmoveto
            -88 callsubr
            return
          </CharString>
          <CharString index="101">
            14 12 9 3 14 hvcurveto
            24 4 24 0 20 6 rrcurveto
            3 9 3 9 11 return
          </CharString>
          <CharString index="102">
            -1 18 -3 21 15 vvcurveto
            21 15 8 1 12 vhcurveto
            8 -5 58 -4 5 vhcurveto
            8 -6 -38 2 -6 hhcurveto
            -17 -2 -26 9 -48 -29 6 -39 -11 return
          </CharString>
          <CharString index="103">
            14 -4 -29 3 -22 -28 -75 -27 -60 hhcurveto
            -16 5 11 10 return
          </CharString>
          <CharString index="104">
            59 578 174 rmoveto
            -1 20 -12 19 20 9 1 10 10 29 -9 31 25 11 3 8 9 vvcurveto
            1 13 -14 14 -6 19 return
          </CharString>
          <CharString index="105">
            -1 -13 -3 -16 -13 -13 7 -10 -11 vvcurveto
            1 -15 -17 -14 -16 vvcurveto
            -21 14 -59 11 -9 vhcurveto
            -8 8 32 -5 29 hhcurveto
            58 10 21 57 16 -1 16 -3 14 hvcurveto
            -3 15 -13 18 14 vvcurveto
            12 19 7 3 14 vhcurveto
            6 -5 19 -1 19 vhcurveto
            -3 return
          </CharString>
          <CharString index="106">
            27 5 22 25 vvcurveto
            56 -21 26 -65 -64 -12 -28 -44 return
          </CharString>
          <CharString index="107">
            27 -7 33 38 vvcurveto
            20 28 0 27 vhcurveto
            16 23 1 21 41 12 -10 26 hhcurveto
            58 25 17 70 11 42 callsubr
            10 hvcurveto
            return
          </CharString>
          <CharString index="108">
            53 callgsubr
            -55 callsubr
            return
          </CharString>
          <CharString index="109">
            4 -13 0 -13 2 -12 rrcurveto
            return
          </CharString>
          <CharString index="110">
            -47 -40 9 -41 hhcurveto
            -29 -35 -29 -46 -30 34 9 36 -4 hvcurveto
            16 16 -9 14 hhcurveto
            22 27 1 2 22 hvcurveto
            return
          </CharString>
          <CharString index="111">
            rmoveto
            -1 -7 -9 -10 -3 -11 -6 -22 2 -16 -8 -8 -13 -12 -24 1 -16 -5 rrcurveto
            -5 -15 -10 -10 -16 hhcurveto
            -7 -11 241 28 -2 hvcurveto
            -4 10 10 -1 8 12 9 2 10 hhcurveto
            34 39 -42 -64 hvcurveto
            return
          </CharString>
          <CharString index="112">
            77 callsubr
            11 31 7 31 28 75 callsubr
            5 vvcurveto
            return
          </CharString>
          <CharString index="113">
            rmoveto
            -22 -5 -29 -6 -32 hhcurveto
            -55 -59 9 33 hvcurveto
            18 10 8 14 23 -7 17 18 vvcurveto
            14 15 33 41 5 vhcurveto
            8 11 -6 9 14 5 9 10 hhcurveto
            29 35 -128 -39 hvcurveto
            endchar
          </CharString>
          <CharString index="114">
            -44 -11 -42 0 -45 vvcurveto
            -35 30 -20 37 8 9 1 2 9 vhcurveto
            return
          </CharString>
          <CharString index="115">
            -27 -32 -3 -30 -34 -36 9 -18 return
          </CharString>
          <CharString index="116">
            -3 0 -3 return
          </CharString>
          <CharString index="117">
            -9 -10 0 -1 -10 hvcurveto
            -2 33 callgsubr
            10 21 3 21 18 vvcurveto
            23 -9 33 -3 35 vhcurveto
            return
          </CharString>
          <CharString index="118">
            0 35 callsubr
            vhcurveto
            return
          </CharString>
          <CharString index="119">
            -10 4 -20 -17 vvcurveto
            -17 -4 -11 -20 -13 -15 3 1 -11 vhcurveto
            -31 2 -58 -2 -10 9 return
          </CharString>
          <CharString index="120">
            20 -16 36 -4 27 -7 rrcurveto
            return
          </CharString>
          <CharString index="121">
            -6 -6 -10 -6 return
          </CharString>
          <CharString index="122">
            -6 1 -6 return
          </CharString>
          <CharString index="123">
            550 -11 callsubr
            5 5 vvcurveto
            14 -8 12 -1 14 vhcurveto
            8 4 6 7 vvcurveto
            27 -54 8 -35 vhcurveto
            -11 -10 -1 -8 hhcurveto
            -40 6 27 52 hvcurveto
            return
          </CharString>
          <CharString index="124">
            -32 callgsubr
            43 9 6 -9 22 21 63 callsubr
            13 17 34 11 23 18 17 2 10 rrcurveto
            return
          </CharString>
          <CharString index="125">
            -8 86 -10 98 -4 76 rrcurveto
            16 2 13 12 vvcurveto
            29 -19 8 -4 24 vhcurveto
            return
          </CharString>
          <CharString index="126">
            -11 -14 11 -22 2 -16 1 -14 -5 -13 4 -13 7 -22 49 3 26 11 return
          </CharString>
          <CharString index="127">
            vvcurveto
            8 41 -4 21 3 vhcurveto
            12 2 15 8 19 3 26 4 31 -2 14 4 57 15 1 98 13 57 rrcurveto
            3 13 6 4 14 vvcurveto
            return
          </CharString>
          <CharString index="128">
            723 rmoveto
            58 -25 0 -27 -10 -9 -7 -2 -9 vhcurveto
            -34 -9 -40 14 -54 -9 6 -3 -12 -5 -1 -4 -3 -28 24 -6 -60 return
          </CharString>
          <CharString index="129">
            -91 441 297 rmoveto
            return
          </CharString>
          <CharString index="130">
            14 20 -7 -2 16 hvcurveto
            7 callgsubr
            return
          </CharString>
          <CharString index="131">
            -43 -9 -57 1 -42 -4 rrcurveto
            -2 -20 -23 -7 -13 hhcurveto
            -12 -1 6 16 21 6 -9 16 9 hvcurveto
            15 29 60 43 77 return
          </CharString>
          <CharString index="132">
            11 4 8 8 vvcurveto
            16 -29 18 -21 -27 -19 -37 -18 vhcurveto
            return
          </CharString>
          <CharString index="133">
            -6 0 -6 return
          </CharString>
          <CharString index="134">
            -12 -11 vvcurveto
            return
          </CharString>
          <CharString index="135">
            1 34 callsubr
            return
          </CharString>
          <CharString index="136">
            -5 rmoveto
            7 1 7 8 vvcurveto
            13 -9 4 -3 16 vhcurveto
            -3 9 0 10 9 11 74 callgsubr
            vvcurveto
            return
          </CharString>
          <CharString index="137">
            9 17 12 20 return
          </CharString>
          <CharString index="138">
            vvcurveto
            -45 30 4 33 -12 vhcurveto
            -5 15 9 -12 19 hhcurveto
            23 -2 13 7 13 hvcurveto
            15 8 return
          </CharString>
          <CharString index="139">
            -12 callgsubr
            endchar
          </CharString>
          <CharString index="140">
            -13 -13 -43 -40 -15 vvcurveto
            -30 45 -39 24 vhcurveto
            4 4 1 3 13 -7 -28 30 hhcurveto
            return
          </CharString>
          <CharString index="141">
            0 1 1 return
          </CharString>
          <CharString index="142">
            0 0 0 return
          </CharString>
          <CharString index="143">
            hvcurveto
            -12 -9 3 -25 -3 -14 rrcurveto
            -2 -13 -8 -11 -13 vvcurveto
            -23 42 -16 25 return
          </CharString>
          <CharString index="144">
            rmoveto
            15 -6 return
          </CharString>
          <CharString index="145">
            2 0 3 return
          </CharString>
          <CharString index="146">
            4 5 2 5 hhcurveto
            12 14 -13 -41 -9 -2 -9 -4 -4 hvcurveto
            endchar
          </CharString>
          <CharString index="147">
            22 14 -5 -23 hvcurveto
            -21 -10 -29 -25 return
          </CharString>
          <CharString index="148">
            hvcurveto
            4 -6 return
          </CharString>
          <CharString index="149">
            -1 12 -1 return
          </CharString>
          <CharString index="150">
            12 12 vvcurveto
            return
          </CharString>
          <CharString index="151">
            -1 -1 -1 return
          </CharString>
          <CharString index="152">
            68 callgsubr
            -28 -52 -11 -6 2 callgsubr
            return
          </CharString>
          <CharString index="153">
            2 3 67 callsubr
            return
          </CharString>
          <CharString index="154">
            16 callgsubr
            vvcurveto
            return
          </CharString>
          <CharString index="155">
            8 1 8 return
          </CharString>
          <CharString index="156">
            -8 -7 vvcurveto
            return
          </CharString>
          <CharString index="157">
            2 callsubr
            52 callsubr
            -7 -15 vvcurveto
            return
          </CharString>
          <CharString index="158">
            hhcurveto
            31 9 35 29 10 -1 9 -2 6 hvcurveto
            endchar
          </CharString>
          <CharString index="159">
            4 -15 6 return
          </CharString>
          <CharString index="160">
            -5 -9 -5 return
          </CharString>
          <CharString index="161">
            2 0 2 return
          </CharString>
          <CharString index="162">
            52 -43 -158 59 hhcurveto
            26 97 24 21 13 hvcurveto
            return
          </CharString>
          <CharString index="163">
            17 31 -6 17 hhcurveto
            22 -1 21 15 hvcurveto
            endchar
          </CharString>
          <CharString index="164">
            35 callgsubr
            hhcurveto
            return
          </CharString>
          <CharString index="165">
            13 rrcurveto
            6 return
          </CharString>
          <CharString index="166">
            12 10 1 return
          </CharString>
          <CharString index="167">
            6 1 8 return
          </CharString>
          <CharString index="168">
            3 -1 4 return
          </CharString>
          <CharString index="169">
            31 -8 24 return
          </CharString>
          <CharString index="170">
            23 21 3 return
          </CharString>
          <CharString index="171">
            5 vhcurveto
            endchar
          </CharString>
          <CharString index="172">
            10 -1 11 11 vvcurveto
            46 callgsubr
            return
          </CharString>
          <CharString index="173">
            -10 9 -2 return
          </CharString>
          <CharString index="174">
            0 2 hhcurveto
            return
          </CharString>
          <CharString index="175">
            -1 0 0 return
          </CharString>
          <CharString index="176">
            20 19 vvcurveto
            return
          </CharString>
          <CharString index="177">
            -7 -1 -8 return
          </CharString>
          <CharString index="178">
            4 1 5 return
          </CharString>
          <CharString index="179">
            5 1 5 return
          </CharString>
          <CharString index="180">
            19 -3 24 24 21 7 19 14 vvcurveto
            return
          </CharString>
          <CharString index="181">
            6 0 7 return
          </CharString>
          <CharString index="182">
            5 -1 5 return
          </CharString>
          <CharString index="183">
            rrcurveto
            -2 -10 return
          </CharString>
          <CharString index="184">
            13 -1 13 return
          </CharString>
          <CharString index="185">
            rmoveto
            69 callgsubr
            return
          </CharString>
          <CharString index="186">
            hvcurveto
            9 17 return
          </CharString>
          <CharString index="187">
            -17 -2 -18 return
          </CharString>
          <CharString index="188">
            7 -1 6 return
          </CharString>
        <CharString name=".notdef">
          -318 endchar
        </CharString>
        <CharString name="A">
          27 -107 callsubr
          endchar
        </CharString>
        <CharString name="AE">
          -72 callsubr
          endchar
        </CharString>
        <CharString name="AEacute">
          -72 callsubr
          230 524 -104 callgsubr
        </CharString>
        <CharString name="Aacute">
          26 -107 callsubr
          144 524 -104 callgsubr
        </CharString>
        <CharString name="Abreve">
          27 -107 callsubr
          79 500 -91 callgsubr
        </CharString>
        <CharString name="Acircumflex">
          26 -107 callsubr
          111 485 -106 callgsubr
        </CharString>
        <CharString name="Adieresis">
          26 -107 callsubr
          126 549 -90 callgsubr
        </CharString>
        <CharString name="Agrave">
          26 535 186 rmoveto
          1 -6 1 -7 -7 vvcurveto
          -34 -15 -39 -9 -27 vhcurveto
          -53 -18 4 2 -27 hhcurveto
          -19 -50 20 40 -11 hvcurveto
          4 4 10 11 vvcurveto
          21 -2 -11 91 -14 -33 9 -23 -27 -26 -36 14 -55 hhcurveto
          -14 -13 -1 -3 -4 hvcurveto
          -14 -11 3 -65 -7 -23 -2 -4 -16 -20 -7 -16 rrcurveto
          -35 -16 -2 -62 -38 hhcurveto
          -25 -19 27 5 -2 hvcurveto
          -15 28 -18 3 25 vvcurveto
          9 2 24 3 10 vhcurveto
          3 7 13 8 7 5 -4 5 5 1 1 1 1 vvcurveto
          13 39 28 32 2 49 rrcurveto
          23 0 34 9 21 vhcurveto
          2 4 24 14 28 7 -2 8 8 vvcurveto
          18 14 5 5 16 vhcurveto
          10 28 -10 34 10 27 rrcurveto
          3 11 18 5 14 5 -1 6 6 30 33 34 25 4 41 callgsubr
          24 44 31 51 29 14 -17 -2 37 vhcurveto
          21 25 11 22 hhcurveto
          12 28 -15 -17 13 hvcurveto
          23 -30 -11 -67 18 -42 rrcurveto
          7 -17 13 -8 -30 -18 -3 -19 -17 -28 17 -5 -18 -12 -6 -17 -15 vvcurveto
          -14 7 -11 -1 -12 vhcurveto
          -1 -25 -18 -24 -22 vvcurveto
          -19 21 -14 5 -20 vhcurveto
          -189 127 rmoveto
          2 3 1 3 5 19 -15 31 6 6 3 7 7 vvcurveto
          34 -34 38 -3 8 vhcurveto
          -9 21 5 24 -18 7 -26 -78 -35 -71 -16 -89 23 3 24 0 27 4 7 1 62 8 2 3 rrcurveto
          -184 528 -87 callsubr
        </CharString>
        <CharString name="Amacron">
          27 -107 callsubr
          85 481 -75 callgsubr
        </CharString>
        <CharString name="Aogonek">
          27 583 -94 -36 callgsubr
          2 4 4 3 7 3 rrcurveto
          -31 callsubr
          -80 callgsubr
          -10 vlineto
          -99 callgsubr
          3 -14 8 -10 10 -9 -10 -14 -8 -17 -10 -11 -61 callgsubr
          -237 407 -75 callsubr
          endchar
        </CharString>
        <CharString name="Aring">
          26 -107 callsubr
          87 575 -73 callsubr
        </CharString>
        <CharString name="Atilde">
          26 -107 callsubr
          98 604 -95 callgsubr
        </CharString>
        <CharString name="B">
          74 598 236 rmoveto
          -2 51 -18 10 -17 35 -4 8 -1 13 -4 6 -5 8 -16 7 -10 10 -10 10 -9 14 -9 7 -11 9 -22 2 -4 17 rrcurveto
          44 54 26 26 14 hvcurveto
          10 19 -2 32 4 23 rrcurveto
          3 17 6 8 14 vvcurveto
          17 -29 49 -14 19 vhcurveto
          -16 21 -6 -3 -24 16 rrcurveto
          19 -29 -5 16 -27 -18 -28 -4 -26 -29 -35 4 -28 hhcurveto
          -34 1 -23 -16 -27 -2 rrcurveto
          -81 -6 -43 0 -52 vvcurveto
          -13 11 -15 2 -16 vhcurveto
          -22 -7 -27 -31 -58 11 -66 -43 -34 -18 -18 -29 -41 14 -39 -19 vvcurveto
          1 -80 -28 18 -23 -23 rrcurveto
          -14 -14 -12 -28 -29 -19 18 -25 -9 -5 -3 -2 -2 vvcurveto
          -4 60 -30 25 vhcurveto
          11 11 3 10 22 9 -14 33 37 27 -15 29 29 6 18 34 20 22 -3 19 hhcurveto
          42 14 25 14 24 hvcurveto
          25 15 33 8 28 7 -4 8 8 34 37 -10 39 13 -2 17 16 21 6 21 15 2 34 callsubr
          vvcurveto
          -179 343 rmoveto
          -7 -13 -49 -5 -6 vhcurveto
          -11 -9 -70 -20 2 -3 -5 1 -6 -22 -72 -18 -17 hhcurveto
          -7 -1 5 9 hvcurveto
          12 3 17 11 vvcurveto
          -1 16 -7 32 23 vvcurveto
          54 101 3 42 51 39 -17 -55 vhcurveto
          -49 -235 rmoveto
          10 -17 8 -40 -38 vvcurveto
          -35 -6 -33 -15 -13 vhcurveto
          -14 -16 -51 -12 -16 hhcurveto
          -22 -63 -9 35 hvcurveto
          12 2 17 17 26 -3 13 11 11 2 14 28 14 -3 8 30 vvcurveto
          6 6 72 0 30 hhcurveto
          38 -5 0 -19 16 hvcurveto
          5 -5 9 -4 2 -3 rrcurveto
          endchar
        </CharString>
        <CharString name="C">
          -92 callgsubr
          endchar
        </CharString>
        <CharString name="Cacute">
          -92 callgsubr
          -90 310 -104 callgsubr
        </CharString>
        <CharString name="Ccaron">
          15 543 504 78 callsubr
          -1 vvcurveto
          -20 -11 -73 -23 -24 vhcurveto
          -11 -11 -21 -2 -17 -6 rrcurveto
          -10 -28 -33 -27 -29 hhcurveto
          -20 -31 18 52 hvcurveto
          16 2 18 17 vvcurveto
          37 -13 63 -15 vhcurveto
          -6 -7 -4 -10 -24 3 12 -12 hhcurveto
          -32 4 -30 -32 -9 hvcurveto
          -3 -11 -11 -14 -4 -15 -5 -15 -2 -18 -6 -19 rrcurveto
          -10 -33 -21 -72 -42 vvcurveto
          -30 22 -30 31 -19 vhcurveto
          9 -5 19 -3 15 -7 rrcurveto
          -14 28 8 -15 51 hhcurveto
          46 55 22 19 22 hvcurveto
          6 8 27 44 32 hhcurveto
          7 24 -5 -29 hvcurveto
          -19 -8 -21 -18 -8 1 -13 -11 vvcurveto
          -23 -12 -23 -35 -25 vhcurveto
          -11 -8 -18 -5 -15 -9 rrcurveto
          -10 -16 -20 -12 -10 -10 -10 4 -13 -21 -19 -2 -21 hhcurveto
          -21 -31 2 3 -21 hvcurveto
          -15 2 -29 1 -5 3 -9 4 -5 19 -14 11 -8 6 -11 1 -6 5 -8 10 -11 14 -9 10 -10 16 -4 20 -10 11 -8 8 -21 6 -11 13 rrcurveto
          -5 4 -17 36 -3 8 15 18 9 vvcurveto
          11 -5 8 -1 11 vhcurveto
          45 8 105 17 66 vhcurveto
          7 26 12 29 24 8 -2 9 8 vvcurveto
          36 47 -2 26 26 vhcurveto
          7 8 -1 22 6 7 4 5 11 -4 13 8 13 8 -1 10 16 -1 rrcurveto
          7 8 -1 6 10 11 1 11 hhcurveto
          37 5 -18 -5 25 hvcurveto
          36 -7 35 9 31 -14 9 -4 10 -12 12 -9 11 -8 15 -6 5 -7 4 -7 2 -17 6 -10 12 -21 26 -24 2 -33 rrcurveto
          -143 371 -96 callgsubr
        </CharString>
        <CharString name="Ccedilla">
          15 404 -20 callgsubr
          21 17 9 10 13 hvcurveto
          5 hlineto
          -83 callgsubr
          vvcurveto
          3 vlineto
          -84 callsubr
          2 hlineto
          -9 callgsubr
        </CharString>
        <CharString name="Ccircumflex">
          -92 callgsubr
          -141 267 -106 callgsubr
        </CharString>
        <CharString name="Cdotaccent">
          -92 callgsubr
          -195 278 -54 callsubr
        </CharString>
        <CharString name="D">
          104 634 -34 callgsubr
          -31 4 -36 -27 -20 -7 -9 -16 -20 3 -40 -38 -41 callgsubr
          1 0 2 1 vvcurveto
          -210 -9 rmoveto
          19 callgsubr
          -5 -6 0 -5 hhcurveto
          10 callsubr
          -4 46 -14 31 49 vvcurveto
          40 4 47 2 37 -22 callgsubr
          endchar
        </CharString>
        <CharString name="Dcaron">
          104 634 282 rmoveto
          -1 0 -2 -1 -10 -3 -12 -11 -14 1 -11 -10 vvcurveto
          -24 -11 -59 -18 -21 vhcurveto
          -7 -9 -40 -14 -14 -11 -15 -12 -26 -31 -18 -12 -7 -6 -13 -3 -11 -7 rrcurveto
          -11 -16 -1 -12 -16 -25 -42 8 -36 -29 -25 -16 -17 hhcurveto
          -20 -27 11 5 -24 hvcurveto
          -21 4 -33 1 -20 7 -11 4 -6 13 -20 8 rrcurveto
          -43 16 -18 -11 62 vvcurveto
          31 6 21 12 vhcurveto
          12 15 -11 8 hhcurveto
          21 5 46 41 hvcurveto
          38 -3 40 20 16 7 9 20 27 -4 36 31 16 5 37 15 22 -70 -25 53 vvcurveto
          45 114 31 32 13 vhcurveto
          9 22 21 13 11 11 8 -7 10 hhcurveto
          1 16 15 15 21 hhcurveto
          30 9 -18 -10 23 hvcurveto
          12 -6 14 1 11 -4 54 -22 31 -25 33 -43 12 -15 19 -12 9 -13 14 -20 17 -45 12 -31 14 -36 21 -59 2 -53 rrcurveto
          -210 -9 rmoveto
          3 12 1 11 11 vvcurveto
          36 -14 27 -5 33 vhcurveto
          -6 34 1 31 -14 24 -4 7 -8 7 -6 8 -7 8 -3 11 -6 5 -5 5 -16 4 -13 10 rrcurveto
          18 -23 -3 22 -28 hhcurveto
          -20 -22 -8 -5 hvcurveto
          -11 4 -28 -7 vvcurveto
          -2 -37 -4 -47 -40 vvcurveto
          -49 14 -31 4 -46 vhcurveto
          3 -35 9 -33 -23 -18 -3 -21 -21 vvcurveto
          -10 1 -9 2 -9 vhcurveto
          1 10 10 0 9 5 6 0 5 hhcurveto
          33 27 2 47 25 hvcurveto
          5 9 6 26 8 23 6 19 11 20 4 17 rrcurveto
          2 607 -96 callgsubr
        </CharString>
        <CharString name="Dcroat">
          190 720 -34 callgsubr
          vvcurveto
          -27 vlineto
          1 -15 -15 0 -13 -48 callgsubr
          30 33 5 6 33 vhcurveto
          1 -13 0 -15 -13 -41 callgsubr
          vvcurveto
          -280 67 -14 callsubr
          -12 hlineto
          39 4 44 2 36 -22 callgsubr
          19 callgsubr
          hhcurveto
          -16 hlineto
          10 callsubr
          -1 4 0 4 3 vvcurveto
          8 3 7 2 8 1 51 callgsubr
        </CharString>
        <CharString name="E">
          -101 callgsubr
          endchar
        </CharString>
        <CharString name="Eacute">
          -101 callgsubr
          -131 651 -104 callgsubr
        </CharString>
        <CharString name="Ebreve">
          -101 callgsubr
          -179 641 -91 callgsubr
        </CharString>
        <CharString name="Ecaron">
          -56 callgsubr
          -175 717 -96 callgsubr
        </CharString>
        <CharString name="Ecircumflex">
          -101 callgsubr
          -169 626 -106 callgsubr
        </CharString>
        <CharString name="Edieresis">
          -101 callgsubr
          -129 673 -90 callgsubr
        </CharString>
        <CharString name="Edotaccent">
          -101 callgsubr
          -224 614 -54 callsubr
        </CharString>
        <CharString name="Egrave">
          -56 callgsubr
          -466 653 -87 callsubr
        </CharString>
        <CharString name="Emacron">
          -101 callgsubr
          -192 608 -75 callgsubr
        </CharString>
        <CharString name="Eng">
          -92 callsubr
          8 -19 -4 -12 14 -5 rrcurveto
          15 -29 27 -28 -27 5 callgsubr
          -14 -16 -3 21 hvcurveto
          -31 callgsubr
          7 -24 6 -19 vhcurveto
          10 -33 53 5 24 -19 -19 callgsubr
          -10 1 callgsubr
          9 2 10 1 9 vhcurveto
          7 13 2 18 17 5 callsubr
          endchar
        </CharString>
        <CharString name="Eogonek">
          17 523 -106 -36 callgsubr
          8 12 13 3 3 10 8 7 7 6 8 4 -42 callgsubr
          -97 callsubr
          -7 hlineto
          -16 -26 -23 -17 -24 21 -4 13 -18 41 callsubr
          4 -18 4 -4 36 -37 40 9 36 -12 rrcurveto
          -9 24 1 -14 42 hhcurveto
          30 33 5 4 26 hvcurveto
          -17 -17 -13 -9 -51 -63 callsubr
          endchar
        </CharString>
        <CharString name="Eth">
          190 720 -34 callgsubr
          vvcurveto
          -27 vlineto
          1 -15 -15 0 -13 -48 callgsubr
          30 33 5 6 33 vhcurveto
          1 -13 0 -15 -13 -41 callgsubr
          vvcurveto
          -280 67 -14 callsubr
          -12 hlineto
          39 4 44 2 36 -22 callgsubr
          19 callgsubr
          hhcurveto
          -16 hlineto
          10 callsubr
          -1 4 0 4 3 vvcurveto
          8 3 7 2 8 1 51 callgsubr
        </CharString>
        <CharString name="Euro">
          181 396 427 rmoveto
          17 -8 -50 11 -24 hhcurveto
          -9 -11 -3 -2 -10 hvcurveto
          24 83 -3 -5 66 5 rrcurveto
          1 12 7 5 6 hhcurveto
          13 1 -18 -19 4 hvcurveto
          9 -43 6 -8 16 -42 rrcurveto
          -30 11 0 -22 40 21 27 3 25 23 24 -6 14 hhcurveto
          28 30 15 19 7 hvcurveto
          2 7 1 6 7 vvcurveto
          21 -11 20 -7 16 vhcurveto
          -14 29 -12 29 -11 28 -18 47 -7 5 -53 13 -20 5 -21 12 -20 5 -19 4 -23 -1 -20 3 rrcurveto
          4 -29 -27 6 -21 hhcurveto
          -24 -49 -13 -19 -20 hvcurveto
          -7 -5 -2 -14 -6 -12 -6 -11 -10 -7 -6 -9 -25 -39 -16 -36 -20 -36 rrcurveto
          -46 -1 -54 -7 -18 vvcurveto
          -51 18 -20 35 -3 vhcurveto
          1 -1 hlineto
          -13 4 -9 5 -14 vhcurveto
          3 -23 -25 5 -20 -12 -10 -4 -8 hhcurveto
          -6 hlineto
          -9 -4 -18 -13 -50 17 -13 36 hvcurveto
          19 20 2 17 hhcurveto
          29 hlineto
          3 hlineto
          1 63 callgsubr
          -3 vvcurveto
          -22 vlineto
          -36 53 -50 45 -39 vhcurveto
          -24 27 10 -17 37 32 40 7 20 8 7 -4 7 hhcurveto
          1 11 9 6 11 hhcurveto
          -2 18 15 -10 26 hhcurveto
          37 37 9 18 15 hvcurveto
          9 11 3 20 13 19 17 25 21 6 2 18 rrcurveto
          8 -17 37 -2 7 vhcurveto
          16 -4 -5 37 -34 hhcurveto
          -17 -1 -22 -12 -10 hvcurveto
          -5 -7 -19 -4 -10 -11 -4 -4 0 -8 -2 -3 rrcurveto
          -21 -13 -23 -5 -26 hhcurveto
          -16 -17 2 2 -16 hvcurveto
          -18 2 -19 -2 -15 3 -7 2 -6 5 -9 3 -11 3 -15 -2 -5 2 -15 6 -16 23 -15 29 rrcurveto
          29 2 15 5 37 vvcurveto
          50 callgsubr
          -2 5 vhcurveto
          -5 10 -32 6 -33 3 -3 15 -2 14 -1 13 rrcurveto
          9 hlineto
          32 callgsubr
        </CharString>
        <CharString name="F">
          9 557 548 rmoveto
          1 2 0 4 4 vvcurveto
          28 -15 59 -8 8 vhcurveto
          5 -6 -7 2 -10 -24 -34 -14 -37 -9 -11 1 -8 -27 -47 -14 -34 9 callgsubr
          -4 hvcurveto
          4 -33 -54 39 -48 hhcurveto
          -10 -10 -2 -4 -9 hvcurveto
          -39 -18 -64 12 -46 -36 16 -21 -21 -6 -1 -8 -6 vvcurveto
          -18 23 -23 16 -6 vhcurveto
          13 -6 38 15 -43 -15 -2 -18 -14 -25 3 -27 -23 vvcurveto
          -39 -18 -11 -4 -23 vhcurveto
          -12 7 -26 -28 vvcurveto
          -12 -6 -12 -1 -12 vhcurveto
          -11 3 -11 -11 -22 -12 -19 -15 vvcurveto
          -4 5 -4 1 -8 vhcurveto
          10 -56 1 -15 63 -6 rrcurveto
          -2 16 17 -10 10 hhcurveto
          13 20 11 4 14 hvcurveto
          11 4 32 5 6 6 rrcurveto
          14 13 5 51 16 vvcurveto
          35 -8 52 -8 28 vhcurveto
          -9 29 -18 8 41 vvcurveto
          11 3 8 8 vhcurveto
          8 11 -4 11 1 24 9 8 15 9 -16 16 hhcurveto
          40 38 32 22 29 -19 40 -30 -19 -21 -9 -2 -20 hvcurveto
          -36 -4 -25 7 -32 -13 -3 45 -4 42 -8 40 rrcurveto
          46 callsubr
          34 17 12 3 25 hvcurveto
          27 3 184 -14 18 55 rrcurveto
          endchar
        </CharString>
        <CharString name="G">
          -101 callsubr
          endchar
        </CharString>
        <CharString name="Gbreve">
          -101 callsubr
          -197 571 -91 callgsubr
        </CharString>
        <CharString name="Gcircumflex">
          -101 callsubr
          -189 547 -106 callgsubr
        </CharString>
        <CharString name="Gcommaaccent">
          -101 callsubr
          -236 -364 -97 callgsubr
        </CharString>
        <CharString name="Gdotaccent">
          -101 callsubr
          -237 556 -54 callsubr
        </CharString>
        <CharString name="H">
          -58 callsubr
          endchar
        </CharString>
        <CharString name="Hbar">
          -3 callsubr
          -9 26 -4 31 -3 28 rrcurveto
          -1 17 19 -2 13 hhcurveto
          23 -1 14 9 hvcurveto
          -3 28 0 11 -73 1 rrcurveto
          3 vlineto
          21 callgsubr
          -17 2 -19 2 -20 hvcurveto
          -68 1 -57 2 -48 1 rrcurveto
          -3 8 -4 7 7 28 callgsubr
          -14 5 -17 1 -15 vhcurveto
          -16 -1 -14 -2 -7 -3 -12 -6 3 -16 -3 -9 -11 -34 8 -12 46 -3 rrcurveto
          -4 -31 -3 -30 -23 -59 callsubr
          vvcurveto
          -237 329 rmoveto
          -3 vlineto
          12 callsubr
          -2 2 -1 23 -1 27 rrcurveto
          endchar
        </CharString>
        <CharString name="Hcircumflex">
          -58 callsubr
          -182 587 -106 callgsubr
        </CharString>
        <CharString name="I">
          -93 callgsubr
          endchar
        </CharString>
        <CharString name="IJ">
          317 -93 callgsubr
          576 -65 -77 callsubr
          endchar
        </CharString>
        <CharString name="Iacute">
          -93 callgsubr
          67 262 -104 callgsubr
        </CharString>
        <CharString name="Ibreve">
          -93 callgsubr
          -1 257 -91 callgsubr
        </CharString>
        <CharString name="Icircumflex">
          -93 callgsubr
          12 221 -106 callgsubr
        </CharString>
        <CharString name="Idieresis">
          -93 callgsubr
          39 294 -90 callgsubr
        </CharString>
        <CharString name="Idotaccent">
          -93 callgsubr
          -52 240 -54 callsubr
        </CharString>
        <CharString name="Igrave">
          250 495 rmoveto
          -1 -12 -5 -9 -15 -19 2 -20 -17 -53 -37 15 -69 -46 4 -49 -55 vvcurveto
          -36 -7 -28 -8 -35 vhcurveto
          -40 -9 -1 -22 -59 hhcurveto
          -43 10 41 40 -16 hvcurveto
          -10 24 -15 -3 42 34 8 45 41 37 -12 13 37 36 11 5 22 vvcurveto
          23 -33 20 2 17 vhcurveto
          10 9 20 15 27 -10 24 23 vvcurveto
          3 0 4 1 3 vhcurveto
          16 2 31 40 9 4 4 -1 3 13 22 4 22 hhcurveto
          33 34 -3 -10 11 hvcurveto
          4 -3 22 -48 2 -8 rrcurveto
          2 -11 2 -22 -22 -8 -1 -9 -8 vvcurveto
          -283 263 -87 callsubr
        </CharString>
        <CharString name="Imacron">
          -93 callgsubr
          -11 218 -75 callgsubr
        </CharString>
        <CharString name="Iogonek">
          273 18 callgsubr
          19 9 3 19 6 27 rrcurveto
          -48 callsubr
          -88 callgsubr
          9 -24 1 -25 8 -16 -8 -11 -7 -14 -8 -9 -61 callgsubr
          endchar
        </CharString>
        <CharString name="Itilde">
          -93 callgsubr
          22 351 -95 callgsubr
        </CharString>
        <CharString name="J">
          48 557 430 -77 callsubr
          endchar
        </CharString>
        <CharString name="Jcircumflex">
          48 557 430 -77 callsubr
          21 314 -106 callgsubr
        </CharString>
        <CharString name="K">
          -57 callsubr
          endchar
        </CharString>
        <CharString name="Kcommaaccent">
          -57 callsubr
          -225 -663 -97 callgsubr
        </CharString>
        <CharString name="L">
          -75 476 115 rmoveto
          -4 callsubr
          104 15 94 4 94 hvcurveto
          16 -3 17 17 -43 callsubr
          -55 12 -66 -64 -35 -1 -33 -30 -10 callgsubr
          11 callsubr
          77 callgsubr
          0 vhcurveto
          -43 callgsubr
          endchar
        </CharString>
        <CharString name="Lacute">
          -75 476 115 rmoveto
          -4 callsubr
          104 15 94 4 94 hvcurveto
          16 -3 17 17 -43 callsubr
          -55 12 -66 -64 -35 -1 -33 -30 -10 callgsubr
          11 callsubr
          77 callgsubr
          0 vhcurveto
          -43 callgsubr
          -134 706 -104 callgsubr
        </CharString>
        <CharString name="Lcaron">
          -75 476 115 rmoveto
          -4 callsubr
          104 15 94 4 94 hvcurveto
          16 -3 17 17 -43 callsubr
          -55 12 -66 -64 -35 -1 -33 -30 -10 callgsubr
          11 callsubr
          77 callgsubr
          0 vhcurveto
          -43 callgsubr
          -54 653 -97 callgsubr
        </CharString>
        <CharString name="Lcommaaccent">
          -75 476 115 rmoveto
          -4 callsubr
          104 15 94 4 94 hvcurveto
          16 -3 17 17 -43 callsubr
          -55 12 -66 -64 -35 -1 -33 -30 -10 callgsubr
          11 callsubr
          77 callgsubr
          0 vhcurveto
          -43 callgsubr
          -164 -246 -97 callgsubr
        </CharString>
        <CharString name="Ldot">
          89 476 115 rmoveto
          -4 callsubr
          104 15 94 4 94 hvcurveto
          16 -3 17 17 -43 callsubr
          -55 12 -66 -64 -35 -1 -33 -30 -10 callgsubr
          11 callsubr
          77 callgsubr
          0 vhcurveto
          -43 callgsubr
          128 256 -59 callgsubr
        </CharString>
        <CharString name="Lslash">
          -46 383 422 rmoveto
          -17 40 -5 17 -70 -28 rrcurveto
          17 vlineto
          -43 callsubr
          vvcurveto
          -38 5 -42 4 -44 vhcurveto
          -1 hlineto
          -2 -2 -83 -32 -14 -19 19 callsubr
          6 2 6 3 6 4 rrcurveto
          -15 vlineto
          -10 callgsubr
          1 vlineto
          -43 callgsubr
          -4 callsubr
          78 8 73 6 72 hvcurveto
          12 6 18 8 34 7 18 8 rlinecurve
          57 callgsubr
          endchar
        </CharString>
        <CharString name="M">
          181 708 245 rmoveto
          -1 15 -5 30 -4 11 rrcurveto
          -9 25 -16 2 50 20 2 23 20 42 -12 10 30 18 2 21 22 vvcurveto
          -1 30 -2 31 -13 14 -13 13 -24 -2 -22 7 rrcurveto
          8 -24 -4 11 -17 hhcurveto
          -52 -19 -111 -37 -17 hvcurveto
          -9 -19 -15 -14 -10 -17 rrcurveto
          -30 -17 -10 -50 -16 hhcurveto
          -6 -45 77 9 -4 hvcurveto
          -4 7 1 11 -4 7 -5 11 -12 10 -7 13 -16 29 -13 44 -18 20 -17 19 -37 -6 -38 8 rrcurveto
          2 -13 -6 8 -9 hhcurveto
          -5 -1 -29 -10 -3 -5 -5 -5 4 -18 -5 -17 rrcurveto
          -10 -34 -16 -32 -24 -36 11 -18 -27 vvcurveto
          -30 -8 -19 -2 -24 vhcurveto
          -3 -49 0 -54 -6 -39 rrcurveto
          -4 -26 -10 -9 -31 -41 -9 -37 -25 vvcurveto
          -39 51 -24 41 33 12 29 21 19 vhcurveto
          19 21 9 -5 27 vvcurveto
          28 -12 32 -1 27 vhcurveto
          -1 23 0 24 24 19 0 19 18 vvcurveto
          28 -1 26 -1 25 vhcurveto
          13 -28 17 -39 16 -25 6 -9 9 -6 7 -10 rrcurveto
          -37 25 1 -31 40 hhcurveto
          64 -1 -19 25 15 26 8 13 16 9 10 15 22 33 16 45 30 20 rrcurveto
          6 -47 2 -45 -44 -47 -2 -46 -42 -13 1 -14 -13 vvcurveto
          -32 44 -16 21 32 42 9 8 15 vhcurveto
          35 18 21 97 73 vvcurveto
          endchar
        </CharString>
        <CharString name="N">
          -89 callgsubr
          endchar
        </CharString>
        <CharString name="Nacute">
          -89 callgsubr
          -128 500 -104 callgsubr
        </CharString>
        <CharString name="Ncaron">
          33 540 251 rmoveto
          -5 1 -5 -5 -28 -7 -31 -31 -11 1 -13 -13 vvcurveto
          -33 -6 -36 -41 vhcurveto
          -23 -13 17 -27 -11 -17 -2 -16 hhcurveto
          -44 11 13 26 -11 hvcurveto
          -3 5 -8 5 -5 8 -10 17 0 10 -15 13 -15 12 -3 0 -12 19 -10 14 -8 17 -10 16 -11 16 -18 11 -8 13 -13 19 -8 32 -10 23 2 -51 -2 -53 3 -51 rrcurveto
          1 -22 5 -17 -22 vvcurveto
          -19 -9 -26 -3 -29 vhcurveto
          -44 -5 6 -18 -48 hhcurveto
          -14 -25 5 4 -7 hvcurveto
          -3 2 -4 13 -5 7 rrcurveto
          -11 13 -8 5 30 32 6 37 31 13 -7 21 20 26 1 25 25 44 -7 44 42 33 17 18 44 8 -1 9 8 vvcurveto
          42 26 21 41 37 60 -17 -15 12 vhcurveto
          6 -7 0 -16 7 -11 8 -13 15 -10 5 -8 3 -5 0 -11 6 -12 4 -9 12 -11 9 -11 8 -10 6 -13 7 -8 18 -20 21 -14 14 -18 rrcurveto
          -30 22 11 -40 10 hhcurveto
          5 1 13 17 hvcurveto
          25 -3 35 11 10 6 11 17 26 -4 30 29 41 17 30 32 32 -11 19 20 vvcurveto
          21 16 20 25 6 50 -2 -61 vhcurveto
          -13 -3 -13 -17 -62 11 -60 -46 -39 -6 -39 -26 vvcurveto
          -38 7 -43 3 -34 vhcurveto
          -150 540 -96 callgsubr
        </CharString>
        <CharString name="Ncommaaccent">
          -89 callgsubr
          -174 -318 -97 callgsubr
        </CharString>
        <CharString name="Ntilde">
          -89 callgsubr
          -130 565 -95 callgsubr
        </CharString>
        <CharString name="O">
          -105 callgsubr
          endchar
        </CharString>
        <CharString name="OE">
          278 818 128 rmoveto
          -94 callsubr
          -39 -67 -29 -41 -19 hvcurveto
          6 -34 -37 -1 -39 -86 callgsubr
          29 6 12 -2 12 5 8 -3 rcurveline
          -69 callgsubr
          -494 132 rmoveto
          3 -11 4 -7 2 -9 rrcurveto
          -14 vlineto
          -4 -18 -25 -44 -10 -5 -84 callgsubr
          endchar
        </CharString>
        <CharString name="Oacute">
          -105 callgsubr
          70 494 -104 callgsubr
        </CharString>
        <CharString name="Obreve">
          -105 callgsubr
          22 478 -91 callgsubr
        </CharString>
        <CharString name="Ocircumflex">
          -105 callgsubr
          22 467 -106 callgsubr
        </CharString>
        <CharString name="Odieresis">
          -105 callgsubr
          48 517 -90 callgsubr
        </CharString>
        <CharString name="Ograve">
          -22 507 67 callgsubr
          -2 -10 -18 -17 -11 -23 -17 -34 -3 -13 -23 -21 -22 -21 -6 9 -43 -9 -17 -4 -14 -8 -10 -1 rrcurveto
          -15 -17 8 -22 -13 -14 -1 -14 hhcurveto
          -21 -20 1 5 -21 hvcurveto
          -24 5 -14 10 -18 9 -14 6 -23 3 -6 7 -10 12 0 52 -12 35 rrcurveto
          -8 23 -10 6 32 33 7 36 26 15 -2 16 14 vvcurveto
          26 12 30 8 33 vhcurveto
          9 40 5 33 7 35 9 41 38 28 52 5 rrcurveto
          1 1 3 3 hhcurveto
          88 82 5 -76 41 hvcurveto
          5 -8 0 -11 5 -9 8 -16 15 -11 7 -13 7 -15 3 -18 9 -16 rrcurveto
          21 -38 29 -32 -30 -9 -1 -9 -10 vvcurveto
          -12 6 -12 1 -12 vhcurveto
          -19 -5 -20 -21 -16 11 -26 -17 vvcurveto
          -173 91 37 callsubr
          7 -4 15 vhcurveto
          -2 12 0 13 -4 13 -4 13 -8 14 -1 58 callsubr
          1 6 7 vvcurveto
          53 -35 66 -34 -12 -21 -3 1 vhcurveto
          -5 -4 -1 -7 -9 -7 1 -9 -10 vvcurveto
          -15 -6 -28 -4 -29 vhcurveto
          -4 -23 0 -28 -3 -14 -1 -6 -16 -18 -1 -7 rrcurveto
          -2 -8 -1 -8 -8 vvcurveto
          -74 27 -14 76 13 11 1 3 6 vhcurveto
          11 6 28 52 1 13 rrcurveto
          -291 494 -87 callsubr
        </CharString>
        <CharString name="Ohungarumlaut">
          -105 callgsubr
          -13 529 -67 callgsubr
        </CharString>
        <CharString name="Omacron">
          -105 callgsubr
          31 439 -75 callgsubr
        </CharString>
        <CharString name="Oslash">
          -66 callsubr
          endchar
        </CharString>
        <CharString name="Oslashacute">
          -66 callsubr
          88 496 -104 callgsubr
        </CharString>
        <CharString name="Otilde">
          -105 callgsubr
          22 579 -95 callgsubr
        </CharString>
        <CharString name="P">
          -52 497 403 rmoveto
          36 callgsubr
          52 callgsubr
          4 vvcurveto
          18 -16 12 -17 20 vhcurveto
          -33 37 -37 42 -50 11 rrcurveto
          11 -48 -72 7 -62 hhcurveto
          -24 -22 -1 -2 -19 hvcurveto
          -12 -1 -31 -3 -10 -11 -6 -8 4 -8 -4 -15 76 callsubr
          -7 -10 25 callgsubr
          -31 11 -35 -35 vvcurveto
          -8 -1 70 callsubr
          vhcurveto
          -1 -13 -20 -29 -16 -17 6 -30 -31 -13 -4 -14 -12 31 callsubr
          17 -2 8 6 rrcurveto
          19 16 2 24 14 55 -24 72 59 20 callsubr
          -169 15 4 callsubr
          -6 0 -8 -6 -17 7 -12 -6 vvcurveto
          endchar
        </CharString>
        <CharString name="Q">
          -9 511 469 rmoveto
          2 20 2 29 25 vvcurveto
          21 -2 19 -5 9 vhcurveto
          -4 7 -16 6 -11 12 -13 15 -7 22 -11 9 rrcurveto
          9 -10 -34 16 -17 -3 -3 -3 -1 hhcurveto
          -24 -1 -6 -5 -16 -3 -12 -3 -14 2 -8 -2 -16 -7 -20 -15 -23 -9 -24 -9 -28 -4 -15 -9 -5 -3 -1 -6 -7 -6 -4 -4 -11 -2 -3 -4 -8 -8 0 -16 -11 -10 rrcurveto
          -15 -13 -21 -3 -7 -11 -18 -31 7 -65 -11 -46 -2 -9 -5 -8 -2 -8 -6 -33 -1 -40 -5 -35 rrcurveto
          -6 -37 -16 -34 -28 vvcurveto
          -20 9 -20 6 -13 vhcurveto
          18 -38 10 -33 31 -12 rrcurveto
          30 -12 69 11 -35 -23 -15 -36 -15 vvcurveto
          -66 45 -42 46 vhcurveto
          14 16 2 21 25 23 -9 14 hhcurveto
          8 61 16 5 8 hvcurveto
          15 10 6 28 29 vvcurveto
          50 -16 37 -28 -16 -40 -12 -6 -20 vhcurveto
          -2 -8 -30 -17 -25 hhcurveto
          -30 4 33 23 -7 hvcurveto
          7 15 86 9 18 7 6 2 3 7 7 3 8 4 10 0 3 3 16 10 8 14 10 13 rrcurveto
          24 31 30 37 72 13 -2 43 callsubr
          15 6 10 1 17 vhcurveto
          2 51 6 61 4 58 rrcurveto
          -157 -164 rmoveto
          -1 0 -2 -1 -10 -3 -14 -12 -17 3 -18 -15 vvcurveto
          -26 -12 -4 -10 -19 vhcurveto
          -12 -22 -2 -20 -8 -7 rrcurveto
          -10 -10 -53 -21 -25 hhcurveto
          -13 -11 9 9 -11 hvcurveto
          -17 13 -14 -1 31 vvcurveto
          49 10 54 2 12 vhcurveto
          2 9 12 25 2 9 rrcurveto
          108 21 -33 144 106 hhcurveto
          28 -8 -74 -30 45 callgsubr
          -24 25 -10 -45 vvcurveto
          -32 13 -15 2 -22 vhcurveto
          endchar
        </CharString>
        <CharString name="R">
          -82 callsubr
          endchar
        </CharString>
        <CharString name="Racute">
          -82 callsubr
          -11 304 -104 callgsubr
        </CharString>
        <CharString name="Rcaron">
          19 543 419 rmoveto
          -6 -14 -15 -24 -9 -8 rrcurveto
          -20 -16 -52 -2 -18 vvcurveto
          -18 21 -40 4 -8 vhcurveto
          8 -18 16 -24 7 -20 6 -16 1 -21 5 -18 rrcurveto
          4 -19 9 -16 -16 vvcurveto
          -29 -41 -38 -24 -12 vhcurveto
          -6 -13 -43 -17 -33 hhcurveto
          -56 -3 103 81 -19 hvcurveto
          -5 20 -7 21 -9 27 rrcurveto
          36 -12 1 29 -24 hhcurveto
          -57 19 -11 -64 -8 hvcurveto
          -4 -31 -6 -37 -38 -22 7 -20 -15 vvcurveto
          -43 -35 -18 -38 -47 -34 1 56 vhcurveto
          77 29 58 70 21 -2 22 23 45 7 34 64 vvcurveto
          36 -1 10 -18 16 vhcurveto
          -8 7 -12 -2 24 vvcurveto
          19 15 27 27 12 vhcurveto
          12 5 19 -3 15 4 16 3 15 7 9 2 rrcurveto
          2 17 17 1 18 13 13 -1 12 72 67 16 46 hhcurveto
          28 2 0 -30 32 hvcurveto
          21 -20 7 -2 12 -31 5 -13 -3 -20 4 -19 rrcurveto
          6 -34 9 -22 -23 vvcurveto
          -13 -2 -13 -7 -16 vhcurveto
          -92 53 rmoveto
          -1 7 -15 4 -9 14 -10 14 1 13 -6 6 rrcurveto
          11 -11 -24 6 -21 hhcurveto
          -25 -43 -4 -6 -40 hvcurveto
          -20 -3 -56 -7 -14 vvcurveto
          -10 4 -14 1 -8 vhcurveto
          2 -23 -1 -21 5 -15 rrcurveto
          3 12 11 1 10 13 12 -1 16 hhcurveto
          33 49 9 1 39 hvcurveto
          9 9 -1 8 hhcurveto
          19 29 13 23 hvcurveto
          0 34 callsubr
          vvcurveto
          -47 375 -96 callgsubr
        </CharString>
        <CharString name="Rcommaaccent">
          -82 callsubr
          -129 -551 -97 callgsubr
        </CharString>
        <CharString name="S">
          -85 callsubr
          endchar
        </CharString>
        <CharString name="Sacute">
          -85 callsubr
          -98 608 -104 callgsubr
        </CharString>
        <CharString name="Scaron">
          15 543 219 rmoveto
          -1 -18 -8 -16 -16 -8 2 -13 -14 vvcurveto
          -49 -51 -27 -44 -34 vhcurveto
          -25 -32 -1 -27 -74 -40 -47 15 -32 -14 -12 -4 -12 hhcurveto
          -11 -46 17 27 -19 hvcurveto
          -9 12 1 15 -7 13 -9 16 -17 13 -11 21 -10 19 -6 29 -9 26 rrcurveto
          -12 34 -14 28 19 vvcurveto
          43 25 62 28 vhcurveto
          7 8 -4 8 hhcurveto
          1 11 7 8 8 hhcurveto
          17 51 -14 -7 14 hvcurveto
          21 -11 29 -45 -26 -7 -1 49 callsubr
          -13 6 -13 3 -16 vhcurveto
          6 -37 -5 -27 18 -22 rrcurveto
          -17 13 26 -11 23 hhcurveto
          28 4 21 10 17 hvcurveto
          26 15 23 -3 45 vvcurveto
          18 -10 21 -2 21 vhcurveto
          -4 36 5 12 -19 30 rrcurveto
          6 -5 -34 44 -24 -5 -5 -1 -5 hhcurveto
          -41 -47 42 23 -47 hvcurveto
          -40 20 -65 10 42 vvcurveto
          13 14 86 19 23 vhcurveto
          22 18 43 21 6 6 5 -1 6 hhcurveto
          25 7 14 6 17 hvcurveto
          11 4 17 -1 16 3 37 8 82 16 25 -1 rrcurveto
          6 9 -2 -11 4 hvcurveto
          8 -6 13 -1 7 -6 10 -8 11 -16 10 -10 rrcurveto
          20 -20 9 -7 -21 vvcurveto
          -41 -16 -41 -54 -16 -21 4 6 -15 vhcurveto
          -16 6 -14 19 -19 6 rrcurveto
          7 -20 -46 5 -21 hhcurveto
          -27 -28 -6 -27 -16 12 -5 22 -14 hvcurveto
          20 -13 17 -19 21 -8 12 -4 15 0 10 -2 77 -18 58 -54 35 -55 rrcurveto
          17 -27 2 -12 -35 -20 6 -20 -15 vvcurveto
          -138 682 -96 callgsubr
        </CharString>
        <CharString name="Scedilla">
          15 406 -20 callgsubr
          15 8 9 9 8 hvcurveto
          -2 14 15 -2 14 -5 callgsubr
          -90 callsubr
          hhcurveto
          5 5 0 -1 6 hvcurveto
          -4 -6 -6 79 callgsubr
          -46 callsubr
        </CharString>
        <CharString name="Scircumflex">
          -85 callsubr
          -141 577 -106 callgsubr
        </CharString>
        <CharString name="T">
          -39 callgsubr
          endchar
        </CharString>
        <CharString name="Tbar">
          -3 382 250 rmoveto
          44 -3 0 17 -71 hhcurveto
          -9 -8 -4 -2 -9 hvcurveto
          24 vlineto
          0 callsubr
          -30 callsubr
          hhcurveto
          21 hlineto
          40 callsubr
          vvcurveto
          -24 vlineto
          -7 vlineto
          -14 -66 2 -11 -15 36 callsubr
          8 8 1 2 10 vhcurveto
          -3 -18 -2 -16 -13 -6 callgsubr
          vvcurveto
          22 -5 30 -2 28 vhcurveto
          1 6 72 callsubr
          56 callsubr
        </CharString>
        <CharString name="Tcaron">
          -3 550 558 rmoveto
          1 -10 1 27 callsubr
          -70 -25 -17 -58 vhcurveto
          -26 -12 10 -41 -21 -23 -1 -16 hhcurveto
          -27 -28 0 -20 hvcurveto
          -38 7 -33 -27 -31 -2 -29 -33 -33 7 -38 -27 -26 -6 -11 -9 -10 6 -14 -4 vvcurveto
          -57 -3 -13 -24 -73 hhcurveto
          -19 -35 7 15 -8 hvcurveto
          -7 13 6 62 callsubr
          rrcurveto
          -11 31 -28 4 26 46 29 93 45 7 0 8 9 25 10 29 21 vvcurveto
          23 -14 5 -22 vhcurveto
          -7 -7 0 -7 hhcurveto
          -13 -13 1 7 -10 hvcurveto
          -5 5 -26 57 5 vvcurveto
          11 8 8 4 13 vhcurveto
          50 15 -16 24 79 16 13 -12 15 43 -39 59 84 hhcurveto
          41 -4 -16 -39 28 -13 rrcurveto
          -2 4 45 -4 10 13 13 3 13 25 15 -18 37 21 18 3 15 hhcurveto
          23 15 -7 -34 5 hvcurveto
          -211 301 -96 callgsubr
        </CharString>
        <CharString name="Tcommaaccent">
          -39 callgsubr
          -277 -670 -97 callgsubr
        </CharString>
        <CharString name="Thorn">
          -46 211 21 callsubr
          vvcurveto
          -14 -46 -35 32 -23 -25 rrcurveto
          -2 -3 -13 -48 25 callgsubr
          -15 1 -23 -26 -54 -11 -43 -33 31 callsubr
          10 -2 8 6 rrcurveto
          17 14 4 21 14 15 -17 52 19 20 callsubr
          36 callgsubr
          vvcurveto
          11 vlineto
          22 -85 103 -68 15 vhcurveto
          -46 10 -61 -14 52 73 callsubr
          122 -410 4 callsubr
          -20 vlineto
          -17 7 -12 -6 vvcurveto
          endchar
        </CharString>
        <CharString name="U">
          -104 callsubr
          endchar
        </CharString>
        <CharString name="Uacute">
          -58 -106 callsubr
          -32 421 -104 callgsubr
        </CharString>
        <CharString name="Ubreve">
          -104 callsubr
          -83 425 -91 callgsubr
        </CharString>
        <CharString name="Ucircumflex">
          -104 callsubr
          -68 427 -106 callgsubr
        </CharString>
        <CharString name="Udieresis">
          -104 callsubr
          -48 509 -90 callgsubr
        </CharString>
        <CharString name="Ugrave">
          -60 467 299 rmoveto
          -2 0 -2 -2 -18 -3 -23 -18 -11 1 27 callsubr
          -27 -15 -16 -8 -28 vhcurveto
          -7 -23 -1 -28 -7 -14 rrcurveto
          -42 -21 -69 -30 -9 -14 -14 4 -15 -27 -29 -7 -28 hhcurveto
          -35 -12 9 45 -64 hvcurveto
          -32 22 -12 4 -12 69 rrcurveto
          3 -1 3 3 10 2 10 11 vvcurveto
          22 -15 16 -1 18 vhcurveto
          5 6 12 10 6 0 6 5 17 13 10 18 21 -7 21 21 vvcurveto
          18 12 20 7 26 vhcurveto
          5 19 2 23 5 20 7 28 9 25 9 33 rrcurveto
          3 13 6 12 9 7 -2 7 6 vvcurveto
          10 11 12 19 36 33 -30 -24 -21 -10 -34 -3 -16 vhcurveto
          -14 -76 -15 -83 1 -85 rrcurveto
          -21 1 -22 2 -22 vhcurveto
          2 -21 -3 -34 7 -13 rrcurveto
          -9 5 43 -17 32 hhcurveto
          47 -9 40 42 2 hvcurveto
          1 25 7 24 -1 19 -1 24 -10 31 -2 31 rrcurveto
          11 3 12 10 17 -5 34 32 vvcurveto
          41 7 28 29 10 12 -2 -1 12 vhcurveto
          11 15 3 14 hhcurveto
          17 32 -17 -41 10 hvcurveto
          4 -18 -1 -22 3 -19 rrcurveto
          4 -22 6 -23 -19 -12 -1 -12 -12 vvcurveto
          -21 9 -12 1 -18 vhcurveto
          -393 454 -87 callsubr
        </CharString>
        <CharString name="Uhungarumlaut">
          -104 callsubr
          -139 504 -67 callgsubr
        </CharString>
        <CharString name="Umacron">
          -104 callsubr
          -77 390 -75 callgsubr
        </CharString>
        <CharString name="Uogonek">
          -60 419 -11 callgsubr
          6 10 11 4 5 7 rrcurveto
          -1 3 4 0 4 -54 callgsubr
          vvcurveto
          6 vlineto
          -100 callgsubr
          vvcurveto
          -17 vlineto
          -60 callgsubr
          hhcurveto
          12 12 1 2 13 hvcurveto
          -6 -9 -5 -9 -6 -7 -61 callgsubr
          endchar
        </CharString>
        <CharString name="Uring">
          -104 callsubr
          -104 507 -73 callsubr
        </CharString>
        <CharString name="Utilde">
          -104 callsubr
          -48 531 -95 callgsubr
        </CharString>
        <CharString name="V">
          -15 526 586 rmoveto
          -3 16 -33 35 -23 2 rrcurveto
          -36 -17 -62 -40 -12 hvcurveto
          -8 -27 4 -27 -8 -20 -6 -16 -16 -10 -6 -12 -5 -10 3 -14 -4 -13 -3 -8 -6 -7 -3 -9 -22 -58 -17 -102 -11 -1 rrcurveto
          -4 64 -32 65 65 10 0 10 9 vvcurveto
          36 -8 14 -5 33 vhcurveto
          -11 64 2 92 -34 20 rrcurveto
          5 -9 -16 1 -17 hhcurveto
          -79 10 -25 -9 -22 hvcurveto
          -15 -6 -29 2 -9 -5 rrcurveto
          -17 -11 -6 -23 -25 vvcurveto
          -30 8 -34 6 -19 vhcurveto
          7 -22 6 -36 6 -7 rrcurveto
          17 -24 32 7 -30 -13 -6 -11 -12 -43 58 -95 -40 -4 -1 -5 -4 vvcurveto
          -10 16 -16 7 -24 vhcurveto
          6 -23 3 -8 7 -16 3 -9 0 -12 3 -6 rrcurveto
          -59 25 24 -5 93 hhcurveto
          11 8 0 2 5 hvcurveto
          13 3 41 39 5 13 rrcurveto
          1 5 16 callgsubr
          4 0 4 4 30 30 46 39 50 callgsubr
          6 vvcurveto
          -1 26 21 31 8 27 4 17 1 19 4 17 rrcurveto
          6 23 13 16 13 14 -4 16 15 vvcurveto
          36 14 19 8 21 vhcurveto
          3 8 0 10 3 10 rrcurveto
          7 20 12 17 12 28 callsubr
          vvcurveto
          endchar
        </CharString>
        <CharString name="W">
          -95 callsubr
          endchar
        </CharString>
        <CharString name="Wacute">
          -95 callsubr
          -148 176 -104 callgsubr
        </CharString>
        <CharString name="Wcircumflex">
          -95 callsubr
          -198 161 -106 callgsubr
        </CharString>
        <CharString name="Wdieresis">
          -95 callsubr
          -175 258 -90 callgsubr
        </CharString>
        <CharString name="Wgrave">
          169 682 574 rmoveto
          -14 -6 -15 -13 -18 3 -17 -16 -36 -15 -33 -34 -12 3 -12 -11 -23 -10 -17 -27 -25 1 -23 -26 -11 -1 -12 -13 -12 -9 -17 -17 vvcurveto
          -22 -1 -51 -11 -11 vhcurveto
          -8 -8 -20 -2 -20 -18 -18 1 -12 -9 -11 -6 -5 hhcurveto
          -12 2 -42 25 -7 10 -13 15 5 30 -26 26 -3 3 -8 0 -2 3 -3 5 1 8 -4 6 rrcurveto
          5 -3 -25 32 -3 hhcurveto
          -15 -1 -19 -65 -9 -15 -3 -5 -11 -7 -1 -3 -13 -23 -6 -27 -15 -24 -21 -34 -1 6 -43 -3 rrcurveto
          -1 -14 -16 -5 -10 hhcurveto
          -12 -10 7 2 -12 hvcurveto
          -44 9 -30 -2 55 6 0 6 7 32 -19 42 15 7 30 callsubr
          -15 24 27 7 3 9 7 vvcurveto
          -1 22 -12 26 28 10 1 11 9 27 -19 42 38 vvcurveto
          22 7 33 5 7 vhcurveto
          5 4 35 3 16 5 23 7 19 8 21 1 rrcurveto
          10 11 -1 10 19 17 9 14 hhcurveto
          24 4 -35 -38 hvcurveto
          -28 -2 -30 -21 -15 6 -16 -15 vvcurveto
          -15 -5 -19 -1 -14 vhcurveto
          -2 -20 -1 -22 -3 -14 -3 -9 -9 -9 -1 -10 rrcurveto
          -8 5 -11 1 -12 vhcurveto
          3 -25 -2 -27 3 -22 20 37 11 52 18 47 16 42 28 52 12 36 rrcurveto
          31 10 -9 26 45 hhcurveto
          65 -14 -32 -41 14 hvcurveto
          8 -24 19 -24 13 -26 13 -26 11 -28 10 -26 rrcurveto
          1 9 1 8 9 39 -12 38 35 9 74 callgsubr
          41 -31 23 31 13 4 23 24 28 -8 24 17 vvcurveto
          3 0 2 1 3 vhcurveto
          8 49 21 -15 32 6 rrcurveto
          2 14 30 8 26 hhcurveto
          55 8 -54 -66 hvcurveto
          -7 70 callgsubr
          -489 153 -87 callsubr
        </CharString>
        <CharString name="X">
          2 531 561 rmoveto
          24 -2 -28 32 -27 hhcurveto
          -20 -22 -33 -23 -18 hvcurveto
          -18 -22 -18 -24 -17 -15 -8 -8 -15 -3 -4 -5 rrcurveto
          -15 -14 -6 -34 -19 hhcurveto
          -11 -4 23 11 -11 hvcurveto
          -10 9 -14 4 -10 8 -24 20 -8 22 -18 23 -12 14 -23 19 -11 14 rrcurveto
          14 -11 -13 8 -15 hhcurveto
          -12 -63 -22 -41 -7 10 -14 5 -13 hvcurveto
          26 -64 24 -35 43 -61 rrcurveto
          15 -22 28 -25 -12 vvcurveto
          1 0 1 -1 3 -42 -56 -17 -9 vhcurveto
          -6 -10 -3 -11 -4 -7 -9 -15 -14 -4 -14 -15 rrcurveto
          -1 -1 -65 -72 -7 -4 2 -4 -6 -18 -13 -7 -9 vvcurveto
          -9 24 -31 7 -5 vhcurveto
          -7 10 22 -10 20 hhcurveto
          47 1 14 62 23 41 10 19 22 19 14 21 rrcurveto
          7 5 23 54 15 hhcurveto
          8 -2 1 -27 4 -11 rrcurveto
          3 -9 10 0 -19 vvcurveto
          1 -21 17 1 15 -26 29 -52 -9 -36 51 -17 rrcurveto
          -3 9 22 -2 20 hhcurveto
          56 -6 18 27 19 hvcurveto
          11 16 11 -3 23 vvcurveto
          13 -8 38 -4 12 vhcurveto
          -6 16 -15 11 -4 13 -5 15 5 30 -6 23 -8 28 -28 23 -20 17 rrcurveto
          -15 13 -43 23 16 vvcurveto
          11 27 17 10 13 vhcurveto
          24 31 20 33 27 28 rrcurveto
          28 29 24 -8 47 28 callsubr
          vvcurveto
          endchar
        </CharString>
        <CharString name="Y">
          -94 callgsubr
          endchar
        </CharString>
        <CharString name="Yacute">
          -94 callgsubr
          -56 123 -104 callgsubr
        </CharString>
        <CharString name="Ycircumflex">
          -94 callgsubr
          -78 131 -106 callgsubr
        </CharString>
        <CharString name="Ydieresis">
          -94 callgsubr
          -81 202 -90 callgsubr
        </CharString>
        <CharString name="Ygrave">
          42 585 592 rmoveto
          2 -14 1 -15 -15 vvcurveto
          -25 -4 -26 -11 -25 vhcurveto
          -10 -22 -23 -17 -7 -20 -10 -25 3 -28 -6 -24 -12 -46 -5 -5 -16 -23 -14 -21 -1 -10 -7 -34 rrcurveto
          -2 -8 -8 -2 -12 -4 1 -5 -4 vvcurveto
          -14 -23 -22 -8 -16 vhcurveto
          -8 -15 -2 -13 -9 -15 rrcurveto
          -38 -23 -51 -68 -39 -7 61 callgsubr
          -34 -10 -12 -17 hhcurveto
          -16 -5 8 7 -16 hvcurveto
          -61 26 -32 -29 -50 81 rrcurveto
          -22 35 -23 14 36 vvcurveto
          29 2 20 16 8 vhcurveto
          42 20 24 110 32 1 rrcurveto
          15 29 -27 -12 6 hvcurveto
          4 -8 -3 -23 5 -21 2 -9 8 -7 2 -9 3 -10 -3 -12 4 -9 rrcurveto
          -31 10 27 -24 38 hhcurveto
          13 14 3 6 15 hvcurveto
          14 6 38 36 20 vvcurveto
          25 -57 -3 -7 5 vhcurveto
          -11 7 -4 26 -10 14 -5 6 -11 3 -9 9 -9 9 -4 14 -9 8 -10 10 -19 4 -11 11 -4 4 0 12 -5 5 -5 6 -11 0 -2 4 -2 1 -1 10 -4 7 rrcurveto
          -3 6 -7 4 6 3 1 3 3 14 -16 10 10 12 7 13 18 24 -10 27 23 20 17 8 26 12 -3 13 10 vvcurveto
          14 7 20 32 52 -9 -72 -20 13 vhcurveto
          9 -15 29 -2 17 -14 10 -8 6 -19 9 -19 7 -16 13 -17 5 -13 5 -14 -2 -16 6 -14 rrcurveto
          -25 11 55 -49 8 hhcurveto
          18 6 -2 73 9 29 9 33 11 -5 14 28 3 7 -1 13 4 11 3 9 7 7 2 9 rrcurveto
          41 12 -6 42 36 hhcurveto
          14 17 -4 -5 8 hvcurveto
          -1 27 -43 -6 vvcurveto
          -391 158 -87 callsubr
        </CharString>
        <CharString name="Z">
          -78 callsubr
          endchar
        </CharString>
        <CharString name="Zacute">
          -78 callsubr
          -131 691 -104 callgsubr
        </CharString>
        <CharString name="Zcaron">
          11 570 46 rmoveto
          -30 -5 -6 -35 -44 -18 -17 12 -29 -19 -17 -6 -21 -24 -28 6 -30 -45 -46 -4 -39 hhcurveto
          -25 -10 6 4 -22 hvcurveto
          -33 6 -37 2 -13 11 -17 14 2 28 -4 35 rrcurveto
          -2 15 -5 12 13 vvcurveto
          -2 4 33 12 12 vhcurveto
          15 15 31 -1 16 14 11 10 0 16 8 11 3 5 13 10 5 7 54 67 69 65 44 93 -42 -10 -33 -5 -36 -12 -27 -10 -24 -18 -39 -6 rrcurveto
          -2 -9 -7 -7 -11 hhcurveto
          -27 -15 46 43 20 4 18 7 8 hvcurveto
          4 5 15 2 12 9 11 8 4 13 6 3 5 3 17 1 9 3 rrcurveto
          3 14 11 6 5 10 12 -6 10 19 18 9 19 12 12 -1 12 hhcurveto
          32 26 12 4 26 hvcurveto
          26 4 17 -5 22 11 rrcurveto
          1 1 0 1 hhcurveto
          36 38 -35 -33 hvcurveto
          -3 0 -4 -2 -14 27 -1 -30 vvcurveto
          -31 -30 -19 -19 -26 vhcurveto
          -18 -25 -5 -28 -23 -37 -12 -19 -17 -14 -11 -16 -26 -39 -14 -29 -25 -46 rrcurveto
          -12 -22 -16 -33 -6 vvcurveto
          -11 112 -13 18 -2 vhcurveto
          2 54 callsubr
          6 6 0 5 15 12 -6 8 17 14 5 13 hhcurveto
          22 13 -18 -26 hvcurveto
          -3 -1 -4 -3 vvcurveto
          -170 757 -96 callgsubr
        </CharString>
        <CharString name="Zdotaccent">
          -78 callsubr
          -215 668 -54 callsubr
        </CharString>
        <CharString name="a">
          -107 callgsubr
          endchar
        </CharString>
        <CharString name="aacute">
          -107 callgsubr
          30 486 -104 callgsubr
        </CharString>
        <CharString name="abreve">
          -107 callgsubr
          -5 470 -91 callgsubr
        </CharString>
        <CharString name="acircumflex">
          -107 callgsubr
          25 449 -106 callgsubr
        </CharString>
        <CharString name="acute">
          -345 200 690 -104 callgsubr
        </CharString>
        <CharString name="adieresis">
          -107 callgsubr
          40 503 -90 callgsubr
        </CharString>
        <CharString name="ae">
          -74 callgsubr
          endchar
        </CharString>
        <CharString name="aeacute">
          -74 callgsubr
          -32 296 -104 callgsubr
        </CharString>
        <CharString name="agrave">
          -31 492 305 rmoveto
          1 -15 1 -15 -16 vvcurveto
          -46 -5 -49 -6 -44 vhcurveto
          -2 -14 -4 -16 -11 -24 7 -23 -19 vvcurveto
          -8 -20 -54 -51 -29 -8 19 26 18 4 22 4 22 vhcurveto
          -15 -3 -15 -11 -13 -8 rrcurveto
          -34 -57 -53 -46 -101 hhcurveto
          -3 -36 -3 12 -19 hvcurveto
          -29 28 -26 65 6 vvcurveto
          -1 3 0 3 3 27 10 36 6 16 -4 15 18 vvcurveto
          8 1 10 3 10 vhcurveto
          1 15 36 4 3 vhcurveto
          9 8 24 1 19 9 15 7 12 14 10 4 6 3 13 1 12 5 17 6 35 14 25 2 rrcurveto
          6 9 -3 12 9 13 6 18 18 19 -4 9 hhcurveto
          7 16 callgsubr
          20 -19 36 -3 5 hvcurveto
          12 -10 -13 7 -10 -10 -10 -4 -12 -9 -10 2 -9 hhcurveto
          -44 -79 -53 -7 -31 hvcurveto
          -2 -8 -10 -2 -8 hhcurveto
          -11 -31 24 21 31 38 6 24 14 hvcurveto
          15 9 23 14 14 11 15 12 4 11 9 5 9 5 23 5 17 5 rrcurveto
          4 10 31 59 callsubr
          77 callgsubr
          hhcurveto
          25 -9 40 1 31 -8 75 callsubr
          -6 5 -2 48 -14 13 -7 26 -102 2 -12 10 -9 3 -10 5 -16 3 -26 1 -20 rrcurveto
          -117 -130 rmoveto
          3 3 1 13 14 vvcurveto
          34 -2 7 -11 -7 -6 -3 0 vhcurveto
          1 -10 -9 0 -9 hhcurveto
          -36 -24 -9 -7 -32 hvcurveto
          -47 -11 -33 9 -53 vvcurveto
          -27 15 -8 27 17 28 13 6 27 vhcurveto
          19 4 29 5 14 3 10 2 33 1 3 3 rrcurveto
          -289 483 -87 callsubr
        </CharString>
        <CharString name="amacron">
          -107 callgsubr
          -20 435 -75 callgsubr
        </CharString>
        <CharString name="ampersand">
          48 592 212 rmoveto
          0 34 callsubr
          17 -19 32 2 6 2 5 4 vvcurveto
          -1 -22 28 -16 -33 -1 -16 -15 -19 vhcurveto
          -14 -18 -31 -18 -21 hhcurveto
          -13 -10 29 6 -12 hvcurveto
          -3 5 0 7 -3 4 rrcurveto
          -10 15 -27 22 11 vvcurveto
          4 31 37 12 10 vhcurveto
          10 8 18 4 13 12 9 9 9 19 12 13 rrcurveto
          15 15 19 10 17 19 -19 22 23 5 2 5 4 vvcurveto
          23 -44 15 -19 5 vhcurveto
          13 -48 -51 31 -2 -3 -2 0 -3 hhcurveto
          0 69 callgsubr
          -12 -22 0 -7 -12 vhcurveto
          -4 -1 -2 -8 -7 -6 -19 -19 -40 -12 -9 -19 -4 -5 -1 -15 -7 -10 rrcurveto
          -14 -20 -10 3 -27 vvcurveto
          -20 7 -21 5 -20 vhcurveto
          10 -42 61 -40 -31 vvcurveto
          -11 -30 -2 -11 -7 vhcurveto
          -11 -7 -9 -9 -10 -6 rrcurveto
          -41 -22 -66 -32 -6 -2 1 -2 -2 vvcurveto
          -9 -2 2 -10 -10 vhcurveto
          -15 -16 -5 -19 -21 vvcurveto
          -26 8 -29 6 -25 vhcurveto
          9 -40 0 -43 25 -19 rrcurveto
          -9 12 51 -6 19 29 17 16 31 6 6 -1 6 hhcurveto
          22 -1 20 16 22 7 37 11 43 15 22 17 rrcurveto
          7 9 15 21 11 hhcurveto
          10 1 -21 -10 9 hvcurveto
          3 -4 10 -2 6 -7 6 -5 1 -10 5 -6 rrcurveto
          -16 13 20 -15 18 hhcurveto
          23 16 25 15 15 -17 24 -11 20 hvcurveto
          -5 8 -29 35 8 vvcurveto
          9 21 0 10 8 vhcurveto
          11 8 1 12 10 11 13 14 16 6 1 14 rrcurveto
          -203 308 78 callsubr
          -1 vvcurveto
          -15 -19 -7 -6 -9 vhcurveto
          -4 -6 -1 -12 -7 -9 -11 -15 -14 -10 -16 -12 rrcurveto
          -6 -7 -5 -10 -3 hhcurveto
          -12 -37 50 24 -4 hvcurveto
          8 6 7 1 7 vhcurveto
          8 -3 6 3 vvcurveto
          18 22 30 17 20 79 -28 -19 4 vhcurveto
          -62 -315 rmoveto
          -22 -7 -28 -13 -30 -1 rrcurveto
          -5 -7 3 -5 -16 -13 -17 -16 hhcurveto
          -12 -15 16 20 21 47 20 48 32 hvcurveto
          1 1 2 1 2 hhcurveto
          13 21 -32 -4 4 hvcurveto
          13 -14 8 -9 10 -17 rrcurveto
          endchar
        </CharString>
        <CharString name="aogonek">
          -31 551 -153 -36 callsubr
          18 12 23 12 14 hvcurveto
          36 12 14 39 7 -41 callsubr
          -55 callgsubr
          -2 hlineto
          -105 callsubr
          -6 0 15 callsubr
          vhcurveto
          -8 -12 -7 -15 -9 -10 -61 callgsubr
          -176 328 -22 callsubr
          endchar
        </CharString>
        <CharString name="aring">
          -107 callgsubr
          -22 541 -73 callsubr
        </CharString>
        <CharString name="asciicircum">
          -53 459 276 rmoveto
          1 0 2 3 vvcurveto
          1 66 -30 18 -21 74 -15 54 -13 78 -37 19 -23 11 -45 -5 -27 4 rrcurveto
          2 -17 -10 7 -9 hhcurveto
          -39 5 -26 -36 -8 hvcurveto
          -10 -44 -21 -27 -12 -34 -3 -9 0 -13 -3 -6 -10 -19 -24 -10 -12 -14 rrcurveto
          -7 -7 -49 -70 -62 vvcurveto
          -36 22 -19 41 46 15 16 35 vhcurveto
          33 callgsubr
          7 vvcurveto
          12 5 6 5 14 vhcurveto
          3 8 0 12 3 7 2 5 8 1 2 4 3 5 -2 8 2 5 14 35 11 49 16 12 5 -38 16 -49 9 -33 rrcurveto
          -49 13 7 -59 37 hhcurveto
          22 26 15 6 16 hvcurveto
          28 9 57 11 8 26 rrcurveto
          endchar
        </CharString>
        <CharString name="asciitilde">
          67 574 480 rmoveto
          51 -5 -12 26 -35 hhcurveto
          -44 -7 -13 -25 hvcurveto
          -13 1 -19 -19 -12 0 -12 -10 vvcurveto
          1 -14 3 -11 -12 vvcurveto
          -13 -13 -24 -11 -15 -28 26 8 -8 vhcurveto
          -19 16 -15 14 -12 10 rrcurveto
          29 -34 -32 48 -35 hhcurveto
          -15 -14 -8 -7 -18 hvcurveto
          -35 -13 -35 -2 -20 -13 -30 -19 5 -28 -9 -40 rrcurveto
          -15 -63 -32 -29 -72 vvcurveto
          -14 17 -36 39 vhcurveto
          49 -14 151 51 5 10 -6 8 4 0 2 1 hhcurveto
          13 7 -32 -15 12 hvcurveto
          10 -13 22 -16 17 -17 rrcurveto
          -36 34 17 -21 47 hhcurveto
          54 55 30 21 31 hvcurveto
          39 19 -6 63 4 53 rrcurveto
          2 33 11 34 41 vvcurveto
          7 0 7 -1 8 vhcurveto
          endchar
        </CharString>
        <CharString name="asterisk">
          -25 500 566 rmoveto
          2 4 0 4 4 vvcurveto
          25 -31 21 -5 16 vhcurveto
          25 -9 11 13 -34 hhcurveto
          -48 5 -25 -13 -15 hvcurveto
          -7 -7 -11 0 -7 -5 rrcurveto
          -9 -13 -7 -19 -20 hhcurveto
          4 33 -2 30 1 24 rrcurveto
          1 7 8 16 13 vvcurveto
          15 -11 6 -16 -55 -22 -26 -40 vhcurveto
          -8 12 -38 -15 vvcurveto
          9 callsubr
          -2 -2 -2 2 3 -3 vhcurveto
          37 -38 -58 59 -32 hhcurveto
          -15 -21 -26 -30 -9 hvcurveto
          -2 -7 2 -10 -3 -8 rrcurveto
          -10 -23 -12 -9 -15 vvcurveto
          -31 20 -10 26 -8 vhcurveto
          20 -6 67 -19 -14 vvcurveto
          -15 -34 -14 -3 -3 vhcurveto
          -7 -6 -4 -11 -8 -7 rrcurveto
          -14 -14 -29 -19 -19 vvcurveto
          -19 12 4 10 -10 vhcurveto
          -8 7 2 -20 17 hhcurveto
          11 46 44 14 12 hvcurveto
          3 2 23 44 16 hhcurveto
          3 15 -38 -6 3 hvcurveto
          13 -30 3 -23 12 -27 rrcurveto
          -40 17 20 -6 45 hhcurveto
          10 9 1 2 7 hvcurveto
          15 4 45 43 11 15 rrcurveto
          8 10 11 19 11 vvcurveto
          -2 35 -33 1 -18 13 -28 21 -25 47 -18 19 30 14 27 -5 33 12 13 5 57 28 1 1 rrcurveto
          endchar
        </CharString>
        <CharString name="at">
          177 703 298 rmoveto
          4 0 5 4 23 -3 22 19 11 3 8 9 vvcurveto
          43 -26 9 -20 31 vhcurveto
          -10 16 -4 27 -17 13 -26 19 -73 -3 -49 9 -8 1 -6 6 -8 2 -20 4 -21 0 -21 5 rrcurveto
          7 -28 -34 5 -32 hhcurveto
          -55 -2 -16 -17 -31 hvcurveto
          -12 -7 -18 -11 -13 -4 -8 -2 -7 2 -7 -3 -14 -7 -24 -24 -20 -9 -16 -8 -5 5 -7 -7 -11 -10 5 -15 -6 -15 rrcurveto
          -8 -19 -16 -12 -27 vvcurveto
          -12 3 -12 2 -17 vhcurveto
          2 -19 -2 -20 3 -19 7 -41 11 -46 1 -40 rrcurveto
          -9 0 -6 -5 vvcurveto
          -8 7 -39 5 -10 vhcurveto
          1 -2 10 -5 4 -5 15 -20 12 -16 14 -14 21 -22 18 -29 16 -14 rrcurveto
          -19 22 21 -3 24 11 11 1 13 21 21 -6 19 15 14 3 13 13 12 -7 12 hhcurveto
          10 2 9 7 15 hvcurveto
          17 9 16 -4 31 vvcurveto
          25 -14 31 -4 16 vhcurveto
          41 -12 4 38 -50 -22 -24 -8 -22 -13 -11 3 -9 -22 -26 -11 -27 hhcurveto
          -46 3 23 25 -19 hvcurveto
          -16 21 -18 12 12 6 3 13 7 vvcurveto
          -2 26 -14 35 23 vvcurveto
          74 callgsubr
          11 9 11 -6 9 10 vvcurveto
          30 18 36 53 25 vhcurveto
          5 3 12 -1 10 4 rrcurveto
          17 48 41 21 52 hhcurveto
          34 33 -6 -4 36 hvcurveto
          93 -11 49 -7 -103 -6 -7 -13 -23 -36 4 -19 -30 vvcurveto
          -14 -1 -16 -32 -39 11 69 48 -4 vhcurveto
          7 -6 16 11 8 0 7 5 vvcurveto
          24 -24 42 -18 vhcurveto
          -48 -4 -43 -13 hhcurveto
          -10 -18 8 2 -13 hvcurveto
          2 -16 -15 1 -15 hhcurveto
          -76 -83 -34 -65 -23 6 -43 4 -17 hvcurveto
          2 -7 15 -40 5 -6 rrcurveto
          -22 19 47 -7 19 hhcurveto
          61 46 30 21 46 hvcurveto
          -70 7 17 -28 89 hhcurveto
          25 23 2 6 9 hvcurveto
          8 5 6 16 4 4 rrcurveto
          33 30 31 -11 44 18 -2 24 11 9 6 10 7 vvcurveto
          -262 62 rmoveto
          -2 49 callgsubr
          -4 -7 2 49 callsubr
          -11 -9 -3 -12 -21 -30 10 2 -14 vhcurveto
          -9 -13 -3 -9 hhcurveto
          -7 -4 2 8 29 13 6 25 hvcurveto
          31 45 -8 15 hhcurveto
          endchar
        </CharString>
        <CharString name="atilde">
          -107 callgsubr
          15 567 -95 callgsubr
        </CharString>
        <CharString name="b">
          29 566 351 rmoveto
          -6 26 -24 22 28 vvcurveto
          52 -68 5 -14 9 vhcurveto
          13 -21 -36 28 -23 hhcurveto
          -1 -7 -12 -12 -16 -5 -5 1 -4 -11 0 -15 -28 hhcurveto
          -21 -11 -17 -15 -25 hvcurveto
          -3 -2 -7 1 -5 -2 rrcurveto
          -7 -13 7 -10 -21 hhcurveto
          -17 7 160 54 -7 hvcurveto
          38 callsubr
          2 7 0 6 4 vvcurveto
          24 -27 30 -31 -58 -72 -3 -105 vhcurveto
          -25 16 -23 -26 -6 66 callgsubr
          vvcurveto
          -27 22 -19 6 -20 vhcurveto
          5 -17 -1 -13 2 -10 rrcurveto
          5 -19 8 -20 -16 79 callgsubr
          -6 vvcurveto
          -22 11 -22 4 -20 vhcurveto
          6 -34 3 -37 -31 -15 -6 -12 -13 vvcurveto
          1 -12 9 -20 3 -21 4 -32 -3 -40 8 -17 rrcurveto
          -14 7 28 -16 26 hhcurveto
          27 17 29 14 hvcurveto
          14 -7 24 18 vvcurveto
          8 2 12 6 10 56 -20 -4 10 vhcurveto
          -18 40 13 -5 26 hhcurveto
          29 62 18 11 15 hvcurveto
          4 3 11 20 4 5 17 18 46 12 14 22 rrcurveto
          22 34 2 70 47 vvcurveto
          10 -1 10 -1 8 vhcurveto
          -186 -9 rmoveto
          -73 -46 9 -65 -16 vhcurveto
          -5 -21 -24 -10 -26 hhcurveto
          -6 -6 1 1 -6 hvcurveto
          1 75 callgsubr
          5 20 -10 18 17 vvcurveto
          26 29 2 28 16 vhcurveto
          17 37 14 17 35 hhcurveto
          35 28 -18 -38 2 hvcurveto
          endchar
        </CharString>
        <CharString name="backslash">
          -225 296 16 rmoveto
          4 5 2 7 8 39 -38 64 11 5 2 4 5 vvcurveto
          10 -11 9 -2 9 vhcurveto
          -9 20 3 14 -4 27 -3 46 -27 71 -7 47 -6 43 1 44 -10 33 -10 31 -21 21 -9 19 rrcurveto
          24 -11 8 14 -28 hhcurveto
          -20 -79 -19 -40 -3 hvcurveto
          -6 6 -8 6 -14 vhcurveto
          6 -16 3 -22 7 -11 5 -10 10 -8 3 -7 8 -15 5 -21 9 -20 24 -52 29 -66 12 -55 6 -26 -5 -22 5 -23 rrcurveto
          2 -8 17 -17 -16 -4 -1 -5 -4 vvcurveto
          -8 9 -12 4 -9 vhcurveto
          4 -11 2 -12 3 -5 7 -12 13 -7 5 -9 rrcurveto
          -24 13 -12 -17 33 hhcurveto
          17 19 6 5 4 hvcurveto
          endchar
        </CharString>
        <CharString name="bar">
          -320 197 62 37 callsubr
          13 16 12 3 12 11 17 -11 8 17 17 5 20 21 92 -20 108 99 33 10 21 24 10 -6 17 16 20 9 23 13 vvcurveto
          43 -69 52 -38 -6 -5 -1 -2 -5 vhcurveto
          35 callsubr
          -1 -9 -13 -5 -27 vhcurveto
          -62 10 -46 -42 -14 -6 -33 -12 vvcurveto
          1 -13 8 -14 1 -16 rrcurveto
          1 -14 0 -16 -15 -64 -6 -71 -53 -26 4 -23 -28 -33 -13 -17 -34 -26 4 -31 -29 -23 -2 -15 -16 vvcurveto
          -7 0 -7 2 -8 vhcurveto
          15 -65 13 10 68 -3 rrcurveto
          -1 13 16 -4 12 hhcurveto
          15 8 3 25 hvcurveto
          22 -5 33 27 15 3 16 15 vvcurveto
          endchar
        </CharString>
        <CharString name="braceleft">
          -211 344 650 rmoveto
          1 10 4 16 13 vvcurveto
          30 -51 10 -44 4 vhcurveto
          2 -19 -26 2 -21 hhcurveto
          -61 14 -14 -27 -16 hvcurveto
          -7 -12 -15 -10 -6 -9 -17 -23 -8 -40 -12 -20 rrcurveto
          -10 -17 -19 -5 -21 vvcurveto
          -27 24 -4 8 -13 vhcurveto
          5 -7 0 -12 4 -8 rrcurveto
          15 -29 12 -5 -33 vvcurveto
          -17 -3 -18 -5 -10 vhcurveto
          -15 -28 -81 -10 -26 vvcurveto
          -51 9 1 19 -9 vhcurveto
          29 -14 38 7 -36 -24 -16 -30 -30 -11 1 -12 -13 -21 -6 -27 -20 -12 6 -10 -10 -11 -3 -10 -10 vvcurveto
          -55 36 -2 41 -20 vhcurveto
          -21 43 7 -19 34 hhcurveto
          21 26 -3 52 17 -7 7 -15 7 hvcurveto
          -42 19 -57 -12 55 20 18 10 31 11 -3 15 14 vvcurveto
          -1 35 18 21 11 28 8 20 6 25 8 17 rrcurveto
          15 -2 57 -25 vhcurveto
          24 callgsubr
          -4 -4 0 2 -4 hvcurveto
          -3 1 -28 19 8 vvcurveto
          -2 20 31 11 vhcurveto
          2 3 -1 2 hhcurveto
          21 5 20 9 hvcurveto
          16 -9 21 18 6 1 6 7 29 -14 23 18 vvcurveto
          32 35 20 22 vhcurveto
          20 17 -9 16 hhcurveto
          55 -10 40 53 4 hvcurveto
          endchar
        </CharString>
        <CharString name="braceright">
          -203 337 480 rmoveto
          39 -35 58 -21 39 vhcurveto
          -7 12 0 14 -5 8 -15 23 -45 40 -20 2 rrcurveto
          -12 -6 -10 -16 -5 -5 1 -4 hhcurveto
          -18 -44 -32 -6 -20 hvcurveto
          -18 -6 -26 7 -27 vvcurveto
          -36 19 -7 31 -2 vhcurveto
          14 31 8 18 hhcurveto
          23 3 -47 -19 7 hvcurveto
          7 -22 -3 -6 5 -25 rrcurveto
          4 -19 9 -15 -12 vvcurveto
          -2 -16 -6 -4 -11 -24 -7 -14 -2 -18 -6 -14 rrcurveto
          -8 -18 -22 -19 -23 vvcurveto
          -27 55 -4 2 -17 vhcurveto
          0 35 callsubr
          -2 -16 -25 0 vhcurveto
          -13 -14 -10 6 -30 vvcurveto
          -10 0 -10 1 -3 vhcurveto
          4 -24 27 -45 -21 -3 0 -6 -4 -13 9 -15 -12 vvcurveto
          -7 4 -6 -41 -20 -1 10 4 -13 vhcurveto
          4 -16 -40 2 -5 hhcurveto
          -28 -4 11 -14 -8 -29 rrcurveto
          -5 -16 -10 -12 -11 -7 3 -5 -5 -21 -13 -1 -14 vvcurveto
          -58 97 1 37 79 -10 11 36 26 vhcurveto
          5 9 17 15 6 14 6 15 2 23 7 20 rrcurveto
          8 21 11 17 16 vvcurveto
          9 -11 9 -5 15 vhcurveto
          -9 23 0 31 -9 26 rrcurveto
          -4 10 -20 21 13 vvcurveto
          6 4 5 13 1 vhcurveto
          8 9 0 8 hhcurveto
          24 19 1 40 hvcurveto
          57 -53 -40 30 vvcurveto
          9 11 10 8 16 vhcurveto
          4 9 -1 11 4 8 3 8 9 5 3 5 rrcurveto
          7 16 21 49 4 4 -3 7 5 14 12 31 callgsubr
          endchar
        </CharString>
        <CharString name="bracketleft">
          -248 289 -95 rmoveto
          1 3 1 6 8 14 -2 18 7 13 4 27 24 vvcurveto
          43 -7 15 -51 vhcurveto
          -15 -16 -1 -14 hhcurveto
          -44 -11 0 55 hvcurveto
          82 -5 76 73 vvcurveto
          59 2 57 6 55 vhcurveto
          2 20 -3 28 7 13 rrcurveto
          22 12 56 12 24 6 8 -1 7 hhcurveto
          17 11 4 22 41 -19 29 -10 hvcurveto
          -6 -6 -2 -1 -4 -4 0 -3 -34 -5 -16 -30 -10 -10 4 -14 hhcurveto
          -8 -13 -8 -2 -13 hvcurveto
          -47 -8 -7 7 -43 -22 4 -24 -13 -19 -6 -21 -24 -46 6 -52 -53 -42 -7 -43 -40 -43 7 11 -32 -18 -3 -20 -22 -18 6 -18 -17 -33 -9 -35 -34 vvcurveto
          -86 -8 -33 93 22 11 8 3 18 vhcurveto
          46 7 54 -10 14 33 rrcurveto
          endchar
        </CharString>
        <CharString name="bracketright">
          -241 273 625 rmoveto
          55 callgsubr
          12 18 2 22 16 vvcurveto
          29 -30 24 -30 vhcurveto
          -6 -7 0 -6 -30 -11 14 -20 -16 -12 -5 -19 -13 -17 1 -15 hhcurveto
          -12 -11 0 -3 -3 hvcurveto
          -12 -10 1 -63 -12 vvcurveto
          -57 55 18 43 -8 vhcurveto
          -4 19 8 -7 16 6 72 callsubr
          hhcurveto
          6 9 -2 -6 hvcurveto
          -8 -9 -22 -8 vvcurveto
          -1 -6 0 -5 -6 -30 7 -30 -28 -21 -3 -23 -22 -28 3 -29 -26 -40 -17 -29 -31 -15 2 -15 -17 -26 -10 -11 -33 -11 1 -13 -12 vvcurveto
          -36 -39 -1 -36 vhcurveto
          -17 -7 7 -10 hhcurveto
          -20 -11 -46 1 hvcurveto
          -23 9 -42 -23 -12 -6 -19 -9 vvcurveto
          -24 53 -12 7 vhcurveto
          19 25 5 26 21 19 -6 17 hhcurveto
          6 6 1 2 5 hvcurveto
          11 3 40 46 1 6 rrcurveto
          28 callsubr
          11 -10 13 30 62 7 76 46 32 -8 33 39 77 11 87 72 26 -6 24 21 vvcurveto
          22 9 26 1 26 vhcurveto
          endchar
        </CharString>
        <CharString name="breve">
          -302 235 666 -91 callgsubr
        </CharString>
        <CharString name="brokenbar">
          -314 174 21 callsubr
          -27 -2 -31 -27 vvcurveto
          -58 17 -34 50 32 6 20 26 vhcurveto
          17 -2 18 19 vvcurveto
          10 0 11 3 10 vhcurveto
          3 14 14 7 34 73 callsubr
          31 -664 rmoveto
          11 2 12 13 vvcurveto
          22 -14 7 -6 27 vhcurveto
          -4 15 -1 16 16 17 2 17 16 vvcurveto
          51 -20 22 -42 vhcurveto
          -3 9 callsubr
          hhcurveto
          1 -36 2 -8 -9 hvcurveto
          -10 -10 -5 -79 -3 -28 rrcurveto
          -2 -16 -1 -29 -20 -21 6 -10 -21 -27 -4 -28 -22 vvcurveto
          -47 27 -10 33 15 17 2 2 14 vhcurveto
          10 9 -3 8 hhcurveto
          21 4 28 28 21 -2 21 -1 13 hvcurveto
          endchar
        </CharString>
        <CharString name="bullet">
          -264 223 371 -59 callgsubr
        </CharString>
        <CharString name="c">
          -85 callgsubr
          endchar
        </CharString>
        <CharString name="cacute">
          -85 callgsubr
          -92 288 -104 callgsubr
        </CharString>
        <CharString name="caron">
          -306 242 733 -96 callgsubr
        </CharString>
        <CharString name="ccaron">
          -46 495 348 rmoveto
          -2 -33 -47 -22 -6 -3 rrcurveto
          -14 -24 -34 -18 -32 hhcurveto
          -85 34 102 25 -35 hvcurveto
          5 -7 -17 2 -17 hhcurveto
          -23 -22 -3 -1 -1 hvcurveto
          -17 -9 -1 -51 -3 -20 rrcurveto
          -4 -27 -10 -28 -25 vvcurveto
          -14 19 -51 16 -9 vhcurveto
          12 -7 31 5 19 -4 rrcurveto
          -8 35 35 -20 33 hhcurveto
          30 18 11 20 22 hvcurveto
          11 12 6 16 20 hhcurveto
          17 5 -17 -22 -49 -14 -42 -49 -27 hvcurveto
          -8 -5 -11 3 -9 -4 rrcurveto
          -11 -23 -8 -26 -37 hhcurveto
          -17 -19 9 6 -22 hvcurveto
          -19 5 -21 -4 -13 5 -26 9 -47 40 -38 25 -32 21 -3 0 -18 38 rrcurveto
          -9 19 -7 14 12 19 4 25 25 20 -3 20 20 vvcurveto
          18 2 18 4 16 vhcurveto
          2 6 7 5 4 7 9 20 6 27 12 15 rrcurveto
          18 14 41 46 22 20 26 -7 20 41 -29 26 53 hhcurveto
          10 13 -1 -1 13 hvcurveto
          89 -8 12 25 63 -126 rrcurveto
          8 -17 10 -32 -13 vvcurveto
          -123 357 -96 callgsubr
        </CharString>
        <CharString name="ccedilla">
          -46 383 -20 callgsubr
          21 16 9 10 12 hvcurveto
          -4 13 12 -4 11 -70 callgsubr
          -63 callgsubr
          rrcurveto
          -1 3 4 -1 4 hhcurveto
          -2 0 -1 -1 -2 vhcurveto
          -9 callgsubr
        </CharString>
        <CharString name="ccircumflex">
          -85 callgsubr
          -112 255 -106 callgsubr
        </CharString>
        <CharString name="cdotaccent">
          -85 callgsubr
          -174 254 -54 callsubr
        </CharString>
        <CharString name="cedilla">
          -298 250 -20 callgsubr
          hvcurveto
          29 33 6 26 vvcurveto
          10 -16 21 -8 1 vhcurveto
          -13 -23 -16 -9 -7 hvcurveto
          -3 -5 1 -10 -3 -5 -4 -9 -9 -6 -4 -8 -33 callsubr
          4 3 0 4 hhcurveto
          -6 callsubr
          46 callsubr
          12 13 34 11 hvcurveto
          endchar
        </CharString>
        <CharString name="cent">
          -186 240 29 callsubr
          8 -1 8 -2 6 vhcurveto
          6 hlineto
          7 6 -2 6 hhcurveto
          6 12 7 6 10 hvcurveto
          9 5 11 3 6 5 rrcurveto
          21 15 8 14 14 6 -1 8 5 11 5 43 callsubr
          17 -15 3 -4 -19 -16 -26 -4 -5 vhcurveto
          -11 -13 -33 -14 -28 hhcurveto
          -30 -5 9 9 -17 hvcurveto
          -9 4 -11 2 -6 3 rrcurveto
          -18 11 -14 18 18 vvcurveto
          25 13 44 6 19 vhcurveto
          4 12 1 11 3 9 2 9 7 8 2 7 rrcurveto
          19 5 -2 18 19 7 -2 -7 15 6 4 2 3 hhcurveto
          9 8 -38 -22 hvcurveto
          -10 -1 -11 -10 vvcurveto
          -31 19 -11 12 17 20 17 6 17 vhcurveto
          10 3 12 1 7 7 rrcurveto
          14 14 6 44 12 vvcurveto
          2 vlineto
          -1 20 -15 14 -8 13 -3 6 -1 10 -3 4 -3 4 -9 4 -6 5 -8 5 -6 7 -5 3 -16 6 -17 -2 -17 1 rrcurveto
          1 5 16 callgsubr
          10 -1 11 11 vvcurveto
          3 callgsubr
          -10 1 -10 2 -7 vhcurveto
          -1 -5 35 callgsubr
          -3 -5 1 -4 hhcurveto
          -10 1 -6 -4 -8 hvcurveto
          -8 -5 -6 2 -3 -3 -3 -4 0 -13 -4 -5 rrcurveto
          -16 -16 -28 2 -22 -5 1 -5 58 callgsubr
          -7 -18 -4 -15 vhcurveto
          -10 -40 -5 -63 -27 vvcurveto
          1 -7 3 -4 -7 -5 -9 -11 -5 vvcurveto
          2 10 -22 3 -2 vhcurveto
          6 -8 13 -4 5 -4 6 -7 2 -12 6 -10 6 -6 6 -8 5 -6 4 -3 50 callgsubr
          -3 8 -7 3 -11 6 -3 3 -1 17 -1 9 -1 rrcurveto
          1 1 -1 1 hhcurveto
          -3 -17 -1 6 callgsubr
        </CharString>
        <CharString name="circumflex">
          -306 242 640 -106 callgsubr
        </CharString>
        <CharString name="colon">
          -300 206 113 rmoveto
          -78 callgsubr
          328 vmoveto
          -67 callsubr
        </CharString>
        <CharString name="comma">
          -12 callsubr
        </CharString>
        <CharString name="copyright">
          96 449 423 rmoveto
          -1 16 -13 12 -6 11 -3 5 -1 8 -2 4 -3 3 -7 3 -6 4 -6 5 -5 6 -4 2 -16 7 -17 -5 -18 4 rrcurveto
          2 -13 -2 9 -19 -5 -6 0 -5 -3 -4 0 -3 hhcurveto
          -8 1 0 -5 -6 -4 -7 -4 -5 2 -2 -3 -3 -3 0 -11 -3 -4 rrcurveto
          -13 -13 -24 1 -18 -4 1 -5 -4 vvcurveto
          -12 -6 -14 -3 -13 vhcurveto
          -9 -33 -4 -53 -22 vvcurveto
          1 -6 2 -4 -5 -5 -7 -9 -4 vvcurveto
          2 8 -18 3 -2 vhcurveto
          5 -7 11 -3 4 -4 5 -5 2 -10 5 -8 4 -5 6 -7 4 -5 3 -3 5 0 4 -3 7 -6 3 -9 4 -2 3 -2 14 0 8 -1 rrcurveto
          -2 10 16 -1 10 11 9 1 11 6 5 -2 5 hhcurveto
          5 10 6 5 8 hvcurveto
          8 5 9 2 5 4 rrcurveto
          18 13 6 11 12 5 -1 7 4 9 4 10 10 vvcurveto
          14 -12 3 -3 -16 -14 -22 -3 -4 vhcurveto
          -10 -11 -27 -11 -23 hhcurveto
          -26 -4 8 7 -14 hvcurveto
          -7 3 -10 2 -4 2 rrcurveto
          -16 10 -11 15 15 vvcurveto
          21 11 36 5 16 vhcurveto
          3 10 1 9 2 7 2 8 6 7 1 5 rrcurveto
          16 5 -2 15 16 6 -2 -6 12 5 4 2 3 hhcurveto
          7 7 -31 -19 hvcurveto
          -8 -1 -9 -8 vvcurveto
          -26 15 -9 10 15 16 13 5 14 vhcurveto
          9 3 10 1 6 6 rrcurveto
          11 12 6 36 10 1 77 callgsubr
          vvcurveto
          87 -46 -27 callsubr
          -511 -106 rmoveto
          2 -11 12 -8 7 -20 7 -14 0 -21 7 -13 14 -26 23 -17 7 -17 rrcurveto
          -44 19 -7 -60 110 38 45 4 42 48 50 -12 25 2 3 0 1 4 6 0 5 hhcurveto
          48 38 109 -1 hvcurveto
          15 -10 7 16 vvcurveto
          21 17 7 10 21 vhcurveto
          10 22 10 54 29 vvcurveto
          1 51 -18 46 -17 49 -32 97 -6 27 -62 28 rrcurveto
          24 -53 -97 19 -87 hhcurveto
          -103 -12 -24 -71 -38 hvcurveto
          -13 -24 -17 -28 -4 -23 -4 -15 3 -31 -3 -18 rrcurveto
          -8 -45 -24 -45 -42 -6 1 -4 -6 vvcurveto
          endchar
        </CharString>
        <CharString name="currency">
          -46 303 464 20 callgsubr
          161 -141 rmoveto
          -4 13 -23 28 -10 11 rrcurveto
          20 vlineto
          65 callgsubr
          2 -6 6 -3 7 vhcurveto
          -1 34 callsubr
          hvcurveto
          7 9 rlineto
          30 callgsubr
          rrcurveto
          -1 69 callgsubr
          -1 hhcurveto
          -16 -1 -24 -1 -23 -2 -8 7 -6 7 -1 1 rrcurveto
          34 callgsubr
          4 4 -2 -4 4 hvcurveto
          -7 -22 -5 -25 -8 -10 9 -17 -7 -7 -3 -8 -8 vvcurveto
          -10 -8 -10 -9 -7 -7 rrcurveto
          33 callsubr
          16 16 11 15 14 hvcurveto
          -1 4 5 0 5 73 callgsubr
          32 21 7 13 15 hvcurveto
          -5 9 9 -4 10 51 callsubr
        </CharString>
        <CharString name="d">
          21 -57 callgsubr
          endchar
        </CharString>
        <CharString name="dagger">
          -149 379 16 callsubr
          12 0 11 11 vvcurveto
          -1 callgsubr
          -3 -121 -12 -141 -9 -115 rrcurveto
          -2 callsubr
          47 -7 27 32 20 1 20 21 47 -4 39 37 14 callgsubr
        </CharString>
        <CharString name="daggerdbl">
          -143 382 16 callsubr
          34 vlineto
          -1 callgsubr
          -1 -32 -1 -34 -2 -34 -20 -1 -21 -2 -16 -2 rrcurveto
          -35 -6 -13 -3 -42 vvcurveto
          -34 5 -3 6 -20 vhcurveto
          11 -42 8 -6 64 -1 -9 -115 rcurveline
          -2 callsubr
          42 -6 26 -1 29 8 1 7 2 7 2 13 3 10 10 14 5 rrcurveto
          42 13 9 -4 34 vvcurveto
          6 0 75 callsubr
          vhcurveto
          -7 47 -55 27 -50 5 rrcurveto
          32 vlineto
          14 callgsubr
        </CharString>
        <CharString name="dcaron">
          181 -57 callgsubr
          294 400 -97 callgsubr
        </CharString>
        <CharString name="dcroat">
          21 565 611 rmoveto
          40 -2 0 15 -50 -9 -7 -6 -11 hhcurveto
          -6 hlineto
          -2 4 -2 5 4 25 callsubr
          -13 -30 vlineto
          -11 -52 4 -12 -13 hvcurveto
          -8 -8 2 -23 -2 -12 rrcurveto
          -2 -12 -6 -10 -11 vvcurveto
          -22 28 -14 28 22 24 5 4 25 vhcurveto
          3 hlineto
          -1 -30 -2 -29 -2 -21 rrcurveto
          -33 callgsubr
          17 hlineto
          -18 callsubr
          18 callsubr
          -7 38 1 42 -1 35 5 2 4 0 5 1 rrcurveto
          12 21 -6 12 hhcurveto
          15 0 20 13 hvcurveto
          -169 -266 -29 callgsubr
          endchar
        </CharString>
        <CharString name="degree">
          -267 262 625 rmoveto
          2 -4 4 -3 5 vhcurveto
          29 -14 -45 29 -42 hhcurveto
          -14 -94 -2 -16 -13 hvcurveto
          -5 -8 -14 -48 -8 -8 7 -12 -6 -5 -2 -7 -6 vvcurveto
          -12 9 -15 3 -14 vhcurveto
          -36 8 6 -37 47 15 17 2 17 15 15 -4 12 hhcurveto
          62 13 35 54 hvcurveto
          11 0 10 10 15 5 15 15 3 -1 2 3 vvcurveto
          -100 hmoveto
          2 -6 1 -12 -13 vvcurveto
          -49 -15 -16 -43 -14 -12 15 16 vhcurveto
          -2 7 -1 12 11 vvcurveto
          35 4 17 27 vhcurveto
          11 13 -2 11 3 1 0 2 44 callgsubr
          -1 -14 4 hvcurveto
          endchar
        </CharString>
        <CharString name="dieresis">
          -249 298 715 -90 callgsubr
        </CharString>
        <CharString name="divide">
          -53 474 345 -68 callgsubr
          -160 177 -69 callsubr
          -10 -367 -69 callsubr
          endchar
        </CharString>
        <CharString name="dollar">
          -172 246 29 callsubr
          6 0 5 -1 4 vhcurveto
          33 3 3 14 17 14 rrcurveto
          26 21 31 16 29 9 -1 7 5 vvcurveto
          10 4 9 1 11 vhcurveto
          9 -4 43 callsubr
          21 -1 7 -10 17 vhcurveto
          -21 33 -35 32 -46 11 -6 1 -9 0 -7 2 -13 5 -10 12 -12 7 rrcurveto
          -13 9 -7 3 9 vvcurveto
          17 16 3 17 12 28 -3 -4 12 vhcurveto
          11 -4 9 -11 9 -4 rrcurveto
          -3 9 13 -3 9 hhcurveto
          33 9 25 25 12 -5 4 -12 12 hvcurveto
          -6 6 -7 10 -6 5 -4 3 -8 1 -4 4 rrcurveto
          6 -3 -5 1 -4 hhcurveto
          -9 -21 -3 -3 -20 hvcurveto
          18 vlineto
          3 callgsubr
          -9 0 -8 2 -6 vhcurveto
          -1 44 callsubr
          hhcurveto
          -4 -10 -4 -8 -15 -4 -3 1 -3 hhcurveto
          -4 -26 -13 -13 -10 hvcurveto
          -12 -14 -8 -52 -7 vvcurveto
          -26 39 -6 24 -12 vhcurveto
          -13 28 28 -26 25 3 3 1 3 hhcurveto
          14 21 -26 -4 3 hvcurveto
          11 -18 -3 -7 2 -22 rrcurveto
          2 -12 6 -13 -11 vvcurveto
          -27 -14 2 -16 -9 vhcurveto
          -6 -10 -2 -13 -17 hhcurveto
          -14 -16 7 10 -7 hvcurveto
          -11 13 3 17 -4 22 rrcurveto
          -2 9 -3 8 8 vvcurveto
          13 vlineto
          16 -17 27 -13 6 vhcurveto
          5 -8 -31 8 -10 -5 -4 -5 -6 -5 -5 2 -4 hhcurveto
          -17 -15 -37 -26 -11 8 -17 8 -21 hvcurveto
          5 -15 4 -18 6 -11 6 -13 10 -7 6 -10 4 -8 -1 -9 6 -7 rrcurveto
          -16 11 28 -10 6 8 7 2 8 hhcurveto
          3 3 0 -1 4 hvcurveto
          -3 -17 -2 6 callgsubr
        </CharString>
        <CharString name="dotaccent">
          -419 126 656 -54 callsubr
        </CharString>
        <CharString name="dotlessi">
          -46 callgsubr
          endchar
        </CharString>
        <CharString name="dotlessj">
          -389 149 -15 -71 callsubr
          endchar
        </CharString>
        <CharString name="e">
          -99 callsubr
          endchar
        </CharString>
        <CharString name="eacute">
          -99 callsubr
          79 278 -104 callgsubr
        </CharString>
        <CharString name="ebreve">
          -99 callsubr
          51 279 -91 callgsubr
        </CharString>
        <CharString name="ecaron">
          -51 callsubr
          43 363 -96 callgsubr
        </CharString>
        <CharString name="ecircumflex">
          -99 callsubr
          69 256 -106 callgsubr
        </CharString>
        <CharString name="edieresis">
          -99 callsubr
          94 321 -90 callgsubr
        </CharString>
        <CharString name="edotaccent">
          -99 callsubr
          -2 265 -54 callsubr
        </CharString>
        <CharString name="egrave">
          -51 callsubr
          -242 283 -87 callsubr
        </CharString>
        <CharString name="eight">
          -2 510 251 rmoveto
          -8 58 -37 17 -29 33 rrcurveto
          28 23 31 -9 72 37 8 27 54 vvcurveto
          9 0 8 -2 5 vhcurveto
          29 -11 -74 21 -42 -11 -11 -1 -12 -39 -41 7 -30 hhcurveto
          -14 -49 -9 -22 -22 hvcurveto
          -18 -22 -21 -76 -57 vvcurveto
          -57 23 0 10 -23 vhcurveto
          -29 -17 -35 5 -22 -19 rrcurveto
          -26 -22 -2 -51 -72 vvcurveto
          -36 9 -20 6 -21 vhcurveto
          3 -10 0 -11 4 -10 rrcurveto
          1 -4 9 -1 -15 vvcurveto
          -15 9 8 5 -7 vhcurveto
          15 -18 -15 3 37 -10 rrcurveto
          -17 61 54 -8 60 hhcurveto
          33 46 5 8 24 hvcurveto
          9 3 13 10 12 5 20 8 20 2 10 9 rrcurveto
          24 21 18 71 64 vvcurveto
          13 0 13 -2 12 vhcurveto
          -136 269 rmoveto
          1 -9 1 -14 -15 vvcurveto
          -19 -2 -20 -6 -9 vhcurveto
          -19 -14 -77 -2 -33 hhcurveto
          -22 -16 7 33 28 8 48 6 6 hvcurveto
          9 11 48 6 14 2 rrcurveto
          1 10 10 1 10 hhcurveto
          26 22 -7 -29 5 hvcurveto
          -22 -259 rmoveto
          15 callsubr
          -6 vvcurveto
          -94 -78 23 -65 -4 vhcurveto
          -1 -11 -16 -5 -6 hhcurveto
          -34 -14 37 43 45 53 18 93 27 35 -2 -5 6 hvcurveto
          3 -3 6 -36 2 vvcurveto
          endchar
        </CharString>
        <CharString name="ellipsis">
          106 190 113 rmoveto
          -78 callgsubr
          218 hmoveto
          -78 callgsubr
          218 hmoveto
          -67 callsubr
        </CharString>
        <CharString name="emacron">
          -99 callsubr
          53 247 -75 callgsubr
        </CharString>
        <CharString name="emdash">
          102 622 345 rmoveto
          61 -3 0 22 -75 hhcurveto
          -13 -11 -8 -1 -16 hvcurveto
          -154 -109 10 -81 -48 callgsubr
          69 135 38 19 222 vhcurveto
          32 callsubr
        </CharString>
        <CharString name="endash">
          -97 423 345 -13 callsubr
          -48 -81 10 -26 hhcurveto
          -3 -1 -83 5 -18 -17 -29 callsubr
          -31 44 -22 26 17 13 -37 callsubr
          endchar
        </CharString>
        <CharString name="eng">
          -45 477 210 -25 callgsubr
          -4 -9 -8 -29 -79 callgsubr
          2 -23 -1 -33 14 -20 rrcurveto
          9 -40 28 -13 -37 vvcurveto
          -18 -8 -13 -22 -53 callsubr
          41 31 -20 46 16 44 rrcurveto
          17 47 6 43 39 26 17 49 7 13 callgsubr
          endchar
        </CharString>
        <CharString name="eogonek">
          -67 469 18 callgsubr
          rrcurveto
          7 6 -1 6 -42 callsubr
          -93 callsubr
          -9 36 40 -1 40 hhcurveto
          -7 -11 -7 -12 -7 -9 -61 callgsubr
          -191 469 10 callgsubr
        </CharString>
        <CharString name="equal">
          -10 506 463 rmoveto
          32 -4 -22 36 -20 hhcurveto
          -56 -58 -35 -5 -72 hvcurveto
          -1 -13 -14 -1 -14 3 callsubr
          4 40 36 15 32 hhcurveto
          23 callsubr
          -15 -228 -68 callgsubr
          endchar
        </CharString>
        <CharString name="eth">
          -46 467 678 rmoveto
          -17 42 -5 16 -76 -32 -12 -5 -8 -10 -13 -6 rrcurveto
          -1 0 1 0 hvcurveto
          27 callgsubr
          -37 9 -19 12 -15 vhcurveto
          -24 -11 -29 -15 -7 -10 19 callsubr
          13 5 11 9 21 12 7 -14 rcurveline
          -18 callgsubr
          43 callgsubr
          -16 40 -18 60 -20 48 rrcurveto
          0 28 callsubr
          vhcurveto
          18 8 34 7 18 8 57 callgsubr
          -138 -507 6 callsubr
        </CharString>
        <CharString name="exclam">
          -272 257 622 rmoveto
          -2 21 -19 22 -13 7 -7 3 -27 1 -21 8 rrcurveto
          7 -20 -6 10 -21 hhcurveto
          -44 4 -13 -19 -25 hvcurveto
          -13 -10 -9 0 -5 -6 rrcurveto
          -8 -10 -3 -16 -18 vvcurveto
          -45 18 -58 2 -26 vhcurveto
          -5 0 -6 -7 -9 0 -11 -9 vvcurveto
          -47 21 3 10 -20 vhcurveto
          6 -13 2 -16 -16 80 callsubr
          -16 -12 3 -10 -9 -13 -5 -12 -12 vvcurveto
          -16 9 -15 42 81 -9 31 50 6 vhcurveto
          1 14 8 14 12 6 -3 8 6 14 10 7 16 33 callgsubr
          8 vvcurveto
          15 2 23 4 12 vhcurveto
          5 15 14 9 3 19 rrcurveto
          3 19 1 23 22 38 8 31 16 1 77 callgsubr
          vvcurveto
          -25 -627 rmoveto
          3 6 2 8 8 vvcurveto
          67 -61 35 -15 -20 -7 -8 -4 -19 vhcurveto
          -29 -7 -28 0 -8 -12 rrcurveto
          -4 -6 -2 -52 -17 vvcurveto
          -9 26 -29 8 -4 vhcurveto
          -15 19 30 -12 26 hhcurveto
          6 6 0 2 6 hvcurveto
          3 1 55 42 3 6 rrcurveto
          endchar
        </CharString>
        <CharString name="exclamdown">
          -270 19 23 rmoveto
          2 -21 19 -22 13 -7 7 -3 27 -1 21 -8 rrcurveto
          -7 20 6 -10 21 hhcurveto
          44 -4 13 19 25 hvcurveto
          13 10 9 0 5 6 rrcurveto
          8 10 3 16 18 vvcurveto
          45 -18 58 -2 26 vhcurveto
          5 0 6 7 9 0 11 9 vvcurveto
          47 -21 -3 -10 20 vhcurveto
          -6 13 -2 16 16 17 2 18 16 12 -3 10 9 13 5 43 callsubr
          16 -9 15 -42 -81 9 -31 -50 -6 vhcurveto
          -1 -14 -8 -14 -12 -6 3 -8 -6 -14 -10 -7 -16 71 callgsubr
          -8 vvcurveto
          -15 -2 -23 -4 -12 vhcurveto
          -5 -15 -14 -9 -3 -19 rrcurveto
          -3 -19 -1 -23 -22 -38 -8 -31 -16 68 callsubr
          -1 vvcurveto
          25 627 rmoveto
          -3 -6 -2 -8 -8 vvcurveto
          -67 61 -35 15 20 7 8 4 19 vhcurveto
          29 7 28 0 8 12 rrcurveto
          4 6 2 52 17 vvcurveto
          9 -26 29 -8 4 vhcurveto
          15 -19 -30 12 -26 hhcurveto
          -6 -6 0 -2 -6 hvcurveto
          -3 -1 -55 -42 -3 -6 rrcurveto
          endchar
        </CharString>
        <CharString name="f">
          -123 434 39 callgsubr
          -32 27 -101 hhcurveto
          -29 -171 -34 callsubr
          27 24 vvcurveto
          12 1 24 5 6 vhcurveto
          0 49 14 6 vhcurveto
          55 callsubr
          endchar
        </CharString>
        <CharString name="fi">
          102 608 39 callgsubr
          -80 27 -217 hhcurveto
          -127 -83 -34 callsubr
          -1 52 vvcurveto
          52 49 14 96 10 vhcurveto
          5 37 47 -25 6 55 callsubr
          18 -484 -4 callgsubr
        </CharString>
        <CharString name="five">
          -59 460 131 rmoveto
          1 10 48 callgsubr
          26 -7 130 -32 29 vhcurveto
          -13 11 -22 -2 -27 6 rrcurveto
          4 -17 -12 6 -19 -14 -15 -1 -17 hhcurveto
          -6 -7 0 1 -7 hvcurveto
          -28 -85 -1 14 86 36 -15 36 hvcurveto
          33 26 -2 33 18 19 1 19 14 16 -1 13 hhcurveto
          51 3 53 16 26 -4 38 -3 19 hvcurveto
          47 -7 -4 5 -42 -40 -53 -12 -24 hhcurveto
          -12 1 -12 5 -13 1 rrcurveto
          -10 -11 -3 -12 -26 -32 8 -26 hhcurveto
          -16 -13 -3 -9 -8 hvcurveto
          -3 -3 3 -10 -6 -14 -2 -5 -6 -2 -2 -3 rrcurveto
          -6 -10 -1 -16 -18 -21 1 -23 -21 -53 -17 -58 -39 vvcurveto
          -24 10 -16 38 vhcurveto
          8 -29 18 -11 27 -3 21 -3 88 2 11 -6 13 -8 2 -48 1 -8 rrcurveto
          -63 -13 -41 -49 -24 -43 9 8 -29 vhcurveto
          6 -23 -27 12 -22 hhcurveto
          -24 -13 -22 -33 -7 22 -30 25 -9 hvcurveto
          25 -9 49 0 28 -4 rrcurveto
          -1 12 12 -8 9 7 11 3 8 hhcurveto
          -1 29 32 -7 25 hhcurveto
          20 14 16 8 19 hvcurveto
          5 2 8 -2 5 3 55 26 19 29 7 56 rrcurveto
          endchar
        </CharString>
        <CharString name="fl">
          152 708 105 rmoveto
          -3 callgsubr
          -10 -1 17 34 hvcurveto
          70 -6 70 62 39 10 33 32 vvcurveto
          27 vlineto
          27 -2 33 -12 22 vhcurveto
          -7 13 -4 11 -3 9 rrcurveto
          81 -14 -44 27 -261 hhcurveto
          -29 -171 -17 callsubr
          vvcurveto
          -19 vlineto
          -23 callgsubr
          62 4 12 25 73 0 -15 -27 10 4 callgsubr
          27 24 vvcurveto
          12 1 24 5 6 vhcurveto
          24 43 47 7 40 61 48 -16 4 hhcurveto
          39 -11 -92 -44 17 hvcurveto
          5 -66 8 -66 -87 -21 callgsubr
          hhcurveto
          10 hlineto
          8 callgsubr
          27 20 67 12 3 0 4 -1 5 hvcurveto
          endchar
        </CharString>
        <CharString name="four">
          -70 467 245 rmoveto
          6 7 3 12 13 vvcurveto
          24 -10 28 -17 vhcurveto
          -12 -22 -7 -15 hhcurveto
          -21 0 45 50 hvcurveto
          27 14 49 36 vvcurveto
          33 -34 -8 -13 -43 6 -16 -40 -6 vhcurveto
          -3 -18 -6 -16 -17 -23 3 -43 -29 vvcurveto
          -38 -11 6 -46 -40 7 2 21 vhcurveto
          100 22 15 40 6 0 6 6 23 12 26 16 vvcurveto
          1 -9 31 -6 6 vhcurveto
          -6 4 -27 1 -14 4 -11 4 -10 8 -9 4 rrcurveto
          5 -15 -13 1 -8 hhcurveto
          -47 11 -34 -43 -9 hvcurveto
          -5 -22 -18 -32 -5 -27 -10 -50 0 -38 -5 -41 rrcurveto
          -2 -15 -14 -57 -23 vvcurveto
          -41 63 -9 49 vhcurveto
          35 6 6 93 hhcurveto
          30 15 0 -8 -7 -2 -17 -1 -6 hvcurveto
          -8 -64 -15 -35 -45 vvcurveto
          -40 13 -25 54 vhcurveto
          12 9 6 16 6 6 -1 4 hhcurveto
          11 7 7 22 hvcurveto
          50 -11 42 7 23 4 24 23 9 -5 17 15 vvcurveto
          9 4 10 10 vhcurveto
          7 8 -4 8 hhcurveto
          12 13 3 6 5 hvcurveto
          endchar
        </CharString>
        <CharString name="fraction">
          -208 352 -65 callsubr
          endchar
        </CharString>
        <CharString name="g">
          -91 callsubr
          endchar
        </CharString>
        <CharString name="gbreve">
          -91 callsubr
          -16 256 -91 callgsubr
        </CharString>
        <CharString name="gcircumflex">
          -91 callsubr
          -26 239 -106 callgsubr
        </CharString>
        <CharString name="gcommaaccent">
          -91 callsubr
          -194 252 -10 callsubr
        </CharString>
        <CharString name="gdotaccent">
          -91 callsubr
          -64 232 -54 callsubr
        </CharString>
        <CharString name="germandbls">
          56 595 87 rmoveto
          6 13 2 14 14 vvcurveto
          25 -6 26 -5 22 vhcurveto
          -11 50 -2 8 -36 22 -24 14 -23 6 -24 11 -23 10 -13 17 -14 7 -19 10 -53 8 -5 25 rrcurveto
          54 33 10 10 29 vhcurveto
          6 2 3 15 1 hhcurveto
          11 callsubr
          11 -6 15 15 17 6 15 23 vvcurveto
          32 -5 37 -13 21 vhcurveto
          21 -14 -91 60 -85 hhcurveto
          -54 -78 -17 -77 -5 hvcurveto
          -11 5 -14 1 -12 vhcurveto
          -11 -3 -14 -13 -27 6 -27 -27 -58 -19 -57 -50 -22 10 -17 -19 -47 -20 -28 -28 -21 7 -22 -21 -14 -6 -14 -12 vvcurveto
          -12 6 -17 3 -15 vhcurveto
          2 -16 1 -20 3 -7 rrcurveto
          -17 9 15 -5 18 22 26 7 26 12 9 -1 7 hhcurveto
          9 31 21 29 2 hvcurveto
          11 -11 17 -5 22 vhcurveto
          -4 20 1 23 -3 21 -3 23 -9 23 -3 22 -4 27 -1 28 -5 23 -3 16 -12 14 -3 16 rrcurveto
          -3 13 0 15 14 14 0 15 14 vvcurveto
          40 -18 38 -4 41 vhcurveto
          5 3 6 11 22 -10 36 22 vvcurveto
          20 13 3 23 13 13 -2 -3 4 vhcurveto
          17 -11 8 -63 -48 -11 -4 -19 -17 vvcurveto
          -14 10 -20 3 -19 vhcurveto
          5 -31 -1 -30 8 -16 rrcurveto
          -28 13 45 -30 21 hhcurveto
          17 7 -14 -9 15 hvcurveto
          67 -42 57 4 -114 vvcurveto
          -18 -6 -16 -19 -44 12 92 26 -21 vhcurveto
          27 -23 -74 -4 -12 hhcurveto
          -50 -18 -14 -69 -25 26 -135 61 hvcurveto
          11 15 4 14 17 18 -3 15 hhcurveto
          30 33 11 5 20 hvcurveto
          45 12 13 6 23 28 6 8 12 10 3 7 rrcurveto
          endchar
        </CharString>
        <CharString name="grave">
          -345 3 690 -87 callsubr
        </CharString>
        <CharString name="greater">
          -150 26 476 rmoveto
          -2 26 callsubr
          -5 vvcurveto
          -56 87 -15 26 -23 vhcurveto
          10 -9 2 -12 4 -4 rrcurveto
          12 -10 25 0 -20 vvcurveto
          -1 -9 -41 -43 -8 -10 -6 -8 -5 -12 -4 -5 -5 -5 -12 -4 -5 -6 rrcurveto
          -14 -20 -35 -39 -19 vvcurveto
          -28 29 -27 21 30 34 40 28 28 vhcurveto
          5 5 3 9 4 4 12 11 17 6 8 8 7 7 2 14 7 10 9 12 17 8 8 11 4 6 -1 11 6 7 20 26 48 21 6 34 rrcurveto
          -1 0 39 -3 8 vhcurveto
          -2 6 -15 14 -5 5 -4 5 0 6 -2 1 -5 4 -11 0 -5 5 -8 8 -3 13 -5 4 -6 6 -12 -1 -7 4 -8 6 -7 14 -9 8 -12 10 -15 5 -7 7 rrcurveto
          -5 5 -3 11 -5 5 rrcurveto
          24 -20 -42 20 -15 hhcurveto
          -21 -6 -14 -14 -13 hvcurveto
          -8 -8 -11 -7 -6 -7 -5 -7 -1 -12 -6 -9 -10 -13 -20 -9 -4 -18 rrcurveto
          endchar
        </CharString>
        <CharString name="guillemotleft">
          91 300 240 rmoveto
          -49 callgsubr
          307 hmoveto
          -49 callgsubr
          endchar
        </CharString>
        <CharString name="guillemotright">
          93 340 301 rmoveto
          -50 callgsubr
          -307 hmoveto
          -50 callgsubr
          endchar
        </CharString>
        <CharString name="guilsinglleft">
          -215 300 240 rmoveto
          -49 callgsubr
          endchar
        </CharString>
        <CharString name="guilsinglright">
          -215 33 301 rmoveto
          -50 callgsubr
          endchar
        </CharString>
        <CharString name="h">
          -44 callgsubr
          endchar
        </CharString>
        <CharString name="hbar">
          -47 276 527 rmoveto
          29 -2 0 10 -51 -9 -8 -4 -11 hhcurveto
          -15 -21 0 1 -19 hvcurveto
          41 -4 -7 47 -34 hhcurveto
          -32 -18 -36 -19 -10 1 -10 2 -11 hvcurveto
          -13 -12 -2 -3 -5 hvcurveto
          -8 -5 2 -16 -2 -9 rrcurveto
          -2 -8 -5 -7 -8 vvcurveto
          -14 29 -11 18 vhcurveto
          -1 -17 -1 -17 -16 -47 callsubr
          -24 callsubr
          -11 -5 51 41 -3 hvcurveto
          13 3 20 4 18 8 17 1 rlinecurve
          12 22 -4 12 hhcurveto
          16 -1 13 9 hvcurveto
          endchar
        </CharString>
        <CharString name="hcircumflex">
          -44 callgsubr
          -54 430 -106 callgsubr
        </CharString>
        <CharString name="hungarumlaut">
          -184 186 736 -67 callgsubr
        </CharString>
        <CharString name="hyphen">
          -44 476 -37 callgsubr
        </CharString>
        <CharString name="i">
          -323 173 569 -15 callsubr
          28 -535 -4 callgsubr
        </CharString>
        <CharString name="iacute">
          -300 -58 callgsubr
          79 521 -104 callgsubr
        </CharString>
        <CharString name="ibreve">
          -46 callgsubr
          24 583 -91 callgsubr
        </CharString>
        <CharString name="icircumflex">
          -314 206 -68 callsubr
          36 514 -106 callgsubr
        </CharString>
        <CharString name="idieresis">
          -302 216 -68 callsubr
          59 592 -90 callgsubr
        </CharString>
        <CharString name="igrave">
          -314 210 34 rmoveto
          -16 -10 -61 -21 -28 hhcurveto
          -51 5 -17 33 -3 52 rrcurveto
          13 6 13 16 18 -4 19 18 vvcurveto
          45 10 132 13 28 vhcurveto
          23 11 18 10 20 hhcurveto
          52 17 -44 -68 hvcurveto
          -15 -2 -14 -14 -54 27 -54 -38 -6 -1 -8 -6 -24 7 -14 -12 vvcurveto
          -6 -1 79 callgsubr
          vhcurveto
          -261 542 -87 callsubr
        </CharString>
        <CharString name="ij">
          -164 173 569 -15 callsubr
          28 -535 -82 callgsubr
          148 562 -40 callsubr
        </CharString>
        <CharString name="imacron">
          -46 callgsubr
          13 553 -75 callgsubr
        </CharString>
        <CharString name="iogonek">
          -323 253 -113 -36 callgsubr
          6 11 11 3 5 7 23 7 21 11 6 9 rrcurveto
          -76 callsubr
          2 -40 11 -29 27 -13 53 callsubr
          -8 -6 -7 -61 callgsubr
          -80 682 -15 callsubr
          endchar
        </CharString>
        <CharString name="itilde">
          -46 callgsubr
          47 670 -95 callgsubr
        </CharString>
        <CharString name="j">
          -389 124 596 -40 callsubr
        </CharString>
        <CharString name="jcircumflex">
          -389 149 -15 -71 callsubr
          48 592 -106 callgsubr
        </CharString>
        <CharString name="k">
          -51 callgsubr
          endchar
        </CharString>
        <CharString name="kcommaaccent">
          -51 callgsubr
          -159 -458 -97 callgsubr
        </CharString>
        <CharString name="kgreenlandic">
          -16 callgsubr
          -18 8 12 27 -2 hvcurveto
          -5 callsubr
          vvcurveto
          -30 -36 -85 1 -24 vhcurveto
          -47 callgsubr
          endchar
        </CharString>
        <CharString name="l">
          -273 -73 callgsubr
          endchar
        </CharString>
        <CharString name="lacute">
          -273 -73 callgsubr
          19 681 -104 callgsubr
        </CharString>
        <CharString name="lcaron">
          -131 -73 callgsubr
          95 640 -97 callgsubr
        </CharString>
        <CharString name="lcommaaccent">
          -273 -73 callgsubr
          -70 -203 -97 callgsubr
        </CharString>
        <CharString name="ldotaccent">
          -63 -73 callgsubr
          169 266 -59 callgsubr
        </CharString>
        <CharString name="less">
          -151 371 198 rmoveto
          1 6 47 callsubr
          55 -87 16 -26 23 vhcurveto
          66 callsubr
          12 -4 4 rrcurveto
          -12 10 -25 0 20 vvcurveto
          1 9 41 43 8 10 6 8 5 12 4 5 5 5 12 4 5 6 rrcurveto
          14 19 35 40 19 vvcurveto
          28 -29 27 -21 -30 -34 -40 -28 -28 vhcurveto
          -5 -5 -3 -9 -4 -4 -12 -11 -17 -6 -8 -8 -7 -7 -2 -14 -7 -10 -9 -12 -17 -8 -8 -11 -4 -6 1 -11 -6 -7 -20 -26 -48 -21 -6 -34 rrcurveto
          1 0 -39 3 -8 vhcurveto
          2 -6 15 -14 5 -5 4 -5 0 -6 2 -1 5 -4 11 0 5 -5 8 -8 3 -13 5 -4 6 -6 12 1 7 -4 8 -6 7 -14 9 -8 12 -10 15 -5 7 -7 rrcurveto
          5 -5 3 -11 5 -5 rrcurveto
          -24 20 41 -20 16 hhcurveto
          21 5 14 14 14 hvcurveto
          8 8 11 7 6 7 5 7 1 12 6 9 10 13 20 9 4 18 rrcurveto
          endchar
        </CharString>
        <CharString name="logicalnot">
          -35 476 325 -25 callsubr
          3 -60 -56 2 -54 hhcurveto
          -28 -34 -2 -12 -12 -38 callgsubr
          33 37 -2 callgsubr
          rrcurveto
          5 17 13 4 8 hhcurveto
          13 10 -15 -28 hvcurveto
          -32 -9 -8 -28 vvcurveto
          -20 30 -24 45 29 -7 23 25 3 vhcurveto
          2 15 7 11 14 38 4 -13 35 vvcurveto
          19 1 16 4 31 vhcurveto
          endchar
        </CharString>
        <CharString name="lslash">
          -223 327 393 rmoveto
          -17 42 18 23 -76 -32 -12 -5 -8 -10 -14 -6 rrcurveto
          2 32 8 28 28 vvcurveto
          27 vlineto
          -1 callsubr
          -85 10 -69 5 -89 vhcurveto
          -26 -11 -47 -21 -10 -14 19 callsubr
          rrcurveto
          -11 vlineto
          -20 callsubr
          hhcurveto
          10 hlineto
          -30 callgsubr
          -9 callsubr
          27 -1 26 -2 26 hvcurveto
          18 13 16 12 13 6 18 8 11 0 18 8 57 callgsubr
          endchar
        </CharString>
        <CharString name="m">
          151 680 121 rmoveto
          28 callsubr
          11 -7 20 12 vvcurveto
          -1 12 8 13 15 vvcurveto
          217 -62 34 -24 vhcurveto
          -16 -57 -16 -36 -11 -13 1 -11 -50 2 -65 -26 -15 -15 23 -29 hhcurveto
          -15 -16 -7 -5 -17 hvcurveto
          -51 -16 -33 -23 -55 -7 rrcurveto
          21 4 14 17 vvcurveto
          58 -18 12 -33 -43 2 -44 -36 vhcurveto
          -36 4 -37 -40 -41 -13 -51 -13 -21 4 -28 -16 -10 -7 -8 -15 vvcurveto
          -26 6 -32 4 -8 vhcurveto
          -12 9 49 -9 13 hhcurveto
          53 0 40 69 hvcurveto
          13 -19 19 22 4 1 4 4 20 -13 23 17 vvcurveto
          34 28 9 21 9 vhcurveto
          4 10 24 12 17 hhcurveto
          19 2 -14 -27 hvcurveto
          -12 -1 -10 -5 -29 7 -38 -30 -16 -7 -13 -15 vvcurveto
          -21 13 -3 12 -18 vhcurveto
          -19 13 -3 -11 30 hhcurveto
          27 38 12 3 12 hvcurveto
          10 2 13 -1 8 5 rrcurveto
          21 12 6 22 23 vvcurveto
          31 -2 43 -3 36 vhcurveto
          -4 43 -16 40 28 vvcurveto
          8 19 62 51 22 5 -14 -20 vhcurveto
          -17 -3 -22 -22 -9 3 -18 -10 -17 -18 -26 -14 vvcurveto
          -11 19 -27 2 -7 vhcurveto
          -21 7 -5 -29 35 9 11 1 2 4 52 callgsubr
          hhcurveto
          36 39 5 26 7 hvcurveto
          endchar
        </CharString>
        <CharString name="macron">
          -334 209 638 -75 callgsubr
        </CharString>
        <CharString name="minus">
          -27 484 -37 callgsubr
        </CharString>
        <CharString name="mu">
          17 530 -103 callgsubr
          endchar
        </CharString>
        <CharString name="multiply">
          -58 451 256 rmoveto
          -4 15 -29 33 -7 8 rrcurveto
          -15 18 -31 13 18 vvcurveto
          17 39 25 13 20 vhcurveto
          30 callgsubr
          -11 -15 8 -21 -22 -1 rrcurveto
          -11 -40 43 3 -4 hvcurveto
          34 callgsubr
          17 -1 15 -33 15 -19 rrcurveto
          8 -10 7 4 -8 vvcurveto
          -13 -57 -35 -26 -27 vhcurveto
          33 callsubr
          35 31 52 19 13 hvcurveto
          9 13 27 48 16 1 rrcurveto
          6 38 -26 -2 2 hvcurveto
          -26 34 31 -45 34 51 callsubr
        </CharString>
        <CharString name="n">
          -80 callsubr
          endchar
        </CharString>
        <CharString name="nacute">
          -80 callsubr
          -78 330 -104 callgsubr
        </CharString>
        <CharString name="napostrophe">
          142 192 600 -98 callgsubr
          469 -390 -87 callgsubr
          endchar
        </CharString>
        <CharString name="nbspace">
          -318 endchar
        </CharString>
        <CharString name="ncaron">
          -45 477 210 rmoveto
          -22 -6 -22 -20 -13 3 -13 -12 vvcurveto
          -5 -10 -34 -24 -10 vhcurveto
          -15 -6 -27 4 -23 -4 rrcurveto
          -3 -16 -11 -5 -13 hhcurveto
          -47 3 58 33 -3 hvcurveto
          -2 22 -4 16 -1 15 rrcurveto
          9 48 callgsubr
          34 -4 25 -45 -31 -47 -17 -37 vhcurveto
          -7 4 -9 -10 -18 -6 -20 -18 -27 6 -24 -17 vvcurveto
          -45 -7 -23 -38 -30 -17 14 30 vhcurveto
          11 1 12 13 vvcurveto
          35 -18 7 -9 39 vhcurveto
          -1 38 callsubr
          3 7 1 10 10 52 -16 71 54 vvcurveto
          49 47 11 36 35 23 -21 -27 vhcurveto
          -9 -2 -11 -10 vvcurveto
          -7 2 -12 7 14 64 24 2 10 vhcurveto
          25 4 17 -3 16 5 rrcurveto
          8 30 3 9 28 hhcurveto
          44 -10 -22 -17 16 hvcurveto
          20 -22 25 -3 -24 -9 -4 -9 -14 -17 6 -19 -19 vvcurveto
          -105 399 -96 callgsubr
        </CharString>
        <CharString name="ncommaaccent">
          -80 callsubr
          -150 -289 -97 callgsubr
        </CharString>
        <CharString name="nine">
          33 554 239 rmoveto
          1 4 0 4 5 23 -7 35 30 10 1 11 10 vvcurveto
          -1 20 -6 25 -3 21 rrcurveto
          -7 41 -17 29 27 vvcurveto
          10 -19 70 -35 17 vhcurveto
          9 -19 -24 2 -28 -16 -17 -1 -18 -50 -54 18 -36 hhcurveto
          -10 -8 -5 -1 -10 hvcurveto
          -35 -5 -11 5 -16 -13 -20 -16 2 -20 -9 -28 -5 -15 -15 -13 -5 -16 rrcurveto
          -7 -20 -4 -19 -18 vvcurveto
          -58 38 -56 54 vhcurveto
          26 20 -26 24 21 8 16 30 25 27 -4 31 hhcurveto
          -15 -24 4 -46 -10 -44 -2 -9 -8 -6 -3 -10 -8 -27 4 -24 -14 -11 rrcurveto
          -1 -2 -46 -14 -14 hhcurveto
          -18 -9 19 15 26 16 31 2 20 hvcurveto
          7 -3 44 -7 8 vhcurveto
          6 -6 -17 2 -18 hhcurveto
          -95 -62 8 -63 hvcurveto
          -16 10 -13 -18 -5 -1 -6 -5 -15 11 -7 -16 70 callsubr
          -6 vvcurveto
          -11 13 -30 3 -3 vhcurveto
          20 -26 150 -25 49 -5 rrcurveto
          -3 27 25 -12 16 hhcurveto
          9 37 14 13 13 hvcurveto
          19 20 0 31 39 33 8 6 11 -1 9 7 -2 -2 63 64 7 37 rrcurveto
          -191 207 rmoveto
          -3 -39 -54 -14 -44 hhcurveto
          -43 -34 12 55 18 8 50 14 hvcurveto
          12 22 -5 16 10 9 1 8 hhcurveto
          71 23 -10 -52 11 hvcurveto
          4 -18 0 -18 6 -16 rrcurveto
          endchar
        </CharString>
        <CharString name="notequal">
          -10 491 235 -25 callsubr
          -1 hlineto
          4 20 4 19 6 17 5 14 6 13 5 13 rrcurveto
          2 hlineto
          23 callsubr
          32 -4 -22 36 -20 hhcurveto
          -32 -32 -12 -10 -36 hvcurveto
          5 12 rlineto
          2 9 15 48 19 2 -1 15 callgsubr
          10 -2 -16 8 -14 hhcurveto
          -34 4 -34 -34 -12 hvcurveto
          -9 -25 -14 -19 -7 -18 rrcurveto
          -3 hlineto
          -1 -13 -14 -1 -14 3 callsubr
          6 7 2 1 7 hvcurveto
          -2 -7 -4 -12 -9 -8 -3 -10 rlinecurve
          -5 -12 -1 -14 -3 -13 rrcurveto
          -1 vlineto
          1 -17 -16 0 -13 -48 callgsubr
          10 10 0 1 10 vhcurveto
          -1 70 callsubr
          -8 vvcurveto
          -37 22 -18 33 -10 vhcurveto
          -4 9 5 -2 6 hhcurveto
          29 4 64 21 4 hvcurveto
          1 8 2 9 2 9 20 2 19 4 16 5 -24 callgsubr
          endchar
        </CharString>
        <CharString name="ntilde">
          -80 callsubr
          -86 408 -95 callgsubr
        </CharString>
        <CharString name="numbersign">
          -43 471 429 rmoveto
          3 13 2 31 callgsubr
          15 -6 15 -19 vhcurveto
          -10 -20 -6 -15 hhcurveto
          -13 -8 2 18 28 14 58 1 5 hvcurveto
          47 callgsubr
          61 -4 46 -41 -29 -38 -23 -21 -12 6 -13 1 -9 vhcurveto
          3 -44 -1 -49 1 -67 rrcurveto
          -4 -3 0 -4 -17 -13 -2 -13 hhcurveto
          -7 -6 0 2 -7 hvcurveto
          6 14 2 14 14 16 -3 17 17 15 8 31 callgsubr
          18 -42 7 -18 -40 -9 -25 -30 vhcurveto
          -28 7 -34 -31 vvcurveto
          -11 4 -8 -16 vhcurveto
          -46 -3 -28 -18 -5 -5 3 -4 hhcurveto
          -15 3 -21 -3 -1 hvcurveto
          -3 -9 -6 -11 -8 vvcurveto
          -33 2 36 -10 18 19 18 7 11 hhcurveto
          8 4 3 -31 -27 -1 -9 -22 hvcurveto
          -12 -15 2 -9 hhcurveto
          -16 -13 -32 -32 -30 14 11 14 -13 hvcurveto
          -20 10 -3 -2 20 4 3 0 3 hhcurveto
          -1 0 35 callsubr
          71 callsubr
          13 6 -3 -12 hvcurveto
          -11 -6 -14 -1 -9 -1 -10 -7 vvcurveto
          -22 23 -35 30 17 15 13 24 vhcurveto
          17 -6 21 17 vvcurveto
          11 4 18 12 vhcurveto
          5 9 -4 7 13 9 3 7 hhcurveto
          9 2 -6 -9 hvcurveto
          -19 -13 -32 -13 vvcurveto
          -35 26 -17 8 vhcurveto
          26 -1 5 39 9 28 rrcurveto
          5 15 9 6 16 75 callsubr
          4 vvcurveto
          12 7 4 9 vhcurveto
          3 52 callgsubr
          hhcurveto
          28 42 49 58 19 -16 5 -12 hvcurveto
          -17 -21 -10 -15 hhcurveto
          -11 -7 6 21 22 5 6 9 hvcurveto
          9 12 -6 16 hhcurveto
          42 9 54 36 9 hvcurveto
          -185 -139 rmoveto
          2 -5 -5 1 -6 -11 -12 -3 -9 hhcurveto
          -11 -4 5 8 hvcurveto
          9 5 43 callsubr
          3 0 4 -1 3 vhcurveto
          19 20 0 20 hhcurveto
          -19 0 -18 -19 vvcurveto
          endchar
        </CharString>
        <CharString name="o">
          -100 callsubr
          endchar
        </CharString>
        <CharString name="oacute">
          -100 callsubr
          72 324 -104 callgsubr
        </CharString>
        <CharString name="obreve">
          -100 callsubr
          21 303 -91 callgsubr
        </CharString>
        <CharString name="ocircumflex">
          -100 callsubr
          41 289 -106 callgsubr
        </CharString>
        <CharString name="odieresis">
          -100 callsubr
          54 354 -90 callgsubr
        </CharString>
        <CharString name="oe">
          243 777 -19 callsubr
          -90 -1 -143 -54 -14 -19 -7 -9 rcurveline
          19 -9 -17 16 -47 -27 -32 -3 -30 -34 -36 9 -18 hhcurveto
          -15 hlineto
          -64 callgsubr
          59 17 11 31 19 hvcurveto
          7 -11 8 -10 10 -10 20 -16 36 -4 27 -7 0 callgsubr
          -453 155 -81 callgsubr
          264 70 10 callgsubr
        </CharString>
        <CharString name="ogonek">
          -312 235 -11 callgsubr
          9 14 16 2 14 vvcurveto
          17 -19 12 -17 -31 -13 -43 -21 -19 vhcurveto
          -62 callgsubr
          endchar
        </CharString>
        <CharString name="ograve">
          -91 441 297 -27 callsubr
          -117 -25 rmoveto
          1 13 2 24 21 vvcurveto
          21 -7 43 -53 vhcurveto
          -16 -18 -5 -16 -8 -9 1 -8 hhcurveto
          -46 -9 -40 -48 -63 9 -17 23 -12 hvcurveto
          10 -4 5 2 10 -4 rrcurveto
          -4 11 1 -12 11 4 6 1 6 16 6 -13 7 hhcurveto
          4 1 50 27 1 3 6 11 0 39 1 15 rrcurveto
          -256 332 -87 callsubr
        </CharString>
        <CharString name="ohungarumlaut">
          -100 callsubr
          -33 359 -67 callgsubr
        </CharString>
        <CharString name="omacron">
          -100 callsubr
          6 274 -75 callgsubr
        </CharString>
        <CharString name="one">
          -107 444 103 rmoveto
          22 -3 -35 7 -14 -18 -25 -3 -16 hhcurveto
          -25 6 32 41 -6 hvcurveto
          -12 72 -6 45 97 vvcurveto
          25 2 24 4 18 vhcurveto
          2 12 8 2 16 7 -1 7 9 19 8 29 21 vvcurveto
          10 -2 7 -3 6 vhcurveto
          -4 7 -53 20 -4 1 rrcurveto
          1 -7 -7 1 -7 -9 -10 -1 -10 -38 1 17 -43 hhcurveto
          -23 -24 -3 -27 -18 hvcurveto
          -5 -8 3 -14 -7 -12 -5 -8 -11 -3 -3 -5 rrcurveto
          -4 -7 -5 -13 -5 -14 12 1 -21 -16 -6 27 callsubr
          -22 23 10 24 -7 vhcurveto
          12 -4 8 -8 7 -1 rrcurveto
          13 30 5 24 hhcurveto
          14 12 -2 -6 6 hvcurveto
          7 -7 3 -64 -24 -40 -4 -48 -43 vvcurveto
          -19 0 -19 3 -17 vhcurveto
          2 -7 12 -18 -10 vvcurveto
          -10 -17 -3 -27 vhcurveto
          -25 -30 3 -19 hhcurveto
          -3 -44 -11 -12 -9 hvcurveto
          -7 -7 -3 -15 -15 vvcurveto
          -42 15 -22 39 21 23 6 3 14 vhcurveto
          47 10 42 -9 44 8 rrcurveto
          2 11 11 7 8 16 37 -10 30 hhcurveto
          18 25 6 17 hvcurveto
          5 -3 6 7 24 14 -10 12 vvcurveto
          54 callsubr
          -1 4 vhcurveto
          endchar
        </CharString>
        <CharString name="onehalf">
          50 447 -52 callsubr
          334 -189 -27 callgsubr
        </CharString>
        <CharString name="onequarter">
          43 452 -52 callsubr
          328 -278 -23 callsubr
          endchar
        </CharString>
        <CharString name="onesuperior">
          -296 239 414 -50 callsubr
          endchar
        </CharString>
        <CharString name="ordfeminine">
          -187 347 559 rmoveto
          89 -3 -61 33 -80 hhcurveto
          -12 -13 -1 -1 -13 hvcurveto
          -29 -4 -105 10 -58 vvcurveto
          -13 8 -10 14 vhcurveto
          16 21 8 17 14 19 -7 20 20 19 1 17 hhcurveto
          34 17 -10 -21 -39 -125 18 -54 -13 hvcurveto
          -35 -11 -34 -35 -10 -8 1 -10 -7 -7 -1 -9 -7 vvcurveto
          -59 41 -20 49 52 59 19 18 44 vhcurveto
          -1 -6 -1 -4 -4 vvcurveto
          -18 11 -6 13 48 7 20 31 vhcurveto
          10 0 10 11 43 6 28 32 6 0 5 6 vvcurveto
          -18 -324 rmoveto
          24 -4 -60 19 -38 -31 -26 -9 -26 -38 -27 13 -24 hhcurveto
          -19 -16 -37 -21 -33 32 -21 44 hvcurveto
          33 33 6 18 13 13 -1 11 hhcurveto
          31 82 10 43 hvcurveto
          2 -1 2 3 vvcurveto
          -59 256 rmoveto
          2 -2 0 -2 -2 vvcurveto
          -21 -70 -28 -21 -12 -10 6 18 28 28 8 58 12 10 -1 -4 3 vhcurveto
          endchar
        </CharString>
        <CharString name="ordmasculine">
          -189 325 612 rmoveto
          2 -6 6 -3 7 vhcurveto
          43 -21 -57 37 -52 hhcurveto
          -18 -124 -1 -23 -15 hvcurveto
          -9 -13 -16 -63 -14 -10 9 -17 -7 -8 -3 -10 -10 vvcurveto
          -1 -16 13 -20 4 -19 rrcurveto
          -49 10 9 -54 58 73 callgsubr
          83 14 49 79 hvcurveto
          15 -1 15 14 65 callgsubr
          -6 -424 rmoveto
          22 10 10 22 24 vvcurveto
          32 -19 39 -28 vhcurveto
          -23 -31 -18 -36 -8 -8 3 -9 hhcurveto
          -1 -27 -36 -19 -35 -5 -6 0 -5 hhcurveto
          -54 -6 -57 3 -41 49 -7 42 41 21 14 3 37 hvcurveto
          27 25 -16 19 1 40 9 2 hhcurveto
          -124 424 20 callgsubr
          endchar
        </CharString>
        <CharString name="oslash">
          -61 callsubr
          endchar
        </CharString>
        <CharString name="oslashacute">
          -61 callsubr
          47 334 -104 callgsubr
        </CharString>
        <CharString name="otilde">
          -100 callsubr
          43 404 -95 callgsubr
        </CharString>
        <CharString name="p">
          -47 488 11 callgsubr
          -16 14 79 18 -11 hvcurveto
          11 -7 -13 5 56 callgsubr
          -13 -63 -8 callgsubr
          82 callgsubr
          2 vvcurveto
          -2 7 6 -1 7 21 20 9 20 20 20 -9 18 hhcurveto
          66 -1 49 12 21 23 10 11 36 73 3 14 rrcurveto
          -114 59 rmoveto
          0 77 callgsubr
          vvcurveto
          11 callsubr
          -3 -16 -7 1 hhcurveto
          11 callsubr
          24 callsubr
          2 38 callsubr
          39 callsubr
        </CharString>
        <CharString name="paragraph">
          195 710 548 rmoveto
          1 2 0 10 9 vvcurveto
          47 -29 -9 -25 3 vhcurveto
          2 -18 -23 7 -18 -7 -33 -8 -26 hhcurveto
          -9 -9 2 3 -5 hvcurveto
          12 -22 44 -27 vhcurveto
          -55 9 -65 -30 -34 -37 25 -41 hhcurveto
          -43 -3 -16 -6 -19 hvcurveto
          -31 -10 -41 6 -30 -15 -6 -2 -2 -8 -8 -5 -8 -6 -8 2 -5 -5 rrcurveto
          -14 -14 -7 -31 -9 35 callgsubr
          -4 -44 -29 -28 -28 vvcurveto
          -32 19 -18 15 -19 vhcurveto
          31 -39 15 -18 50 -5 rrcurveto
          -2 19 22 -10 23 4 6 0 4 28 20 -19 26 hhcurveto
          23 24 5 1 26 hvcurveto
          -6 -71 -25 -75 -72 vvcurveto
          -27 2 -41 8 -19 vhcurveto
          -17 7 34 -24 3 1 1 1 3 hhcurveto
          7 -1 -1 -4 3 -2 rrcurveto
          -3 10 7 -1 7 hhcurveto
          19 12 9 11 23 hvcurveto
          19 9 42 7 27 vvcurveto
          8 -5 15 -1 14 vhcurveto
          -7 122 -13 34 107 vvcurveto
          45 30 -22 27 14 vhcurveto
          2 -44 8 -57 -60 -18 -1 -18 -18 vvcurveto
          -31 10 -42 19 8 11 3 1 8 vhcurveto
          9 8 -3 7 hhcurveto
          15 5 14 19 hvcurveto
          29 -11 42 30 18 10 11 13 vvcurveto
          40 -17 48 -4 38 vhcurveto
          6 6 8 5 12 -10 6 18 13 1 13 13 39 -12 29 36 vvcurveto
          48 callsubr
          1 9 vhcurveto
          46 callsubr
          20 23 7 14 6 hvcurveto
          -139 -182 rmoveto
          -4 -18 -21 -2 -23 hhcurveto
          -2 14 0 15 15 20 1 20 20 vvcurveto
          22 -1 22 -4 22 vhcurveto
          -1 4 75 callsubr
          5 6 1 5 hhcurveto
          31 -14 -29 -23 12 hvcurveto
          6 -37 -3 -50 6 -24 rrcurveto
          -179 157 rmoveto
          1 -7 1 -9 -10 -27 -5 -36 -28 -7 0 -7 -8 vvcurveto
          -26 4 -10 -33 -91 4 2 44 -17 vhcurveto
          -5 11 -10 17 9 9 9 9 15 10 -3 8 5 vvcurveto
          37 104 -9 41 8 vhcurveto
          endchar
        </CharString>
        <CharString name="parenleft">
          -222 345 -51 rmoveto
          23 -40 51 -38 28 vhcurveto
          -19 14 -26 7 -13 22 -5 7 -1 18 -7 9 -10 14 -57 22 -10 22 rrcurveto
          -10 20 0 76 46 vvcurveto
          35 1 35 3 26 vhcurveto
          2 23 4 42 9 19 9 21 34 31 13 13 16 16 13 23 14 13 8 7 11 2 6 6 rrcurveto
          7 9 32 61 10 vvcurveto
          15 -9 40 -24 vhcurveto
          -38 1 -20 -41 -19 -24 -9 -11 -12 -9 -7 -10 -17 -25 -9 -29 -17 -20 -7 -9 -18 -7 -6 -6 -3 -3 -3 -11 -3 -5 -23 -27 0 -50 -8 -52 rrcurveto
          -6 -34 -8 -26 -29 -20 1 -20 -20 -58 -14 -50 -42 vvcurveto
          -39 16 -4 14 -38 vhcurveto
          6 -17 -1 -21 4 -9 4 -6 14 -7 10 -11 10 -11 7 -14 8 -6 7 -6 11 -1 6 -5 5 -5 -2 -10 4 -4 3 -5 9 -1 3 -3 8 -8 8 -12 9 -5 rrcurveto
          8 -5 14 2 9 -6 rrcurveto
          -13 17 8 -35 43 hhcurveto
          34 -19 20 31 15 hvcurveto
          10 20 30 23 1 22 rrcurveto
          endchar
        </CharString>
        <CharString name="parenright">
          -257 277 205 rmoveto
          1 0 1 2 11 -6 19 15 19 3 20 17 20 -9 21 18 13 6 13 14 8 -6 7 9 14 1 16 15 vvcurveto
          32 -13 12 -7 26 vhcurveto
          -39 135 -22 1 -50 43 rrcurveto
          17 -20 -20 33 -25 hhcurveto
          -22 -9 -17 -15 -6 hvcurveto
          -9 -19 -6 -4 -9 -14 rrcurveto
          -20 -33 0 -24 -20 vvcurveto
          -62 16 19 28 -28 vhcurveto
          7 -6 3 -11 6 -4 8 -7 10 0 6 -6 7 -5 2 -10 7 -6 rrcurveto
          42 -40 35 -5 -78 -18 -2 -18 -17 -29 11 -11 -19 -8 -3 -11 -9 -5 0 -4 -5 vvcurveto
          -48 -43 -77 -15 -40 vhcurveto
          -4 -10 1 -10 -4 -8 -4 -10 -9 -7 -5 -11 -6 -10 -3 -12 -4 -12 rrcurveto
          -7 -19 -19 -36 -27 vvcurveto
          -18 6 -12 33 21 -2 0 26 15 vhcurveto
          15 26 29 21 26 vvcurveto
          19 9 -4 9 14 vhcurveto
          16 26 13 43 11 30 3 10 0 12 3 9 2 7 9 8 4 9 6 13 0 14 4 7 6 13 13 3 2 12 rrcurveto
          endchar
        </CharString>
        <CharString name="partialdiff">
          -52 471 156 rmoveto
          43 callgsubr
          -27 69 -32 124 -43 29 27 callgsubr
          -71 35 -5 25 -42 vhcurveto
          11 -20 13 -29 13 -28 rrcurveto
          -18 callgsubr
          vvcurveto
          -148 15 6 callsubr
        </CharString>
        <CharString name="percent">
          57 298 476 -26 callsubr
          275 126 -81 callsubr
          117 -542 -26 callsubr
          endchar
        </CharString>
        <CharString name="period">
          -330 190 113 -59 callgsubr
        </CharString>
        <CharString name="periodcentered">
          -321 194 371 -59 callgsubr
        </CharString>
        <CharString name="perthousand">
          317 845 112 rmoveto
          3 1 3 3 vvcurveto
          23 -16 28 -4 17 vhcurveto
          -44 callsubr
          -1 44 callsubr
          vvcurveto
          -4 9 -4 9 -1 7 -45 callsubr
          24 7 45 42 23 33 rrcurveto
          -60 10 44 -30 53 hhcurveto
          21 23 3 5 17 hvcurveto
          32 10 68 69 5 29 rrcurveto
          -547 364 -39 callsubr
          170 178 -81 callsubr
          -275 -126 rmoveto
          -17 callgsubr
          547 -364 rmoveto
          -17 callgsubr
          -260 hmoveto
          -17 callgsubr
          endchar
        </CharString>
        <CharString name="plus">
          -95 431 -38 callsubr
          endchar
        </CharString>
        <CharString name="plusminus">
          -85 433 -38 callsubr
          5 -403 rmoveto
          32 -4 -22 1 -20 -56 -56 -7 -61 3 callsubr
          50 5 -1 12 55 -7 7 callgsubr
          endchar
        </CharString>
        <CharString name="q">
          -52 620 -107 rmoveto
          -4 38 -25 1 -29 5 rrcurveto
          2 -16 -17 7 -12 -9 -8 -3 -9 hhcurveto
          -18 -12 17 37 hvcurveto
          20 11 13 11 10 -13 11 21 10 1 11 11 49 -9 55 47 vvcurveto
          63 6 162 -45 -12 -22 -4 -5 -5 vhcurveto
          -13 -13 7 -42 -16 hhcurveto
          -6 -14 8 4 -7 hvcurveto
          -13 5 -10 1 -8 3 rrcurveto
          20 -54 -31 16 -51 hhcurveto
          -8 -7 -1 -1 -6 hvcurveto
          -7 -1 -109 -57 -54 15 callsubr
          -8 -26 -10 -27 -27 vvcurveto
          -43 23 -80 31 -17 vhcurveto
          7 -4 21 -1 15 -4 28 -7 36 -20 28 -1 14 -1 17 5 16 2 16 1 21 -1 12 3 rrcurveto
          2 8 28 21 8 hhcurveto
          3 1 -5 -6 -17 -9 -31 -2 -19 hvcurveto
          -4 -30 2 -6 -4 -31 rrcurveto
          -6 -38 -9 -25 -43 vvcurveto
          -76 41 -10 67 -27 vhcurveto
          -13 31 59 -26 46 hhcurveto
          4 52 11 40 5 hvcurveto
          7 -9 9 15 8 9 10 12 8 -3 12 8 vvcurveto
          1 15 5 11 5 vvcurveto
          -256 432 rmoveto
          2 -4 1 -10 -12 vvcurveto
          -28 -5 -40 -7 -5 vhcurveto
          -2 -2 -63 -10 -9 -1 rrcurveto
          -3 -3 -1 -4 hhcurveto
          -42 -16 4 58 58 9 27 40 16 80 -22 -12 6 hvcurveto
          endchar
        </CharString>
        <CharString name="question">
          24 540 422 rmoveto
          -4 58 10 65 -22 40 -17 31 -4 -12 -31 15 -10 5 -7 14 -11 6 rrcurveto
          13 -24 -40 13 -14 hhcurveto
          -16 -19 -7 -4 -26 hvcurveto
          -30 -5 -40 -2 -35 -5 rrcurveto
          -166 -24 -4 -51 -101 -19 1 -19 -19 -24 -7 -21 -28 vvcurveto
          -28 25 -4 26 68 100 1 55 vhcurveto
          17 -3 22 21 vvcurveto
          20 7 82 12 12 vhcurveto
          5 5 25 0 16 4 rrcurveto
          6 30 6 10 13 hhcurveto
          32 43 -11 -28 -13 -6 -18 -1 -11 hvcurveto
          -17 1 -27 -25 vvcurveto
          -80 -35 6 -49 -17 vhcurveto
          -29 -11 -34 -11 -20 -12 -29 -18 -7 -27 -11 -36 rrcurveto
          -4 -13 -9 -15 -15 vvcurveto
          -16 12 -11 22 vhcurveto
          13 16 2 15 25 29 -8 20 hhcurveto
          35 -12 29 26 8 hvcurveto
          3 9 9 11 4 11 4 13 -1 17 3 4 9 16 29 5 30 13 9 4 10 8 12 6 rrcurveto
          34 16 16 2 34 vvcurveto
          23 -9 24 -1 19 vhcurveto
          -161 -411 rmoveto
          6 -13 7 17 6 1 6 4 vvcurveto
          11 -82 18 -41 vhcurveto
          -7 -5 -1 -3 78 callgsubr
          -16 -27 -78 -19 -13 22 -5 10 -9 hvcurveto
          -14 16 7 -21 19 hhcurveto
          11 8 9 2 17 hvcurveto
          11 12 -4 10 hhcurveto
          8 48 48 30 hvcurveto
          endchar
        </CharString>
        <CharString name="questiondown">
          24 32 174 rmoveto
          4 -58 -10 -65 22 -40 17 -31 4 12 31 -15 10 -5 7 -14 11 -6 rrcurveto
          -13 24 40 -13 14 hhcurveto
          16 19 7 4 26 hvcurveto
          30 5 40 2 35 5 rrcurveto
          166 24 4 51 101 19 -1 19 19 24 7 21 28 vvcurveto
          28 -25 4 -26 -68 -100 -1 -55 vhcurveto
          -17 3 -22 -21 vvcurveto
          -20 -7 -82 -12 -12 vhcurveto
          -5 -5 -25 0 -16 -4 rrcurveto
          -6 -30 -6 -10 -13 hhcurveto
          -32 -43 11 28 13 6 18 1 11 hvcurveto
          17 -1 27 25 vvcurveto
          80 35 -6 49 17 vhcurveto
          29 11 34 11 20 12 29 18 7 27 11 36 rrcurveto
          4 13 9 15 15 vvcurveto
          16 -12 11 -22 vhcurveto
          -13 -16 -2 -15 -25 -29 8 -20 hhcurveto
          -35 12 -29 -26 -8 hvcurveto
          -3 -9 -9 -11 -4 -11 -4 -13 1 -17 -3 -4 -9 -16 -29 -5 -30 -13 -9 -4 -10 -8 -12 -6 rrcurveto
          -34 -16 -16 -2 -34 vvcurveto
          -23 9 -24 1 -19 vhcurveto
          161 411 rmoveto
          -6 13 -7 -17 -6 -1 -6 -4 vvcurveto
          -11 82 -18 41 vhcurveto
          7 5 1 3 2 2 67 callsubr
          16 27 78 19 13 -22 5 -10 9 hvcurveto
          14 -16 -7 21 -19 hhcurveto
          -11 -8 -9 -2 -17 hvcurveto
          -11 -12 4 -10 hhcurveto
          -8 -48 -48 -30 hvcurveto
          endchar
        </CharString>
        <CharString name="quotedbl">
          -264 -8 callsubr
          27 hmoveto
          -8 5 -11 -13 -47 12 -27 -50 vvcurveto
          -16 5 -12 24 37 13 21 34 vhcurveto
          44 16 27 44 7 4 2 5 vvcurveto
          33 -30 -9 -25 6 vhcurveto
          1 -7 -7 4 -8 hhcurveto
          -20 -19 0 -35 hvcurveto
          endchar
        </CharString>
        <CharString name="quotedblbase">
          -74 232 -53 callgsubr
          233 hmoveto
          -79 callsubr
          endchar
        </CharString>
        <CharString name="quotedblleft">
          -81 240 508 rmoveto
          -35 callsubr
          -233 hmoveto
          -35 callsubr
          endchar
        </CharString>
        <CharString name="quotedblright">
          -84 225 610 rmoveto
          -79 callsubr
          233 hmoveto
          -79 callsubr
          endchar
        </CharString>
        <CharString name="quoteleft">
          -314 7 508 rmoveto
          -35 callsubr
          endchar
        </CharString>
        <CharString name="quoteright">
          -317 225 610 rmoveto
          -79 callsubr
          endchar
        </CharString>
        <CharString name="quotesinglbase">
          -12 callsubr
        </CharString>
        <CharString name="quotesingle">
          -401 -8 callsubr
          endchar
        </CharString>
        <CharString name="r">
          -71 callgsubr
          endchar
        </CharString>
        <CharString name="racute">
          -71 callgsubr
          -90 293 -104 callgsubr
        </CharString>
        <CharString name="rcaron">
          -72 475 322 68 callgsubr
          -13 -2 -26 -5 1 -4 -5 vvcurveto
          -39 -38 0 -42 -11 vhcurveto
          -4 -15 -18 -7 -16 -81 75 159 -66 hhcurveto
          -18 -22 -15 -4 -9 hvcurveto
          -19 -9 -37 -9 -18 -29 32 -73 -9 -4 -3 -4 -6 -18 12 -24 -25 vvcurveto
          -8 -2 -49 -7 -11 vhcurveto
          -7 -11 -11 3 -13 -8 rrcurveto
          -18 -28 9 -13 -40 hhcurveto
          -56 -18 27 63 43 17 41 5 46 hvcurveto
          3 31 3 39 31 vvcurveto
          14 -1 14 -2 16 vhcurveto
          -1 8 -5 8 7 vvcurveto
          20 11 24 1 22 vhcurveto
          11 -4 6 7 vvcurveto
          37 34 -1 -5 vhcurveto
          75 -34 -101 23 hhcurveto
          11 25 23 -5 -5 hvcurveto
          0 -1 -1 0 vhcurveto
          34 callsubr
          3 2 vhcurveto
          -1 -1 68 callsubr
          vvcurveto
          0 22 18 14 8 vhcurveto
          11 7 15 1 11 7 10 7 10 10 8 5 rrcurveto
          7 15 34 6 19 hhcurveto
          19 4 -14 -6 20 hvcurveto
          25 -8 45 9 -1 -56 rrcurveto
          -25 12 -12 -15 -7 -1 -9 -8 -13 7 -17 -8 vvcurveto
          -116 386 -96 callgsubr
        </CharString>
        <CharString name="rcommaaccent">
          -71 callgsubr
          -280 -424 -97 callgsubr
        </CharString>
        <CharString name="registered">
          -141 281 534 rmoveto
          2 5 29 callgsubr
          8 -3 6 -1 10 vhcurveto
          -2 6 1 6 -1 4 -4 9 -2 1 -6 6 rrcurveto
          9 -10 0 0 -9 -14 -20 -5 -22 24 callgsubr
          -5 -5 0 -1 -6 hvcurveto
          -2 -5 -2 -1 -5 hvcurveto
          -4 -2 -6 2 -3 -2 rrcurveto
          -8 -4 -5 -8 -6 vvcurveto
          -7 4 1 2 -2 vhcurveto
          5 -5 1 -3 -11 -19 -2 -10 -14 -6 0 -7 -7 -21 -8 -17 -23 vvcurveto
          -17 10 0 14 11 11 5 13 vhcurveto
          5 -2 6 6 vvcurveto
          12 1 11 2 9 vhcurveto
          19 2 -5 4 16 hhcurveto
          8 0 -9 -11 3 hvcurveto
          3 -8 2 15 callsubr
          rrcurveto
          -24 6 1 -32 17 hhcurveto
          10 12 6 2 5 hvcurveto
          7 3 12 12 8 vvcurveto
          5 -3 5 -1 6 vhcurveto
          -2 5 0 50 callgsubr
          -3 6 -5 7 -2 5 rrcurveto
          -1 3 -6 12 5 vvcurveto
          6 15 0 6 5 vhcurveto
          3 2 5 8 1 4 rrcurveto
          -27 16 rmoveto
          -1 35 callsubr
          vhcurveto
          -7 -9 -3 -6 vhcurveto
          -2 63 callgsubr
          -12 -15 -3 -10 -5 -3 0 -4 hhcurveto
          -3 -4 0 -1 -3 hvcurveto
          -1 4 0 81 callsubr
          rrcurveto
          61 callsubr
          3 vvcurveto
          4 17 3 6 vhcurveto
          2 12 12 1 8 hhcurveto
          6 7 -2 -3 4 hvcurveto
          2 -1 -1 -5 3 -4 3 -4 4 -1 1 -2 rrcurveto
          77 -17 rmoveto
          -2 1 -2 -2 vvcurveto
          -18 -10 -20 -4 -19 vhcurveto
          -1 -8 1 -13 -2 -6 -2 -10 -7 -12 -5 -10 rrcurveto
          -31 -16 -6 -10 -44 hhcurveto
          -37 -41 8 11 -23 hvcurveto
          -26 12 -3 11 -14 41 -7 21 -8 20 1 22 rrcurveto
          12 4 23 4 10 vhcurveto
          5 9 7 3 9 6 -4 3 7 vvcurveto
          -1 16 47 20 vhcurveto
          3 2 67 callsubr
          0 2 0 0 vhcurveto
          11 22 -5 20 18 19 2 16 hhcurveto
          47 -3 -26 -19 9 hvcurveto
          3 -7 9 -7 6 -12 3 -5 0 -9 3 -6 rrcurveto
          3 -8 6 -4 -5 vvcurveto
          -306 -63 rmoveto
          1 -7 7 -5 4 -12 4 -8 0 -13 5 -8 8 -15 14 -10 4 -11 rrcurveto
          -26 11 -4 -36 66 23 27 2 25 29 30 -7 15 1 82 callgsubr
          2 52 callgsubr
          hhcurveto
          28 23 66 -1 hvcurveto
          9 -6 4 10 vvcurveto
          12 10 5 6 12 vhcurveto
          6 13 6 33 17 vvcurveto
          1 31 -11 27 -10 30 -19 58 -4 16 -37 17 rrcurveto
          14 -32 -58 12 -52 hhcurveto
          -62 -7 -15 -42 -23 hvcurveto
          -8 -15 -10 -16 -2 -14 -3 -9 2 -19 -2 -11 rrcurveto
          -5 -27 -14 -27 -25 -3 1 38 callgsubr
          endchar
        </CharString>
        <CharString name="ring">
          -349 198 734 -73 callsubr
        </CharString>
        <CharString name="s">
          -76 callgsubr
          endchar
        </CharString>
        <CharString name="sacute">
          -76 callgsubr
          -71 541 -104 callgsubr
        </CharString>
        <CharString name="scaron">
          -92 448 84 rmoveto
          -5 -12 -16 -7 -13 -15 -11 -13 -5 -18 -9 -9 rrcurveto
          -1 -30 -22 2 1 vhcurveto
          -3 -6 -7 0 -8 -16 -19 3 -18 -18 -18 -9 -19 -16 -16 -1 -16 hhcurveto
          -75 -55 15 75 -29 hvcurveto
          -6 15 3 24 -3 20 rrcurveto
          -5 26 -6 18 16 vvcurveto
          35 39 23 48 26 6 0 -25 31 vhcurveto
          6 -6 12 -6 3 -4 9 -11 -1 -23 14 -9 rrcurveto
          13 -14 21 5 -24 40 callgsubr
          -5 vvcurveto
          -21 24 -11 18 23 29 16 32 vhcurveto
          12 -7 16 19 9 1 11 8 vvcurveto
          45 -126 4 -57 29 vhcurveto
          -10 5 -10 12 -11 8 rrcurveto
          -28 21 -23 10 56 vvcurveto
          102 57 9 90 9 vhcurveto
          2 20 24 3 23 hhcurveto
          32 65 -26 -53 24 hvcurveto
          7 -16 6 -4 -14 vvcurveto
          -32 -5 -17 -3 -34 hhcurveto
          -7 -6 0 1 -2 hvcurveto
          -27 5 -42 43 -24 4 rrcurveto
          2 -9 61 callgsubr
          hhcurveto
          -30 -19 -14 -17 -21 51 -31 8 -3 hvcurveto
          5 -2 11 2 8 -3 6 -2 4 -6 6 -1 16 -5 20 0 16 -5 99 -30 13 -31 15 -118 rrcurveto
          2 -17 5 -10 -11 vvcurveto
          -5 -1 -5 -3 -7 vhcurveto
          -97 621 -96 callgsubr
        </CharString>
        <CharString name="scedilla">
          -92 353 -20 callgsubr
          17 11 9 9 10 hvcurveto
          2 16 15 6 15 -16 callsubr
          -83 callsubr
          27 -70 51 -18 68 -2 -2 -3 -3 49 callgsubr
          -46 callsubr
        </CharString>
        <CharString name="scircumflex">
          -76 callgsubr
          -99 516 -106 callgsubr
        </CharString>
        <CharString name="section">
          37 562 170 rmoveto
          1 74 callsubr
          6 vvcurveto
          46 -24 37 -14 21 vhcurveto
          -7 11 -4 14 -4 3 -12 9 -13 -4 -9 5 rrcurveto
          -14 7 -26 23 7 13 69 48 60 vvcurveto
          15 -8 5 -9 13 vhcurveto
          -20 29 -5 -1 -37 21 -16 8 -15 14 -15 6 -25 10 -36 7 -29 5 rrcurveto
          2 -160 8 29 60 36 10 24 29 30 -12 -6 18 hvcurveto
          13 -4 16 -1 14 -4 26 -8 24 -17 24 -6 rrcurveto
          -7 27 50 -11 16 hhcurveto
          16 10 8 23 14 hvcurveto
          5 7 -1 12 5 8 rrcurveto
          7 12 9 -7 17 vvcurveto
          41 -68 0 -31 11 vhcurveto
          8 -23 -5 13 -23 -9 -8 -2 -12 -61 -81 13 -38 hhcurveto
          -13 -58 -8 -20 -18 hvcurveto
          -1 -1 -55 -88 -72 vvcurveto
          -19 4 -17 12 -13 vhcurveto
          7 -8 49 -13 2 -7 1 -3 -19 -25 -6 -9 rrcurveto
          -22 -29 -9 -3 -26 vvcurveto
          -33 19 -27 21 -12 vhcurveto
          22 -13 32 6 29 -8 13 -4 13 -10 15 -5 33 -12 33 -7 29 -9 85 -28 11 -43 19 -40 rrcurveto
          8 -17 10 -18 -14 vvcurveto
          -71 -80 -64 -14 -25 -22 24 9 -13 vhcurveto
          -38 26 -14 85 16 17 3 17 14 vvcurveto
          33 -39 44 -47 vhcurveto
          -4 -4 0 -5 -24 -13 10 -16 hhcurveto
          -51 -14 -20 -29 hvcurveto
          -27 12 -20 -24 -33 -10 -19 -38 vvcurveto
          -39 -3 -2 32 -33 vhcurveto
          59 -62 25 -10 83 -17 rrcurveto
          -8 38 55 -9 50 hhcurveto
          36 33 5 12 22 hvcurveto
          6 2 1 8 6 5 6 5 8 0 4 4 42 39 -18 15 10 45 6 27 24 42 4 30 rrcurveto
          -179 272 rmoveto
          -12 -5 -34 -32 -7 hhcurveto
          -14 -15 13 3 -11 hvcurveto
          -27 6 -37 -5 -23 5 rrcurveto
          -19 4 -36 13 13 vvcurveto
          17 34 63 9 4 vhcurveto
          1 3 3 1 3 hhcurveto
          19 28 -16 -4 18 hvcurveto
          44 -11 73 9 -46 vvcurveto
          -8 -2 -8 -4 -10 vhcurveto
          endchar
        </CharString>
        <CharString name="semicolon">
          -282 243 -53 callgsubr
          -26 378 -59 callgsubr
        </CharString>
        <CharString name="seven">
          -105 446 520 rmoveto
          8 -8 15 -5 17 vhcurveto
          -5 19 1 25 -5 15 rrcurveto
          55 -28 4 0 -60 -11 -9 0 -4 -9 -9 0 -10 -26 -30 0 -35 -21 -17 0 -32 hhcurveto
          -39 -52 -2 -13 -14 hvcurveto
          -6 -6 4 -11 -4 -11 -3 -12 -5 6 -1 -18 rrcurveto
          -1 -16 7 -19 -24 -16 -6 -20 -12 vvcurveto
          -32 36 -19 24 vhcurveto
          32 35 13 47 24 24 -2 21 hhcurveto
          21 19 2 6 17 hvcurveto
          -22 -25 8 -42 -14 -32 rrcurveto
          -9 -19 -18 -6 -22 -3 0 38 callgsubr
          -18 -10 -12 -6 -16 vhcurveto
          -6 -14 -2 -15 -5 -11 -5 -13 -12 -12 -4 -12 -6 -16 -2 -17 -5 -17 rrcurveto
          -12 -35 -12 -27 -36 vvcurveto
          -9 42 -26 22 11 31 40 15 vhcurveto
          3 0 2 3 vvcurveto
          24 40 52 8 28 vhcurveto
          5 17 -3 23 4 19 6 37 17 27 11 32 rrcurveto
          14 39 27 40 26 vvcurveto
          15 7 0 8 12 vhcurveto
          3 7 -1 11 4 7 8 16 15 7 2 11 rrcurveto
          endchar
        </CharString>
        <CharString name="six">
          -10 509 119 rmoveto
          3 19 1 15 14 vvcurveto
          23 -3 42 -5 13 vhcurveto
          -9 25 -37 28 -15 6 -39 16 -53 1 -50 4 -20 2 -65 -1 -8 12 -4 6 -1 63 -1 20 rrcurveto
          6 -1 7 7 vvcurveto
          64 7 52 29 36 -11 -25 -21 8 vhcurveto
          9 -28 17 -16 -23 -15 -3 -14 -13 vvcurveto
          -49 98 -1 22 79 4 35 12 18 -7 19 -3 10 vhcurveto
          -11 39 -7 10 -13 34 -11 28 -3 36 -14 11 -9 7 -31 2 -28 6 rrcurveto
          7 -35 -26 14 -27 hhcurveto
          -38 -36 -4 -14 -38 hvcurveto
          -13 -5 -14 -13 -14 -7 -30 -14 -22 -5 -9 -24 -5 -12 -2 -29 -3 -27 rrcurveto
          -5 -33 -5 -38 -28 -26 4 -22 -25 -35 -9 -33 -33 vvcurveto
          -39 18 -48 19 -20 vhcurveto
          18 -19 14 -55 17 -12 19 -14 41 0 27 -2 rrcurveto
          8 9 -6 8 15 17 6 14 14 9 -3 10 hhcurveto
          36 23 13 12 41 hvcurveto
          21 6 61 15 7 10 4 6 4 38 2 12 rrcurveto
          -87 12 rmoveto
          -8 -13 -53 -8 -22 -4 rrcurveto
          -1 -7 -48 -7 -24 hhcurveto
          -7 -5 0 2 -2 hvcurveto
          -1 1 -21 103 15 vvcurveto
          4 9 5 34 vhcurveto
          17 19 -1 11 hhcurveto
          22 -2 68 -3 12 -11 rrcurveto
          5 -4 6 -28 -22 vvcurveto
          -11 -2 -10 -3 -5 vhcurveto
          endchar
        </CharString>
        <CharString name="slash">
          -137 394 655 rmoveto
          13 -4 -26 9 -22 hhcurveto
          -55 6 -40 -41 -19 hvcurveto
          -14 -30 -25 -23 -11 -21 -13 -26 -11 -27 -16 -33 -4 -11 0 -13 -5 -10 -6 -13 -14 -10 -5 -11 -8 -15 -1 -16 -6 -16 -9 -22 -14 -22 -8 -18 -4 -8 1 -9 -3 -7 rrcurveto
          -29 -54 -51 -42 -56 vvcurveto
          -44 37 -21 52 -12 vhcurveto
          -4 15 9 -3 8 hhcurveto
          47 8 75 25 6 hvcurveto
          5 21 7 21 6 20 4 10 9 6 3 8 23 75 13 72 22 51 14 32 22 27 8 24 11 32 2 28 18 33 rrcurveto
          4 10 24 57 23 2 -1 15 callgsubr
          endchar
        </CharString>
        <CharString name="space">
          -318 endchar
        </CharString>
        <CharString name="sterling">
          88 616 195 rmoveto
          -7 31 -42 -5 -32 8 rrcurveto
          4 -18 -12 7 -14 hhcurveto
          -37 -25 -29 -29 -11 hvcurveto
          -4 -11 -7 -11 -1 -6 rrcurveto
          -29 -10 21 -15 -60 hhcurveto
          -11 -11 0 1 -10 hvcurveto
          1 -15 -48 15 -8 -5 -7 -1 -5 hhcurveto
          -9 -5 2 6 16 21 40 1 5 hvcurveto
          17 6 -7 18 13 9 12 -4 11 hhcurveto
          17 5 16 24 46 -28 14 -22 hvcurveto
          -3 54 callgsubr
          hhcurveto
          -15 -9 -2 27 hvcurveto
          7 0 8 8 23 -7 80 35 5 41 callgsubr
          10 1 6 31 13 hhcurveto
          12 19 -11 -2 5 hvcurveto
          38 -20 2 -24 6 -46 4 -34 17 -38 1 -24 rrcurveto
          -7 -4 -8 -6 vvcurveto
          -13 30 -24 14 14 9 8 7 20 vhcurveto
          14 5 19 2 14 6 10 4 43 19 5 7 rrcurveto
          10 14 3 49 19 vvcurveto
          49 -13 23 -12 56 vhcurveto
          -7 33 -5 40 -13 17 rrcurveto
          18 -14 -44 7 -23 hhcurveto
          -19 -26 -2 -4 -19 hvcurveto
          -5 -25 -19 -14 -24 -28 -29 9 -27 hhcurveto
          -67 4 -64 -47 -20 hvcurveto
          -2 -6 -7 -1 -3 79 callgsubr
          64 callgsubr
          -6 rrcurveto
          -6 -13 -9 -14 -11 vvcurveto
          -8 9 -13 6 -18 vhcurveto
          4 -13 2 -17 3 -13 rrcurveto
          3 -11 16 -42 -21 vvcurveto
          -8 -2 -3 -7 vhcurveto
          -10 -19 4 -10 hhcurveto
          -53 5 -19 -33 -16 39 -19 20 -5 hvcurveto
          14 -4 38 4 -7 vvcurveto
          -8 -20 -37 -8 -10 vhcurveto
          -24 -30 -23 7 -39 -20 7 -22 -22 -9 0 49 callsubr
          -28 20 -4 25 vhcurveto
          63 callsubr
          15 31 34 -6 34 30 35 12 41 15 15 -1 15 hhcurveto
          84 20 10 87 49 hvcurveto
          6 11 4 19 8 19 rrcurveto
          8 18 11 13 14 82 callgsubr
          2 vvcurveto
          endchar
        </CharString>
        <CharString name="t">
          -148 -62 callsubr
          endchar
        </CharString>
        <CharString name="tbar">
          -148 384 215 rmoveto
          44 -3 0 17 -71 -13 -10 -7 -16 hhcurveto
          -11 -14 0 1 -13 hvcurveto
          1 18 1 17 17 -14 callgsubr
          -40 callgsubr
          vvcurveto
          -18 vlineto
          7 callsubr
          -28 1 -28 2 -27 vhcurveto
          -24 -27 -3 -6 -9 36 callsubr
          9 7 1 3 12 vhcurveto
          3 -31 2 -28 -24 -15 callgsubr
          vvcurveto
          12 0 13 1 13 vhcurveto
          28 6 24 13 23 1 rrcurveto
          56 callsubr
        </CharString>
        <CharString name="tcaron">
          1 -62 callsubr
          114 275 -97 callgsubr
        </CharString>
        <CharString name="tcommaaccent">
          -148 -62 callsubr
          -167 -582 -97 callgsubr
        </CharString>
        <CharString name="thorn">
          -44 491 11 callgsubr
          -8 -7 69 76 6 hvcurveto
          4 47 -4 108 -5 30 rrcurveto
          13 -2 -18 3 56 callgsubr
          -12 -296 -8 callgsubr
          vvcurveto
          5 vlineto
          -2 7 6 -1 7 21 20 9 20 20 20 -9 18 hhcurveto
          66 -1 49 12 21 23 10 11 36 73 3 14 rrcurveto
          -114 60 rmoveto
          -3 -16 -7 1 hhcurveto
          24 callsubr
          hhcurveto
          7 hlineto
          39 callsubr
        </CharString>
        <CharString name="three">
          -62 458 205 rmoveto
          -4 41 -15 0 -34 18 rrcurveto
          1 -1 -44 19 3 vvcurveto
          7 37 11 9 7 vhcurveto
          28 22 9 41 54 vvcurveto
          78 -8 97 -26 26 vhcurveto
          -5 5 -16 5 -13 9 -11 7 -10 12 -10 5 rrcurveto
          9 -18 -51 7 -14 hhcurveto
          -26 -49 -17 -5 -42 hvcurveto
          -80 -9 11 -11 -15 -20 -6 -8 -11 -4 -4 -6 -23 -33 6 -47 -2 -47 rrcurveto
          -13 -6 -15 -13 vvcurveto
          -29 27 -15 7 -14 vhcurveto
          -12 6 7 -3 10 hhcurveto
          -1 14 17 10 20 15 15 -6 13 hhcurveto
          48 5 13 31 hvcurveto
          7 -1 7 8 vvcurveto
          1 17 4 12 2 22 rrcurveto
          63 5 -14 19 41 hhcurveto
          34 10 -86 -13 hvcurveto
          -5 0 -6 -5 -29 14 -27 -15 -87 -145 70 -78 -107 183 99 -121 vvcurveto
          -17 -10 -22 -29 vhcurveto
          -11 -12 3 -14 -12 -10 -4 -12 hhcurveto
          -29 -9 17 8 -17 hvcurveto
          -5 3 -9 0 -8 3 rrcurveto
          7 -15 -37 21 -9 hhcurveto
          -35 -20 -30 -31 -13 4 -24 4 -7 hvcurveto
          -39 22 83 -15 41 hhcurveto
          43 66 17 6 42 hvcurveto
          54 7 41 19 56 10 -6 12 14 19 13 12 15 vvcurveto
          endchar
        </CharString>
        <CharString name="threequarters">
          41 450 -65 callsubr
          119 -518 -23 callsubr
          -342 522 -28 callsubr
        </CharString>
        <CharString name="threesuperior">
          -289 221 658 -28 callsubr
        </CharString>
        <CharString name="tilde">
          -275 272 758 -95 callgsubr
        </CharString>
        <CharString name="trademark">
          -17 241 631 rmoveto
          12 -2 -5 3 -8 -6 -6 -1 -8 -13 -6 6 -9 -5 -4 -1 -5 -3 -16 2 -2 hhcurveto
          -10 5 6 14 -15 2 rrcurveto
          -30 14 -22 -16 -5 -5 4 -6 hhcurveto
          -28 6 -8 -18 -5 hvcurveto
          -2 -5 -3 38 callgsubr
          -2 9 -21 2 -1 vhcurveto
          -3 4 5 0 4 3 38 callsubr
          hhcurveto
          7 6 -2 -9 hvcurveto
          -7 -4 -11 -9 9 callsubr
          -2 -16 -11 -34 -17 vvcurveto
          -9 11 -1 4 -11 vhcurveto
          3 -9 -3 -11 3 -5 rrcurveto
          -5 3 12 -3 7 hhcurveto
          26 5 9 20 1 hvcurveto
          2 -2 5 3 3 2 5 9 10 -2 14 11 12 1 11 11 9 -3 12 14 vvcurveto
          7 10 0 10 vhcurveto
          5 9 1 8 14 4 -4 10 hhcurveto
          21 9 6 25 hvcurveto
          4 -1 5 3 vvcurveto
          259 -112 rmoveto
          5 -2 11 -1 3 vhcurveto
          -4 9 -5 2 18 7 0 8 7 15 -4 4 11 6 48 callgsubr
          -1 55 callgsubr
          -4 4 -5 5 -9 0 -7 2 rrcurveto
          3 -9 -2 4 -6 hhcurveto
          -18 -7 -40 -13 -6 hvcurveto
          -3 -7 -6 79 callgsubr
          rrcurveto
          -11 -7 -4 -18 -5 hhcurveto
          -2 -17 28 3 -1 hvcurveto
          -2 2 1 4 -1 3 -2 4 -5 3 -2 5 -6 10 -4 16 -7 7 -6 7 -13 -2 -14 3 rrcurveto
          1 -5 -2 3 -3 hhcurveto
          -2 -1 -10 -4 -1 -1 -2 -2 1 -6 -2 -7 rrcurveto
          -3 -12 -6 -11 -9 -13 4 -6 -10 vvcurveto
          -11 -3 70 callsubr
          vhcurveto
          -1 -18 0 -20 -2 -13 76 callsubr
          -3 -3 -11 -15 -3 -14 -9 vvcurveto
          -13 18 -9 15 12 4 10 8 7 vhcurveto
          7 7 3 -1 9 10 -4 31 callgsubr
          -1 8 0 9 8 7 0 7 7 10 -1 9 9 vvcurveto
          5 -10 6 -14 6 -9 2 -3 3 -3 3 -3 rrcurveto
          -13 9 0 -12 14 hhcurveto
          24 -7 9 9 5 hvcurveto
          3 5 6 3 4 5 7 12 6 17 11 7 rrcurveto
          2 -17 1 -16 -16 -17 -1 -16 -15 -5 1 -6 -4 vvcurveto
          -12 15 -5 8 11 15 3 3 6 vhcurveto
          12 6 8 35 27 vvcurveto
          endchar
        </CharString>
</ttFont>
